<?xml version="1.0" encoding="utf-8"?>
<!-- Generator: Adobe Illustrator 24.1.1, SVG Export Plug-In . SVG Version: 6.00 Build 0)  -->
<svg version="1.1" id="Layer_1" xmlns="http://www.w3.org/2000/svg" xmlns:xlink="http://www.w3.org/1999/xlink" x="0px" y="0px"
	 viewBox="0 0 219.6 219.6" style="enable-background:new 0 0 219.6 219.6;" xml:space="preserve">
<style type="text/css">
	.st0{opacity:0.65;}
	.st1{fill:url(#SVGID_1_);}
	.st2{fill:url(#SVGID_2_);}
	.st3{fill:#F9CB0B;}
	.st4{fill:url(#SVGID_3_);}
</style>
<g class="st0">
	<g>
		
			<linearGradient id="SVGID_1_" gradientUnits="userSpaceOnUse" x1="190.218" y1="31.3864" x2="4.0914" y2="18.1153" gradientTransform="matrix(1 0 0 -1 0 128.4681)">
			<stop  offset="0" style="stop-color:#F9CB0B"/>
			<stop  offset="0.4194" style="stop-color:#F4BE08"/>
			<stop  offset="1" style="stop-color:#EEB005"/>
		</linearGradient>
		<path class="st1" d="M66.3,135.3c23.9,4.3-5.9,31.6,7.3,47.1c21.7,25.4,49.9-14.5,71.2-13.4c12.5,0.6,13.8,10.5,26.1,9.7
			c11-0.7,23.7-8.6,27.2-20.8c4-14-5.4-28.7-14.7-35.1c-6.3-4.3-11.5-4.2-17.6-10.8c-4.6-5-6.7-10.6-7.8-14.6l0,0
			c-6.7-14.6-10.3-81.7-41.8-81.7c-28.4,0-39.7,44.8-85.8,33.2C6.3,42.8-5.2,122.3,66.3,135.3z"/>
	</g>
</g>
<g>
	<g>
		
			<linearGradient id="SVGID_2_" gradientUnits="userSpaceOnUse" x1="193.2483" y1="12.9681" x2="201.2274" y2="12.9681" gradientTransform="matrix(1 0 0 -1 0 128.4681)">
			<stop  offset="0" style="stop-color:#F9CB0B"/>
			<stop  offset="0.2839" style="stop-color:#F7C70A"/>
			<stop  offset="0.5659" style="stop-color:#F3BB07"/>
			<stop  offset="0.8464" style="stop-color:#EBA703"/>
			<stop  offset="1" style="stop-color:#E59900"/>
		</linearGradient>
		<path class="st2" d="M198.6,119.2c-2.1,0.8-4.4-0.3-5.1-2.3c-0.8-2.1,0.3-4.4,2.3-5.1c2.1-0.8,4.4,0.3,5.1,2.3
			C201.8,116.1,200.7,118.4,198.6,119.2z"/>
	</g>
</g>
<g>
	<g>
		<path class="st3" d="M174.4,188.8c0,0,0.3,0.1,0.9,0.2c0.6,0.1,1.5,0.3,2.6,0.3c0.6,0.1,1.2,0.1,1.9,0.1s1.4,0.1,2.2,0
			c0.8,0,1.6-0.1,2.5-0.2c0.4-0.1,0.9-0.1,1.4-0.2c0.5-0.1,0.9-0.2,1.4-0.3c1-0.1,1.9-0.5,2.9-0.7c1-0.3,2-0.6,3-1.1
			c2.1-0.8,4.1-1.9,6.1-3.3c1-0.6,2-1.4,2.9-2.2s1.9-1.6,2.7-2.5c1.7-1.8,3.4-3.8,4.7-5.9c1.3-2.1,2.5-4.4,3.4-6.7
			c0.8-2.3,1.5-4.7,1.9-7c0.3-1.2,0.3-2.3,0.5-3.5c0.1-1.1,0.1-2.3,0.2-3.3c0-1.1,0-2.1-0.1-3.2c-0.1-1-0.1-2-0.3-3
			c-0.1-0.9-0.3-1.8-0.4-2.7c-0.2-0.9-0.3-1.7-0.5-2.4c-0.3-1.5-0.7-2.8-1-3.9c-0.7-2.1-1.1-3.4-1.1-3.4s0.5,1.2,1.3,3.3
			c0.3,1.1,0.8,2.4,1.2,3.9c0.2,0.8,0.4,1.6,0.6,2.4c0.1,0.9,0.3,1.8,0.5,2.7c0.2,1,0.2,2,0.3,3s0.1,2.1,0.2,3.2
			c0,1.1,0,2.2-0.1,3.4s-0.2,2.3-0.4,3.5c-0.3,2.4-1,4.8-1.9,7.2s-2,4.7-3.4,7c-1.4,2.2-3.1,4.2-4.9,6.1c-0.9,0.9-1.9,1.8-2.8,2.6
			c-1,0.8-2,1.5-3,2.2c-2.1,1.4-4.2,2.4-6.3,3.2c-1,0.4-2.1,0.7-3.1,1c-1,0.2-2,0.5-3,0.7c-0.5,0.1-1,0.2-1.4,0.2
			c-0.5,0-0.9,0.1-1.4,0.1c-0.9,0.1-1.7,0.1-2.6,0.1c-0.8,0-1.5-0.1-2.2-0.1s-1.3-0.1-1.9-0.2c-1.1-0.1-2-0.4-2.6-0.5
			C174.7,188.9,174.4,188.8,174.4,188.8z"/>
	</g>
</g>
<g>
	<g>
		<path class="st3" d="M6.8,103.4c0,0,0,0.9-0.1,2.5c0,0.8,0,1.8,0,2.9c0,0.6,0,1.1,0.1,1.8c0,0.6,0.1,1.3,0.1,1.9
			c0,0.7,0.1,1.4,0.2,2.1s0.2,1.5,0.3,2.2c0.1,0.8,0.3,1.5,0.4,2.3c0.2,0.8,0.4,1.6,0.6,2.4c0.4,1.6,1,3.3,1.6,4.9
			c0.3,0.8,0.7,1.6,1.1,2.4c0.4,0.8,0.8,1.6,1.3,2.3c0.9,1.5,1.9,3,3,4.4s2.3,2.6,3.6,3.8c2.5,2.3,5.1,4,7.5,5.3s4.5,2.1,6,2.6
			c1.5,0.5,2.4,0.7,2.4,0.7s-0.9-0.1-2.4-0.5s-3.7-1.1-6.2-2.3c-1.2-0.6-2.5-1.3-3.9-2.2c-1.3-0.9-2.7-1.8-4-3
			c-1.3-1.1-2.6-2.4-3.7-3.8c-0.6-0.7-1.2-1.4-1.7-2.2c-0.6-0.7-1-1.5-1.5-2.3s-0.9-1.6-1.3-2.4c-0.4-0.8-0.8-1.7-1.1-2.5
			c-0.7-1.7-1.2-3.4-1.6-5.1c-0.2-0.8-0.4-1.7-0.5-2.5s-0.2-1.6-0.4-2.4c-0.1-0.8-0.1-1.5-0.2-2.3c-0.1-0.7-0.1-1.4-0.1-2.1
			s0-1.3-0.1-2c0-0.6,0-1.2,0.1-1.8c0-1.1,0.1-2.1,0.2-2.9C6.7,104.3,6.8,103.4,6.8,103.4z"/>
	</g>
</g>
<g>
	<g>
		
			<linearGradient id="SVGID_3_" gradientUnits="userSpaceOnUse" x1="26.4045" y1="94.8181" x2="40.5586" y2="94.8181" gradientTransform="matrix(1 0 0 -1 0 128.4681)">
			<stop  offset="0" style="stop-color:#F9CB0B"/>
			<stop  offset="0.2839" style="stop-color:#F7C70A"/>
			<stop  offset="0.5659" style="stop-color:#F3BB07"/>
			<stop  offset="0.8464" style="stop-color:#EBA703"/>
			<stop  offset="1" style="stop-color:#E59900"/>
		</linearGradient>
		<path class="st4" d="M36,40.3c-3.7,1.4-7.7-0.5-9.1-4.2s0.5-7.7,4.2-9.1s7.7,0.5,9.1,4.2C41.5,34.9,39.6,39,36,40.3z"/>
	</g>
</g>
<g>
	<g>
		<path class="st3" d="M170.7,15.8c0,0,0.3,0,0.9-0.1c0.6-0.1,1.4-0.1,2.5-0.1s2.4,0.1,3.9,0.2c1.5,0.2,3.2,0.4,5,0.9
			c1.8,0.4,3.7,1.1,5.7,1.9s4,1.8,5.9,3c2,1.2,3.9,2.6,5.7,4.3c1.8,1.6,3.5,3.4,5,5.4c0.4,0.5,0.7,1,1.1,1.5c0.3,0.5,0.7,1,1,1.5
			c0.6,1.1,1.3,2.1,1.8,3.2c1.1,2.2,1.9,4.4,2.7,6.6c0.3,1.1,0.6,2.2,0.9,3.3c0.2,1.1,0.4,2.2,0.6,3.2c0.1,1,0.3,2.1,0.4,3.1
			c0.1,1,0.2,1.9,0.2,2.9c0.1,0.9,0.1,1.8,0.1,2.6s0,1.6,0,2.4c-0.1,1.5-0.1,2.8-0.2,3.9c-0.2,2.1-0.3,3.4-0.3,3.4s0-1.2,0.1-3.4
			c0.1-1.1,0-2.4,0-3.9c0-0.7-0.1-1.5-0.1-2.4c-0.1-0.8-0.1-1.7-0.2-2.6c-0.1-0.9-0.2-1.9-0.3-2.8c-0.2-1-0.3-2-0.5-3
			s-0.5-2.1-0.7-3.1c-0.3-1.1-0.6-2.1-0.9-3.2c-0.7-2.1-1.6-4.4-2.7-6.5c-0.5-1.1-1.2-2.1-1.8-3.1c-0.3-0.5-0.7-1-1-1.5
			s-0.7-1-1.1-1.5c-1.4-2-3.1-3.7-4.8-5.3c-1.7-1.6-3.6-3-5.6-4.2c-3.8-2.4-7.8-4.1-11.3-5.1c-1.8-0.5-3.4-0.9-4.9-1.1
			c-1.5-0.2-2.8-0.4-3.8-0.4c-1.1,0-1.9-0.1-2.5,0C171,15.8,170.7,15.8,170.7,15.8z"/>
	</g>
</g>
</svg>
