<?xml version="1.0" encoding="utf-8"?>
<!-- Generator: Adobe Illustrator 24.1.1, SVG Export Plug-In . SVG Version: 6.00 Build 0)  -->
<svg version="1.1" xmlns="http://www.w3.org/2000/svg" xmlns:xlink="http://www.w3.org/1999/xlink" x="0px" y="0px"
	 viewBox="0 0 300 300" style="enable-background:new 0 0 300 300;" xml:space="preserve">
<style type="text/css">
	.st0{fill:#FFDDC0;}
	.st1{fill:#95AAA8;}
	.st2{fill:#91A8A8;}
	.st3{fill:#FFFAA9;}
	.st4{fill:url(#SVGID_1_);}
	.st5{opacity:0.6;fill:#9B362F;}
	.st6{fill:#151516;}
	.st7{fill:#AD7261;}
	.st8{fill:#7C5A4F;}
	.st9{fill:#C35E4C;}
	.st10{fill:#C5725E;}
	.st11{fill:#D39170;}
	.st12{fill:#F1B7A6;}
	.st13{fill:#7D5242;}
	.st14{fill:#7D5A4A;}
	.st15{fill:#E9BB97;}
	.st16{fill:url(#SVGID_2_);}
	.st17{fill:#1B1B1C;}
	.st18{fill:#D0958B;}
	.st19{fill:#E09E98;}
	.st20{fill:#CF997D;}
	.st21{fill:#283841;}
	.st22{fill:#DCA98C;}
	.st23{opacity:0.71;}
	.st24{fill:#718689;}
	.st25{fill:#7D8F8C;}
	.st26{opacity:0.32;fill:#4F6469;}
	.st27{fill:#93A4A4;}
	.st28{fill:#8C9E9C;}
	.st29{opacity:0.38;fill:#606F71;}
	.st30{opacity:0.31;fill:#667877;}
	.st31{opacity:0.37;fill:#546461;}
	.st32{opacity:0.61;fill:#667A77;}
	.st33{opacity:0.56;fill:#394848;}
	.st34{fill:#A5B9B4;}
	.st35{fill:#8CA09D;}
	.st36{fill:#A8BEB7;}
	.st37{fill:#AFC5C0;}
	.st38{opacity:0.41;fill:#A8BEB7;}
	.st39{opacity:0.4;fill:#A8C6C2;}
	.st40{fill:#90A5A1;}
	.st41{fill:#A9BAB5;}
	.st42{fill:#B0C5C1;}
	.st43{fill:#899B99;}
	.st44{fill:#B2C8C2;}
	.st45{opacity:0.73;fill:#4E635C;}
	.st46{opacity:0.56;fill:#5D6F6B;}
	.st47{opacity:0.19;fill:#849B95;}
	.st48{opacity:0.56;fill:#889B98;}
	.st49{opacity:0.6;fill:#7E928F;}
	.st50{fill:#747F7C;}
	.st51{fill:#829C99;}
	.st52{fill:#7C8D8C;}
	.st53{fill:#2A201D;}
	.st54{fill:#D6D6D8;}
	.st55{fill:#9E9D9D;}
	.st56{fill:url(#SVGID_3_);}
	.st57{fill:url(#SVGID_4_);}
	.st58{fill:#444444;}
	.st59{fill:#9F5E5D;}
	.st60{fill:#886960;}
	.st61{fill:#47332E;}
	.st62{opacity:0.55;fill:#DCA98C;}
	.st63{fill:#FFECDB;}
	.st64{fill:#FEFDF9;}
	.st65{fill:#FFE1CD;}
	.st66{fill:#FFF8EB;}
	.st67{fill:#FBFCFA;}
	.st68{fill:#FFFDF3;}
	.st69{fill:#FFFFFA;}
	.st70{fill:#FFFBED;}
	.st71{fill:#FFF1DD;}
	.st72{fill:#FFF0DF;}
	.st73{fill:#FFEFDA;}
	.st74{fill:#FFDFCC;}
	.st75{opacity:0.57;}
	.st76{fill:#232121;}
	.st77{fill:#2E2625;}
	.st78{fill:#FFECDD;}
	.st79{opacity:0.93;fill:#794E4F;}
	.st80{fill:#6B443D;}
	.st81{fill:#FFEED7;}
	.st82{fill:#FFF6DF;}
</style>
<g id="Layer_2">
	<path class="st0" d="M116.1,50.5l-1,4.9l-2.6,4.7l-3.1,5.8l-1.9,0.8l-1,16.9l2.1,9l-0.2,5.4l-0.3,3.6l-0.2,4.3l0.3,5.9l0.5,4.5
		l1.6,5.8l0.9,3l-0.3,4.5c-0.1,0.6-0.1,1.2-0.2,1.8c0.3,1.8,0.5,3.7,0.8,5.5l2,2.8l3.4,2.7l8.3,1.8h7.2l-1.5,7.1l-0.9,8.1l7.5,3.6
		l6.8,2.9l10.3,2.7l9.8,1l8.3-0.4l6.8-1l5.6-1.7l5-2.3l7-4l3.8-3.6l-3-9.8l-2.2-7.2l-1.7-2.2l-1.3-6.1l0.4-7.9l1.3-5.5l1.5-6.9
		l0.4-4.2v-3.3l3.8-4.6l0.7-2.7l1-3.2l1.7-2.8l0.5-2.6l0.2-3.3l-0.3-1.9l-1.5-3.4l-1.8-2.2l-2.3-1.6l-3.2-0.4l-4.1,1.4l-2.9,2.6
		l-1.2,0.4l-1.9,2l-4.3,3.6l-1.5,4.3c0.1,1.8,0.2,3.6,0.3,5.4c-2.6,1.2-5.2,2.5-7.9,3.7c-0.2-2.7-0.4-5.4-0.6-8l-1.5-6.6l-0.1-5.6
		l0.3-4.7l-6.6-8l-3.2-3.2l6.8-2.9l4.3-5.9l0.7-5.4l-2.2,0.1l-3.3-0.3L146,44.6l-2.6-2.1l2.3-4.2l-11.6,3.6l-7.6,2l-5,0.8l-3-0.1
		l-1.2,2l-1.1,2.4L116.1,50.5z"/>
	<polygon class="st1" points="94.1,145.3 82.3,150 69.4,156 61.7,162.2 53.8,169.2 47.8,175.6 44.3,182.7 38.5,194.6 37.1,195.5 
		36.3,199.2 33.5,208.5 30,217.2 27.4,225.7 23.4,237 20.1,248.1 16.9,259.1 14.7,270.3 11.3,280.6 9.9,290.1 9.9,294.8 8.9,296.7 
		7.6,300 112.1,300 114.9,270.2 117.4,245.7 120.3,225.5 126.2,189 130,164.7 130.3,159.6 131.1,151.4 132.6,144.4 125.4,144.4 
		117.1,142.6 113.7,139.8 112.3,137.9 107.7,139.6 102.1,142.1 96.9,144.3 	"/>
	<path d="M194.9,118l4.9-7.4l4-6l4.5-8.8l3.8-13.9l0.6-6.7l0.4,0.5l0.6-4v-1.1l0.6-3.7l0.3-6.3l0.2-6.5l1.1-5.4l0.4-8l-0.8-4.7
		l-2.2-4.8l-0.3-2.4l-3-5l-5.9-4.6l-7.2-5.4l-8.3-0.4l-5.1-0.9l-4.5-3.4l-7.7-2.3l-9.3-1.4l-3.2-0.8l-6.5,1.1l-6.5,3.6l-5.4,1.2
		h-1.9l-1.8-0.9l-0.9,0.8l-3.3,0.5l-0.5-1.2l-5.7,1.6l-8.3,4.8l-5.1,5.8L111,32.2l1.8,4.9l-0.4,3.4l0.8,3.9l0.8,1l0.4-0.6l-0.2,1.3
		L115,48l1.2,0.8l1.1-2.4l1.2-2l3,0.1l5-0.8l7.6-2l9.5-3l2.1-0.6l-2.3,4.2l2.6,2.1l8.8,1.5l8,1.4l4.1,0.6l3.3,0.3l2.2-0.1l-0.7,5.4
		l-4.3,5.9l-6.8,2.9l3.2,3.2L168,71l2.2,2.6l-0.3,4.7l0.1,5.6l1.5,6.6l0.3,4.8c0.1,1.1,0.2,2.2,0.3,3.3c2.6-1.2,5.2-2.5,7.9-3.7
		c-0.1-1.8-0.2-3.6-0.3-5.4c0.4-1.4,0.8-2.7,1.2-4.1c1.6-1.6,3.1-3.3,4.7-4.9c0.5-0.2,0.9-0.4,1.4-0.7c0.5-0.3,1-0.5,1.5-0.8
		l2.9-2.6l4.1-1.4l3.2,0.4l2.3,1.6l1.8,2.2l1.5,3.4l0.3,1.9l-0.2,3.3l-0.5,2.6l-1.7,2.8l-1,3.2l-0.7,2.7l-2.4,3l-1.4,1.6v3.3
		l-0.4,4.2L194.9,118z"/>
	<path class="st2" d="M201.4,158.7l1,3.2l2.1,4.3l1.8,5.5l2,8.4c0,0,1.3,3.9,1.4,4.1c0.1,0.3,0.9,5.9,0.9,5.9l2.7,8.6l1.4,8.2
		l2,10.9c1.5,6.9,3,13.8,4.4,20.7c0.4,2.1,0.8,4.2,1.2,6.3l2.2,5l0.4,17.2v29.5l-0.4,3.5h69.5v-1.7l-1.5-1.7l0.6-3.1l0.6-1.7
		l-2.7-3.6l-0.5-3.3l-0.6-1.1l0.4-3l0.2-4.9l0.1-1.9l-0.8-2l-0.6-2.3l1.3-7.1l0.2-5.4l0.1-4.7l-1.7-8.2l-2.9-11.5l-3.1-11.5
		l-1.5-9.3l-1.5-7l-2.2-7l-3.6-10.1l-4-8l-1.7-5l-0.8-3.2l-3.7-4.7l-1.9-2.9l-7-4.9l-10.8-7.5l-5.6-2.7l-11.2-2.2l-12.3-4.7
		l-7.8-3.3l-5.3-2.2l-6.8-4.8l-2.5-1.3l1.2,6.8l1.7,2.2l5.2,17L201.4,158.7z"/>
	<path class="st3" d="M131.3,165.6l7.8,3.4l9.4,3.2l8.3,2l7.1,0.7l9.3-0.5l8.6-1.5l7.4-2.1l8.8-4.9c1.5-1.2,3-2.5,4.4-3.7
		c-0.4-1.2-0.8-2.5-1.2-3.7c0-0.6,0-1.3-0.1-1.9c-1.3,1-2.7,1.9-4,2.9c-2.3,1.6-4.6,3.2-6.8,4.8l-5,2.3l-5.6,1.7l-6.8,1l-8.3,0.4
		l-9.8-1l-10.3-2.7l-14.4-6.5l-0.3,5.2L131.3,165.6z"/>
	<linearGradient id="SVGID_1_" gradientUnits="userSpaceOnUse" x1="168.5824" y1="275.0985" x2="167.9276" y2="115.8347">
		<stop  offset="0" style="stop-color:#D4FFAF"/>
		<stop  offset="0.5205" style="stop-color:#608A6C"/>
	</linearGradient>
	<polyline class="st4" points="120.3,225.5 117.4,245.7 113.9,281.2 112.1,300 166.3,300 224.7,300 225.1,296.5 225.1,267 
		224.7,249.9 222.4,244.9 216.7,217.9 213.3,198.8 210.6,190.2 209.7,184.3 206.2,171.7 202.6,162.3 198.1,166 189.3,170.9 
		181.5,173.1 173.3,174.5 164,175 156.8,174.3 148.5,172.3 139.1,169.1 131.3,165.6 130,164.7 126.2,189 	"/>
	<path class="st5" d="M135.8,121c-1.3-0.3-2.7-0.6-4-1l-6.9-2l-11.6-0.6v-0.9l0.7-0.7l9.8,0.4c2.5,0.1,5.3,0.4,8.2,1.1
		c0.9,0.2,1.8,0.4,2.7,0.6c0.8,0.4,1.7,0.8,2.5,1.2C136.7,119.8,136.3,120.4,135.8,121z"/>
</g>
<g id="Layer_3">
	<path class="st6" d="M128.1,70.1c0.4-0.1,0.9-0.2,1.3-0.3c0.3,0.1,0.6,0.1,0.9,0.2c0-0.1,0.1-0.3,0.2-0.4c0.2-0.1,0.6,0.2,0.9,0.7
		c0-0.1,0-0.1,0-0.2c0-0.2,0-0.3,0-0.5c0.7,0.5,1,0.6,1.1,0.5c0.2-0.2,0-0.8,0-0.8l1.8,1.1l-0.5-1.1l2,1c0,0-0.5-0.5-0.4-0.4
		c0.1,0,2,1,2,1l0.2-1.1l0.9,0.6l0.5,0.3v-0.4l1.5,1l0.6-0.8l1.5,0.8l0.3-0.2l1.4,0.8l1.8,1l1.1,0.4l1.6,1.1
		c0.4,0.4,0.8,0.8,1.2,1.1c0.8,0.6,1.7,1.2,2.5,1.9c0.8,0.3,1.6,0.6,2.4,0.9c-1.2,0.2-2.7,0.4-4.3,0.4c-0.9,0-1.7-0.1-2.5-0.2
		c-6.9-2.2-13.8-4.4-20.7-6.5C127.7,71.3,127.9,70.7,128.1,70.1z"/>
	<polygon class="st7" points="178,80.5 165.5,83.9 165.2,85 147.5,91.8 144.1,97.4 144.1,99 142.2,101 141.6,101.5 140.2,101.9 
		136.3,101.9 134.4,101.9 133.8,102.3 132,102.2 130.7,101.5 130,100.6 129.5,99.3 128.4,97.7 127.1,95.9 125.2,92.5 124.9,91.2 
		126.4,91.4 126.9,93 130.4,95.9 136.9,98.1 148.4,86.5 149.3,86.5 150.2,86.6 151.4,86 155.7,84.3 156.7,83.7 167.2,82.1 
		170.2,81.4 176.7,80.5 	"/>
	<path class="st8" d="M129.3,103.6l-1.7,1.3l-3.1,1.4l-0.8,0.4l-3.4,0.3h-1.5l-1.1,1h-1.8l-2.3,1.3l-1.2,2l0.5,0.7
		c0.1,0.2,0.2,0.4,0.3,0.6c-0.2,0.5-0.3,1-0.5,1.5c0.4,0.5,0.7,1,1.1,1.5l0.6,0.4l-0.7,0.9l-0.6,1.8l0.3,1.7l1.5,1.4l2.5,0.5
		l4.7,0.2l4.9,1.8l-4.4,4h-4l-3.6-1.8c-0.9,0-1.8,0-2.7-0.1c-0.1,1.3-0.3,2.6-0.4,4c-0.3,0.5-0.7,1-1,1.5c0.1-1.9,0.1-3.7,0.2-5.6
		c0-0.7-0.1-1.4-0.1-2c-0.4-1-0.8-2-1.2-3l-0.7-3.5c-0.3-2.8-0.7-5.5-1-8.3c-0.1-0.9-0.1-1.9-0.2-2.9c0-1.1,0-2.2,0-3.2
		c0-0.8,0-1.7,0.1-2.7c0.1-1,0.2-1.8,0.3-2.7c0.1-1.2,0.2-2.4,0.3-3.6c0-0.6,0-1.1,0-1.7c0.8-0.2,1.7-0.4,2.5-0.6
		c-0.8,1.4-1.6,2.8-2.3,4.2l-0.1,1.8l0.4,1.6l0.7,1.7l1.9,1.8l2.4,1.3l1.3,0.1l1.5-0.7l0.7-0.7l1.9-0.1c0,0,2.4,0.9,2.5,0.9
		c0.1,0,1.2,0.5,1.2,0.5l2.6,0.2l2.1-0.6c0.2-0.1,0.6-0.2,0.9-0.5c0.3-0.2,0.8-0.6,1-1.2c0.1-0.2,0.2-0.6,0.1-1.1
		c0,0.2,0.1,0.4,0.1,0.7C130.1,102.8,129.5,103.4,129.3,103.6z"/>
	<polygon class="st0" points="189.2,78.8 192.2,76.4 195.1,75.3 198.4,75.3 200.6,76.8 203.3,79.7 204.4,83.2 204.7,85.8 
		204.2,88.5 204,90.2 202.4,93.2 201.7,95.2 200.3,98.6 196.9,103.5 194.9,105.3 194.1,107.7 192.5,108.9 188.7,109.8 185.4,109.1 
		184.3,107.7 183.7,106.2 183.1,104.7 183.1,102.8 181.6,99.6 180.4,93 180.2,88.5 181,85.4 185.8,80.5 	"/>
	<path class="st9" d="M189.5,83.9l1.2-2c0.5-0.5,0.9-0.9,1.3-1.3c0.6-0.7,1.5-1.3,2.4-1.9l1.5-0.7c0.3-0.2,3.4,0,3.7,0.5
		c0-0.2,1.9,1.9,2,2.4c0,0.2,0.6,1.5,0.6,1.5l0.5,1.5l0.2,1.6c0.1,1.1,0,2.1-0.2,3.1l-1.3,2.7l0.6-2.5c0.2-0.8,0.3-1.6,0.2-2.3
		c0-0.9-0.2-2-0.4-3c-0.4-0.4-0.8-0.8-1.1-1.1l-1.1-1.4l-1.4-0.7l-1.5-0.1l-1.9,0.3l-1.1,0.7l-1.7,1.2c-0.5,0.2-2.5,1.7-2.5,1.7
		L189.5,83.9z"/>
	<polygon class="st10" points="189.4,84.7 189.3,87.1 190.7,88.3 193.7,90.5 195,91.9 195.3,93 194.8,94.3 193.6,95.5 190.8,95.6 
		192.1,95.7 193.5,95.7 194.9,95.7 196,94.6 197.2,92.6 197.7,90.8 197,89 195.1,87.2 192.9,86.3 191.5,85.7 	"/>
	<path class="st11" d="M187.1,88.8l0.1,2l0.1,3.6l-0.1,0.9c0,0-1.4,1-1.3,1.1c0.1,0.1-0.8,1.6-0.8,1.6V99l0.9,0.3l2.1-0.5l1.9-1.6
		l0.7-1.3l-0.8,0.2c0,0-0.8,1-0.9,1.1s-1.1,0.6-1.1,0.6c0,0-1.3,0.2-1.3,0.2l-0.4-0.5c0,0,0.3-0.7,0.4-0.7s0.7-0.6,0.8-0.7
		c0.1-0.1,0.5-0.8,0.5-0.8V94l-0.2-1.7l0.2-0.9L187.1,88.8z"/>
	<polygon class="st12" points="198.6,83.7 199.8,85.6 200.2,88.3 200.2,91.6 199.9,94.2 199.4,95.4 198.4,97.4 196.2,99 195.4,99.7 
		194.7,100.3 194.7,103.8 194.7,104.7 194.1,105.7 193.9,101 193.9,99.8 195.5,98.4 197.9,95.7 199.2,93 199.4,89.5 199.3,87 
		198.7,84.9 	"/>
	<polygon class="st13" points="193.9,108.2 192.8,109.6 191.2,111.2 189.9,112 189,113.7 188.8,114.9 188.1,116.4 187.2,117 
		186.1,117 185.4,116.5 184.8,115.9 184.5,114.7 184.1,113.7 183.9,112.2 183.4,110.9 183.2,109.4 182.9,107.6 183,105.2 183,102.5 
		183.1,104.7 184.3,107.7 185.4,109.1 188.7,109.8 192.5,108.9 194.1,107.7 	"/>
	<path class="st14" d="M132.4,144.5c-0.2,1.7-0.4,3.3-0.6,5l-1.1,6.5l-0.6,4h1.3l1.7,0.8l2.2-0.3l3.1-1l3.1-1.3l2.4-1.3l3.4-0.8
		l3.9-0.4h5l4-1.7v-1.7l-1.5-1l-3.5-1.6l-4.7-3.5c-1.5,0-3.1,0-4.6,0c-0.9-0.3-1.9-0.5-2.8-0.8c-1.1-0.2-2.3-0.4-3.4-0.6l-3.7-0.6
		C134.8,144.3,133.6,144.4,132.4,144.5z"/>
	<path class="st15" d="M179.4,161.1l3.9-4.5l1.4-4.2l-0.6-4.2l1-5l1.8-5.4l1.5-5l1.9-6.2l0.8-3.6l-1.4,2.6l-1.7,4.2l-1.4,4.3
		c0,0-1,4.3-1.4,4.8c-0.3,0.5-1.8,4.4-1.8,4.4l-0.6,4.7l-0.9,4.3l-1,3.1l-1.5,2.6V161.1z"/>
	<linearGradient id="SVGID_2_" gradientUnits="userSpaceOnUse" x1="98.4621" y1="79.5027" x2="117.5053" y2="79.5027">
		<stop  offset="0.3288" style="stop-color:#25008B"/>
		<stop  offset="0.4017" style="stop-color:#220E94"/>
		<stop  offset="0.5397" style="stop-color:#1A33AC"/>
		<stop  offset="0.7283" style="stop-color:#0E6FD3"/>
		<stop  offset="0.9229" style="stop-color:#00B4FF"/>
	</linearGradient>
	<path class="st16" d="M117.5,76.8c-0.3-0.9-0.7-1.9-1-2.8c-0.5-0.8-1.1-1.5-1.6-2.3c-0.6-0.4-1.2-0.7-1.7-1.1
		c-1.1-0.6-2.3-1.2-3.4-1.8c-0.9-0.3-1.8-0.5-2.7-0.8c-0.9-0.2-1.9-0.4-2.8-0.5c-0.9,0.1-1.9,0.1-2.8,0.2c-0.7,0.2-1.5,0.4-2.2,0.5
		c-0.2,0.7-0.5,1.4-0.7,2.1c0.1,2.1,0.1,4.1,0.2,6.2c0.3,1.5,0.5,3.1,0.8,4.6c0.3,1.3,0.7,2.5,1,3.8c0.5,0.9,1,1.8,1.5,2.6
		c0.7,0.6,1.4,1.2,2,1.8c0.9,0.5,1.9,1,2.8,1.6l2.1,0.6l2.1-0.1c0.5-0.4,1-0.8,1.5-1.2c0.6-0.9,1.3-1.9,1.9-2.8l1.2-2.4
		c0.5-0.8,1-1.6,1.5-2.3c0.1-0.8,0.1-1.6,0.2-2.4C117.5,79,117.5,77.9,117.5,76.8z"/>
	<path class="st17" d="M114.3,69.1l-0.8-1.7l-1.5-0.7l-1.5-0.5l-1.2-0.7l-0.8,0.6c-0.3,0.2-0.6,0.4-0.9,0.5c0,0.3,0,0.7-0.1,1
		c0.2,0.1,0.5,0.2,0.7,0.3l0.7-0.2l1.1,0.7l-0.3-0.7l1.4,1.1c0,0,0.1-0.7,0.2-0.7c0.1,0,1.2,1.3,1.2,1.3s-0.1-0.4,0-0.4
		c0.1,0,0.7,0.8,0.7,0.8s0.1-0.3,0.1-0.3c0.1,0,0.6,0.5,0.6,0.5l0.3,0.1l0.1-0.9V69.1z"/>
	<path class="st18" d="M114.5,112.2c-0.4,0.2-0.8,0.3-1.2,0.5c-0.2,0.3-0.5,0.6-0.7,0.9c0,0.2,0.1,0.3,0.1,0.5
		c0,0.2,0.1,0.5,0.1,0.7c0.3,0.4,0.7,0.7,1,1.1l0.6,0.4h1.4c0.8,0.2,1.6,0.3,2.4,0.5c0.9-0.1,1.8-0.2,2.7-0.3h3.3l2.4,0.6l4.8,1.2
		l3.8,0.8l-0.9-0.6l-1.5-0.4l-2.3-0.7l-1.4-1l-2.1-1.2l-1.7-0.9l-1.3-0.8l-1.6-0.6l-1.1-0.1l-1.2,0.3l-1.3,0.7l-1,0.5l-0.4-0.1
		l-1.9-1.5L114.5,112.2z"/>
	<path class="st19" d="M115.9,116.9c-0.5,0-1-0.1-1.6-0.1h-0.4l-0.2,0.2l-0.6,1.8l0.3,1.7l1.5,1.4l2.5,0.5l4.7,0.2l3.1-0.9l5.9-2.2
		c0.4-0.2,0.8-0.3,1.3-0.4c0.5-0.1,1-0.2,1.4-0.3c-0.7-0.1-1.3-0.2-2-0.3c-0.4-0.1-0.7-0.1-1.1-0.2c-0.3-0.1-0.7-0.1-1-0.2
		c-0.2,0-0.4-0.1-0.6-0.1c-0.6-0.1-1.2-0.2-1.8-0.3c-0.5,0-1-0.1-1.5-0.1c-0.3-0.1-0.6-0.1-0.9-0.2c-0.4-0.1-0.9-0.1-1.3-0.2
		c-0.6,0-1.2,0.1-1.9,0.1c-0.7,0.1-1.4,0.2-2.1,0.3c-0.5,0-1.1-0.1-1.6-0.1C117.2,117.2,116.5,117.1,115.9,116.9z"/>
	<path class="st20" d="M129.8,46.8l-3.1,1.3h-4.9l-1.1,0.3l-1.4,1.5l0.3,3.8l-2.6,4.4l-4,4.5l-0.4,1.8l0.9,3l-4.3-1.9l1.6-3l2.4-3.8
		l1.9-4.7c0.1-1.9,0.2-3.8,0.4-5.7c0.2,0.2,0.5,0.3,0.7,0.5c0.3-0.7,0.7-1.5,1.1-2.3c0.4-0.8,0.8-1.4,1.2-2c1,0,2,0.1,3,0.1
		c1.6-0.3,3.3-0.5,4.9-0.8c6.4-1.9,12.8-3.7,19.2-5.6c-0.8,1.4-1.6,2.8-2.3,4.2c0.9,0.7,1.7,1.4,2.6,2.1c2.5,0.4,4.9,0.9,7.4,1.3
		c0.8,0.1,1.5,0.2,2.3,0.4c3.7,0.6,7.5,1.3,11.2,1.9c-2.5,0-5.1,0.1-7.6,0.1c-3-0.3-5.9-0.5-8.9-0.8c-1.8-0.1-3.5-0.2-5.3-0.3
		c-0.1,0-0.2,0-0.2-0.1c-0.3-0.2-0.7-0.5-1-0.7c-0.3-0.3-0.6-0.5-0.9-0.8c-0.6-0.5-1.1-0.9-1.7-1.4c-1.2,0.1-2.4,0.2-3.6,0.4
		c-0.7,0-1.3,0.1-2,0.1l-1.5,0.7c-0.7,0.2-1.4,0.3-2.1,0.5C131.3,46.2,130.5,46.5,129.8,46.8z"/>
	<path class="st21" d="M129.6,160.1h-0.7l-2,0.9l-2.3,0.8h-3.9l-7,0.2c0,0-2.3-0.1-2.4,0c0,0.1-1.3-1.3-1.3-1.3l-2.6-1l-2.8-0.9
		l-2.9-2.1l-1.1-1.7l-0.7-2.6v-4.1l0.4-2.2l-1-0.6l-2.2-0.2l-0.7-0.4c-0.7,0.1-1.3,0.1-2,0.2c2.8-1.1,5.5-2.3,8.3-3.4
		c1.6-0.7,3.2-1.4,4.8-2.1c1.6-0.6,3.1-1.2,4.7-1.7c0.5,0.6,0.9,1.3,1.4,1.9l3.4,2.7l8.3,1.8l7,0.1c-0.2,1.6-0.3,3.2-0.5,4.9
		c-0.5,3.7-1.1,7.3-1.7,10.6C129.9,160,129.8,160.1,129.6,160.1z"/>
	<polygon class="st22" points="149,155.9 151.3,155.7 156.4,155.7 160.3,154 169.7,158.3 172.9,159.7 173.3,162.9 168.9,162.9 
		162.7,160.8 157.7,158.4 160.3,158.1 158.2,156.2 	"/>
	<path class="st23" d="M194,136l1.6,2.1l1.4,3.4l0.9,2.7l0.8,3.1c0.9,3.1,1.8,6.2,2.7,9.3c0.4,1.9,0.8,3.7,1.2,5.6
		c0.6,1.3,1.2,2.6,1.9,3.9c0.6,1.8,1.2,3.6,1.7,5.3l1.7,6.4l1,3.8l1.5,7.6l2.2,6.7l0.9,4.5l1.1,6.2l0.9,3.9l1.4,7.1l1.1,5.8
		c1.3,6.7,2.6,13.4,3.9,20.1c-1.8-8.6-3.7-17.2-5.5-25.8l-1.3-5.6l-1.5-7.4l-1.4-7.3l-0.3-1.4l-2.7-6.7l-0.4-2.6l-0.1-3.4l-0.6-2
		l-1.8-2.9l-0.1-4.4l-0.4-1.8l-1-3l-0.7-1.6l-1.4-1.6l-1-1l-0.3-0.9c-0.7-2.1-2.1-6.6-2.1-6.6l-0.1-1l-0.3-2l-0.8-5.6l-0.9-4.5
		l-1-2.7l-1.8-3.8L194,136z"/>
	<polygon class="st24" points="111.6,165.1 112.1,172.5 112.1,179.6 110.9,196.4 113.1,186.9 114,176.6 114.9,170.8 114.2,162.1 
		111.3,162 	"/>
	<polygon class="st25" points="126.3,162.3 127.1,168.2 127.1,171.5 129.3,168 129.9,162.5 130.1,160 128.9,160.1 126.9,161.1 
		125.9,161.4 	"/>
	<path class="st26" d="M79.7,169.6c0.1,0,1.6,2.4,2.9,5.4c0.8,2,1.9,4.6,2.4,8.2c0.2,1.7,0.3,4.1-0.1,6.9l-0.7,6.8l-2,9.2L79,217.9
		l0.6,2.4l-0.1,6.8l-0.5,9.2l-1.1,12.4L74.9,300h-7c0,0,1.1-2,0.8-5.6c-0.3-3.7-0.3-3.7-0.3-3.7s1.5-1.2,2.9-7.1
		c1.4-5.9,1.7-7.5,1.7-7.5l0.3-11.2c0,0,0.3-9.5,1.7-12.8s1.4-3.5,1.4-3.5l-0.4-2.5l-0.4-1l1-6V235l-0.5-5.3l-0.2-4.9l-0.9-4.7
		l-1.3-5.3l-1.4-4.6l-1.7-3.5l-1-5.3l-1.4-4.8l-1.9-4.1l-5.5-7.5l0.4-2.6l0,2.3l3.8,5.4l1.5,1.8l1.7,2.9l0-3.9l-0.5-3.6l-1.2-3.8
		l0-2.8l0.6,1.2l0,1.1l0.4,1.6l0.9,2.9l0.4,2.6l0.8,5.5l0.8,0.2l0.3,1.7l0.8,5.1l0.6,3.6l0.8,0.6l0.6,2.9l0.6,0.9l0.3,3.6l0.9,3
		l0.7,4.3l0.5,3.7v3l0.2,3.4l0.6,3l0.5-4c0,0,0.2-8.3,0.2-8.6c0-0.3-0.1-4.3-0.1-4.3l2.2-7.7l1.3-6.3l1.4-5.1l1-5.1l0.3-6.5
		c0-1,0-2.1,0-3.3c0-1.1-0.1-2.1-0.1-3c-0.3-1.5-0.7-3-1-4.5C80.2,170.9,79.6,169.6,79.7,169.6z"/>
	<path class="st27" d="M86,167.7c0.6,1.1,1.1,2.4,1.6,3.8c0.4,1.1,0.7,2.1,0.9,3.1c0.3,1.9,0.6,3.7,0.9,5.6v10.5l-0.6,5.7
		c0,0-0.8,2.3-0.3,4.6s0.3,1.9,0.3,1.9c-0.3-0.9-0.6-2-0.8-3.3c-0.2-1.2-0.1-2.2-0.1-3c0.2-1.3,0.4-2.6,0.6-3.9c0.1-2,0.1-4.1,0-6.3
		c0-1.7-0.1-3.3-0.2-4.8c-0.3-1-0.5-2.1-0.8-3.2c-0.3-1-0.6-2-0.9-2.9c-0.6-1-1.1-2-1.7-3.1c-0.7-1.3-1.2-2.6-1.7-3.8L86,167.7z"/>
	<path class="st28" d="M94.6,166.9l-0.9,8.4l-0.3,8.9l-1.7,9.6l3.5-3.3l1.5-5.1c0,0-1.1-8.2-1.1-9S94.6,166.9,94.6,166.9z"/>
	<path class="st29" d="M94.7,196.7c0,3.3,0,6.6-0.1,9.9l-2.3,16l-1.1,12.2v6.7V256v10.4l-0.9,13.7l-1.6,8.1l0.3-13l-0.3-4.1
		l0.9-10.1l0-8.9l0-14.6l1.1-9.2l1.2-6.3l0.7-3.4l0.5-8.8l0.9-2.5C94.3,203.7,94.5,200.2,94.7,196.7z"/>
	<path class="st30" d="M58.3,184.7l2.6,5.9l2.5,8c0.6,2.2,1.3,4.5,2.1,6.8c0.7,2.1,1.5,4.1,2.2,6c0.3,0.7,0.6,1.5,0.9,2.3
		c1.5,3.6,3.2,6.7,5,9.4c0.9,1.4,1.8,2.8,2.7,4.2l-4.4-4.9c-0.9-1.3-1.8-2.8-2.7-4.4c-1.3-2.2-2.3-4.4-3.2-6.4
		c-0.6-1.7-1.3-3.5-1.9-5.2c-0.3-1.4-0.6-2.7-1-4.1c-0.4-1.8-0.7-3.4-1-4.5c-0.2-0.7-0.3-1.3-0.4-1.7c-0.3-1.4-0.7-2.8-1.1-4.2
		C59.9,189.5,59.1,187.1,58.3,184.7z"/>
	<path class="st31" d="M54.6,208.6c0.6,0.3,3.7,6.3,3.7,6.3l4.1,7.8l4.3,8.2l3.2,5.9L73,244l2.9,5.8l-1.2,2.9L69.5,239l-2.9-6.4
		l-3.7-6.6l-3.6-7L54.6,208.6z"/>
	<polygon class="st32" points="64.2,216.4 68.6,227.3 73,237.3 76.3,243.8 77,234.8 	"/>
	<polygon class="st33" points="17.3,258.6 17.3,268.8 21.7,286 17.7,279.8 15.7,271.8 13.4,274.4 	"/>
	<path class="st34" d="M41.2,268.5l14.1,5.6l4.1,4.3l3.4,9.9c0,0-3.6,2.8-9.4,2.5s-14.3-16.2-14.3-16.2L41.2,268.5z"/>
	<polygon class="st35" points="24.9,268.5 20.8,264.9 18,271.3 23.4,283.3 33.9,292.6 47.2,300 45.6,297 40.3,291.4 30,279.6 
		26,275.9 28.9,273 26.5,269.1 	"/>
	<polygon class="st36" points="89.4,232.8 85.2,254 77,266.9 74.9,300 87.4,300 88.9,289.8 89.2,275.3 88.9,271.2 89.7,261 
		89.7,237.5 90.6,229.7 	"/>
	<polygon class="st37" points="48.6,248.2 54.6,249.7 58.9,257.7 64.2,270.4 56.4,261.2 51.9,252.7 	"/>
	<polygon class="st38" points="75.9,182.6 78.6,177.4 79.7,169.6 82.9,176.4 83.9,180.9 84.1,185.3 83.8,193.7 82.8,198.8 
		81.5,203.6 80.2,210.2 78,217.9 78.1,222.3 77.9,230.8 77.4,234.8 76.8,231.7 76.6,228.3 76.6,225.4 75.4,217.3 74.5,214.3 
		74.2,210.7 73.6,209.7 73,206.9 72.2,206.3 70.5,196 69.7,195.8 	"/>
	<polygon class="st39" points="213.1,150 224.1,166.6 225.6,165.1 228.6,169.2 230.9,177.2 233.7,188.5 236,197.5 234.5,203.3 
		235.3,212 241.7,233.3 245,243.6 248.8,252.4 252.3,252.4 255.3,250.8 254.1,245.8 250.3,238.2 247,227.4 251.9,232.4 253.9,238.9 
		255.9,240 256.6,237.5 257,242.1 256.3,250.9 253,262.8 248.1,270.5 248,274 248.9,282.3 250.5,290.5 251.5,300 244.7,300 
		248.1,293.9 245.5,286.1 246.1,279.3 244.4,273.5 247.1,267.4 243.3,248.2 240.6,244.7 233.1,211.7 226.9,186.3 220.5,166.9 	"/>
	<polygon class="st40" points="274.6,257.1 265.4,260.5 254.1,272.6 258.8,272.6 267.2,270.8 273.9,262.4 275.5,257.1 	"/>
	<polygon class="st41" points="253.4,169.2 259.2,174.9 261.5,174.9 264,180.4 266.5,185.7 264.8,197.9 257.7,228.7 260,210.9 
		255.6,197.9 257,188.9 255.7,185.8 254.1,189.9 253.4,181.8 252.8,173.7 254.1,174.9 256.1,179.5 257.5,183.7 257,179 255.1,174.3 
			"/>
	<path class="st42" d="M231.9,167.7l12.3,11.9l1.8-2.2l3.4,3.1l3.4,10l1.3,14.4l0.8,15.1l1.9,16l0.3,2.4l-2.1-13.3l-0.8-10.4
		c0,0-0.9-5.5-1.3-6.3c-0.4-0.8-3.6-8.9-4.2-9.4c-0.6-0.5-4.2-8.2-4.2-8.2l-3-2.2l8.4,18.3l0.5,4c-0.4,1.3-1.5,2.3-2.8,2.4
		c-1.3,0.1-2.5-0.5-3.1-1.7c-1.7-4.6-3.3-9.1-5-13.7l-2.2-10.6L231.9,167.7z"/>
	<polygon class="st43" points="270.9,234.1 265.7,240.8 260.7,248.7 255.7,252.9 254.9,256 259.6,252.6 264.2,246.3 266.9,241.5 	
		"/>
	<polygon class="st44" points="284.6,258.5 284.6,271.8 279.5,281.2 274.4,287.5 270.3,290.3 265.6,292 259.2,292 266.5,282.5 
		270.6,275.2 281,270.6 	"/>
	<polygon class="st45" points="264.8,247.8 260.7,256 255.8,263.5 251.9,269.2 249.4,274.6 248.6,279.8 248,274 248.1,270.5 
		253.2,261.9 255.3,256 259.6,252.6 	"/>
	<path class="st46" d="M262.3,259.4c1.4-0.7,12.4-3.3,12.4-3.3l2.2-0.4l-1.4,1l-10.1,3.8l-11.7,12.4l0.4,2l9.4-1.6l6.4,0.4l-4,2.2
		l-8.6,0.6l-3,2.4l1.7,1.5l4.1-0.4l3.1-1.3l-1.6,3.3l-4.1,3.6l-4.5,2.5l-2.8,1.1l-1.6-9.6c0.1-1.4,0.3-3.1,0.8-5.1
		c0.5-1.9,1.2-3.5,1.8-4.7c0.5,0,1,0,1.4,0l3.7-2.3c0,0,2.2-2.4,2.2-2.8s2.2-4.6,2.2-4.6L262.3,259.4z"/>
	<path class="st47" d="M245.4,213.4l-1,4.9l3.6,7.1l3.8,7l2,6.5l2,1.2l0.7-2.6l-1.6-12l-0.8-10.8l-1.3-6.3l-3.1-7.4l-0.9-1.9
		l-4.3-8.3l-2.6-1.9l3.3,7.7l4.7,10.3l0.5,4c-0.6,1.4-1.5,2.3-2.8,2.4L245.4,213.4z"/>
	<polygon class="st48" points="253.2,191.1 255.7,185.8 257,188.9 255.6,197.9 260,210.9 257.1,233.3 256.6,234.8 254.9,220.2 
		254.1,205.5 253.2,191.3 	"/>
	<polygon class="st49" points="272.6,211.7 268.6,222.2 266.5,225 257.8,234.8 257.8,230.6 266.5,189.8 264.8,207 266.5,214.4 	"/>
	<polygon class="st50" points="194.9,136.3 198.9,140.6 202.3,146.2 205.6,151.8 204.7,147.9 202.8,143 200.6,139.2 198.3,136.6 
		195.6,134.6 193.6,133.3 193.6,135.5 	"/>
	<polygon class="st51" points="205.6,147 209.7,154 211.1,164.8 216.6,196.4 217.1,220.1 225,250.4 225.9,300 244.7,300 
		242.3,263.3 240.6,244.7 228.5,192.8 220.5,166.9 211.1,146.2 214,154 213.1,162.9 210.2,155.6 210.1,153.7 205.6,146.9 	"/>
	<polygon class="st52" points="198.1,135.2 204.3,138.7 210.1,144 211.6,147.3 214,154 213.1,162.9 210.2,155.5 210.1,153.7 
		205.6,146.9 206.1,145.5 203.7,142.3 201.6,139.1 199.9,138.5 198.1,136.5 	"/>
</g>
<g id="Layer_4">
	<path class="st53" d="M188.9,78.9l-8.6,1.3v-2.5l7.8-1.1l2.6-0.4l1.2,0.3c0,0-0.2,0-0.8,0.5C190.4,77.4,188.9,78.9,188.9,78.9z"/>
	<path class="st54" d="M178.9,77.7c-0.1,0.1-0.3,0.2-0.5,0.3c-0.2,0.2-0.3,0.3-0.4,0.5c0,0.3-0.1,0.6-0.1,0.9c0,0.3,0,0.6,0.1,0.8
		c0.2,0.1,0.4,0.3,0.6,0.4h1.4l0.3-0.4v-1.5v-1c-0.1,0-0.3,0-0.4-0.1C179.6,77.7,179.2,77.7,178.9,77.7z"/>
	<polygon class="st54" points="165.3,79.5 165.7,79.2 166.7,79.2 167.2,79.5 167.2,80.4 167.2,82.1 166.3,82.5 165.7,82.6 
		165.8,81.1 165.8,80.4 165.4,79.6 	"/>
	<polygon class="st55" points="170.3,79.7 178,78.9 178,79.9 167.2,81.1 167.2,80.2 	"/>
	<polygon points="149.1,80.6 165.3,79.5 165.8,80.4 165.7,82.6 148.5,84.6 	"/>
	<path d="M109.9,67.6l2.4,0.6l2.3,1.3l2.7,2.6l2,3.1c0,0.5,0,1.1,0,1.6c0.3,0.1,0.6,0.2,0.9,0.3h0.6l1.1-2l1.3-1.9l2.2-1.3h4.5
		l4.6,0.5l4.6,1l5.2,1.7l3.4,1.7l0.9,1.3l0.6,1.5l-0.1,1.4l-1,7l-1,5.4l-1.3,3.1l-2,1.6l-3.5,1l-5.3-0.4l-3.8-1.5l-4.5-3.7l-1.7-2.5
		l-1.9-4.6l-1-3.6l-0.5-2.4l-1.4-1h-0.9l-2.2,4.1l-4,6.3c-0.7,0.9-1.4,1.9-2.1,2.8c0.4-0.6,0.7-1.1,1.1-1.7c1.4-2.5,2.9-4.9,4.3-7.4
		l0.6-3.8l-0.2-2.7l-0.6-2.6l-1.2-1.9l-1.3-1.1l-3.3-2l-2.7-1l-2.9-0.7l-4.6,0.3l-1.1,0.4l-1,2.3v3.1v2l-0.6-5.9l1-2.5l1.1-0.5
		l2.8-0.4h3.1L109.9,67.6z"/>
	<polygon points="112.1,90.3 110.4,91 108.9,91.3 107.5,91.1 105.2,90 103.3,88.4 102.1,87.3 101.5,88.2 102.6,89.7 104.7,91.3 
		107,92.5 109,92.8 111.1,92.4 112.7,90 	"/>
	<linearGradient id="SVGID_3_" gradientUnits="userSpaceOnUse" x1="99.6186" y1="77.5442" x2="99.0902" y2="73.7712">
		<stop  offset="0.1595" style="stop-color:#000000"/>
		<stop  offset="0.3538" style="stop-color:#32302A"/>
		<stop  offset="0.561" style="stop-color:#605D52"/>
		<stop  offset="0.7454" style="stop-color:#817E6E"/>
		<stop  offset="0.898" style="stop-color:#969280"/>
		<stop  offset="1" style="stop-color:#9D9986"/>
	</linearGradient>
	<path class="st56" d="M98.7,70.2v2.3v2.1l0.4,3l0.3,1.8c0.2,1.1,0.4,2.2,0.6,3.3c0.2,0.8,0.5,1.7,0.7,2.5c0.5,0.7,1,1.4,1.4,2.1
		l-0.6,0.9c-0.5-0.8-1-1.5-1.4-2.3c-0.2-0.5-0.3-1-0.5-1.5l-0.7-4.5c-0.2-1.3-0.4-2.7-0.6-4c0-1.7,0-3.4,0-5.1l0.3-0.8L98.7,70.2z"
		/>
	<linearGradient id="SVGID_4_" gradientUnits="userSpaceOnUse" x1="123" y1="84.7287" x2="146.1915" y2="84.7287">
		<stop  offset="8.532113e-02" style="stop-color:#25008B"/>
		<stop  offset="0.1881" style="stop-color:#220E94"/>
		<stop  offset="0.3826" style="stop-color:#1A33AC"/>
		<stop  offset="0.6485" style="stop-color:#0E6FD3"/>
		<stop  offset="0.9229" style="stop-color:#00B4FF"/>
	</linearGradient>
	<path class="st57" d="M123.5,74.6l-0.5,2.3V81l0.6,4.6c0.6,1.3,1.2,2.6,1.8,3.9c0.7,1.1,1.5,2.1,2.2,3.2c1.3,0.9,2.5,1.7,3.8,2.6
		l3,1.1l3.8,0.3c1.1-0.1,2.2-0.2,3.3-0.2c0.9-0.5,1.8-1,2.7-1.5c0.3-0.6,0.5-1.3,0.8-1.9L146,89l0.2-3.8v-4.9l-0.4-2.1l-0.7-0.9
		c-0.9-0.3-1.7-0.7-2.6-1c-1.3-0.4-2.5-0.8-3.8-1.3l-5-1.4c-1.1-0.2-2.2-0.3-3.4-0.5c-1.1-0.1-2.2-0.1-3.3-0.2l-2.1,0.4L123.5,74.6z
		"/>
	<path class="st58" d="M170,81.5c0,0.4,0,0.8,0,1.2c2.1-0.5,4.3-1.1,6.4-1.7c0.6-0.2,1.2-0.4,1.8-0.5c-0.1-0.1-0.2-0.1-0.2-0.2
		C175.4,80.6,172.7,81,170,81.5z"/>
	<path class="st59" d="M114.3,112.2c-0.4,0.2-0.7,0.4-1.1,0.5c-0.2,0.3-0.4,0.6-0.6,0.9c0.1,0.5,0.2,1,0.3,1.4
		c0.3,0.5,0.7,1.1,1,1.6c0.9-0.1,1.7-0.2,2.6-0.3c0.6,0.1,1.2,0.1,1.7,0.2c0.8-0.1,1.7-0.2,2.5-0.2c1.2,0,2.3,0,3.5,0
		c-0.4-0.2-0.8-0.3-1.3-0.5l-0.9-0.3l-1.8,0.4l-2.1-0.2l-0.5-0.6l-0.4-1l-1-1.2l-0.7-0.8C115.1,112.2,114.7,112.2,114.3,112.2z"/>
	<path class="st60" d="M115.9,116.9c-0.5-0.1-1-0.1-1.5-0.1c-0.2,0-0.3,0-0.5,0c-0.1,0.1-0.1,0.2-0.2,0.2c-0.2,0.5-0.4,1.1-0.5,1.6
		c-0.1,0.4-0.2,0.7-0.4,1.1c0.2,0.5,0.3,1,0.5,1.4c0.6,0.4,1.2,0.8,1.8,1.2l1.6,0.6l3.2-0.2l2.4-0.1c0.6-0.2,1.3-0.4,1.9-0.7
		c-0.8,0.1-1.6,0.3-2.5,0.4c-0.5-0.1-0.9-0.2-1.4-0.2l-2.8-0.2l-1.4-0.3l-0.7-0.7l-0.6-0.6l-0.1-0.9l0.3-1c0.7-0.4,1.4-0.8,2-1.2
		C116.7,117.1,116.3,117,115.9,116.9z"/>
	<polygon class="st61" points="135.9,145.3 136.5,148.2 138.2,151.9 135.9,148.8 134.8,145.8 134.3,145.3 134.3,144.3 136.1,144.2 	
		"/>
	<path class="st62" d="M147.6,156.1c-0.3,0.1-0.5,0.1-0.8,0.2c1.4,0.7,2.7,1.5,4.1,2.2l3.3,1.6l-2.1-1.8c-0.8-0.5-1.6-0.9-2.4-1.4
		c-0.3-0.3-0.6-0.6-0.9-0.9C148.4,156,148,156.1,147.6,156.1z"/>
</g>
<g id="Layer_5">
	<path class="st63" d="M133.7,54.4l3.1-5l7.8-2.2l7.7,0.4l16.2,1.6c0.1,0.9,0.4,4.9-2.3,8.4c-1.7,2.2-3.8,3.2-4.9,3.6
		c-0.8,0.4-1.6,0.9-2.4,1.3l4.7,4.3l5.2,6.3l0.8,2.7l0.1,3.7l-2.4,0.7l0-0.8l-0.5-0.3l-1.3,0.1v0.2l-4.5,0.3l-5.1,0.5l-3.1-3.1
		l-3.5-2.7l-2.7-1.9l-3.8-1.9l-9.7-1.7h-3.2l-2.5-2.1l-0.7-3.1l4.1-2.9l1.6-4.1L133.7,54.4z"/>
	<polygon class="st64" points="120.7,81.5 122.3,84 123.5,87.7 126,93.6 127.7,97 129.8,99.9 129.5,101.2 128.9,102.4 127.7,103.6 
		126.2,104 123.9,103.7 121,102.1 119.9,99.7 117.2,100.9 113.9,101.4 112.2,100.7 111.3,99.4 111.6,97 112.7,94.6 114.3,92.1 
		116.3,88.9 117.7,85.7 119.1,83.4 120.3,81.5 	"/>
	<path class="st65" d="M124.9,121.7c1.1-0.4,2.2-0.8,3.4-1.2c1.1-0.4,2.3-0.9,3.4-1.3l2.4,0.9l0.4,0.5l-1.6,2.1l-2.7,1.3
		c-1.1,0.1-2.2,0.1-3.3,0.2c-0.9-0.3-1.8-0.7-2.8-1c-0.7-0.3-1.4-0.5-2.1-0.8C123,122.3,124,122,124.9,121.7z"/>
	<path class="st66" d="M164.1,85.6l-0.8,7.5l-2.6,6.2c-1.3,1.9-2.6,3.8-4,5.7c-0.2,0.6-0.4,1.2-0.7,1.9c-0.8,0.8-1.7,1.7-2.5,2.5
		c-0.6,1.1-1.1,2.1-1.7,3.2c-0.7,0.5-1.5,1-2.2,1.5c-3.1,2.5-4.6,2.6-5.5,2.1c0,0-0.5-0.3-2.4-3.4l0,0c-1.3-1.7-2.6-3.5-3.9-5.2
		c-0.9-1.9-1.7-3.8-2.6-5.6c0.4-0.1,0.8-0.2,1.2-0.3l2.6,0.1c0.4,0,0.9,0,1.3,0.1c0.4-0.1,0.8-0.3,1.2-0.4c0.8-0.8,1.6-1.5,2.4-2.3
		c0-0.5,0-1,0-1.5c0.5-0.5,1.1-0.9,1.6-1.4c0.2-0.5,0.5-1,0.7-1.5c0.2-0.5,0.4-1.1,0.6-1.6l0.4-1.1l8.2-3.3L164.1,85.6z"/>
	<path class="st67" d="M191.8,82.7l-1.6,0.9l-0.7,0.9l0.6,0.8l1.6,0.3l1.9,1c0,0-0.3-1.5-0.3-1.7C193.3,84.8,191.8,82.7,191.8,82.7z
		"/>
	<polygon class="st68" points="197.2,80.6 195.7,80.6 196.4,82.4 196,84.9 197.5,87.2 198.1,89.4 198.1,91.1 197.4,94 196.3,95.3 
		195.2,96.3 192.1,96.8 191.6,97.1 188.9,100 189.5,101.4 190.6,102.3 191.8,101.9 191.9,100.8 190.9,99.9 192,99.3 192.2,98.1 
		193.7,97.6 196.2,96.8 197.4,95.5 198.3,94 198.9,91.4 198.9,89.5 198.6,87.2 198.3,85.8 198.3,84.7 197.4,83.5 	"/>
	<path class="st69" d="M189.5,87l-0.1,1.2l0.3,0.7l1.5,0.7l0.6,1.1l-0.4,1.8l-0.1,1.3l0.5,0.7h1.7l1.1-0.8c0,0-0.1-1.5,0-1.6
		c0.1-0.1-0.4-1.2-0.4-1.2l-1.3-1.3l-1.7-1.2l-0.8-0.7L189.5,87z"/>
	<polygon class="st70" points="189.1,94.8 188.3,95.8 187.9,97 187.9,97.8 189.1,97.1 190.3,96.1 190.7,95.4 189.5,94.8 	"/>
	<polygon class="st71" points="185.7,95.5 186.8,93.8 186.8,91.7 185.6,90 183.8,91.7 182.2,94.5 182.4,95.4 183.9,93.9 184.5,92.6 
		185.5,93.4 185.7,94.4 	"/>
	<path class="st72" d="M184.5,95.8l0.2,1.4l-0.3,1.9l0.8,2.7l1.2,1.5l1.3,0.5l0.9,0.4l1.6-0.7l0.5-0.5c0,0,0.8,0.4,0.9,0.5
		s0.7,0.8,0.7,0.9s0.6,1.9,0.6,1.9s-0.3,0.5-0.3,0.7c-0.1,0.3-0.9,1.1-0.9,1.1l-2.3,0.2l-2-0.9c0,0-1.1-1.2-1.1-1.3
		c0-0.1-0.9-0.9-1-1.1c-0.1-0.2-0.9-1.3-0.9-1.5S184,102,184,102l-0.1-2l0.1-1.3l0.2-0.9l0.2-1L184.5,95.8z"/>
	<path class="st73" d="M198.3,99.3c-0.1,0.1-2.6,0.9-2.6,0.9l-0.8,0.6l-0.1,1.7v1.3l2.3-2.4l1.3-1.3V99.3z"/>
	<polygon class="st74" points="201.5,87.4 200.8,88.4 200.8,90.6 200.7,92.6 199.6,95.8 199.9,96.5 200.7,95.2 201.3,93.8 
		201.9,92.4 203.2,90.2 203.7,89.1 203.4,88.8 202.9,88.4 202.6,89 202.3,90 201.8,91.3 201.3,92.2 201.3,91.3 201.6,90.3 	"/>
	<path class="st75" d="M172.2,98.5c-1.9,1.8-3.9,3.7-5.8,5.5l-9.5,5.8c-1.3,1-2.6,2-3.8,3.1c-1.4,1.3-2.8,2.5-4.1,3.8
		c-0.4,1.2-0.9,2.4-1.3,3.6c-0.2,1.1-0.5,2.3-0.7,3.4c-0.1,0.7-0.3,1.5-0.4,2.2l-1.7,1.1l-2-0.6v-4.6c-0.1-1.4-0.3-2.7-0.4-4.1
		c-2.2-2.1-4.5-4.3-6.7-6.4l-3.5-1l-4.7-2.1c-1.2-0.5-2.4-1-3.6-1.5c-1,0.1-1.6,0.2-1.9,0.2c-0.8,0.1-0.7,0.1-1,0.1
		c-0.3,0-0.4,0-0.6,0.1c-0.3,0-0.5,0-0.8,0c-0.2,0-0.4,0-0.7,0c-0.4,0.3-0.7,0.7-1.1,1c-0.6,0-1.2,0-1.8,0c-0.8,0.4-1.5,0.9-2.3,1.3
		c-0.4,0.7-0.8,1.4-1.2,2.1c-0.1,0.6-0.1,1.3-0.2,1.9c0.6-0.7,1.2-1.4,1.8-2.1c0.4-0.1,0.8-0.1,1.2-0.2c0.4,0.2,0.8,0.3,1.2,0.5
		c0.4,0.5,0.9,1,1.3,1.4c0.3-0.1,0.5-0.3,0.8-0.4c0.6-0.3,1.2-0.6,1.8-0.9c0.4-0.1,0.7-0.2,1.1-0.3c0.5,0,0.9,0.1,1.4,0.1l2.3,1
		c1.1,0.6,2.2,1.3,3.3,1.9c1,0.6,2,1.2,3.1,1.8l1.8,1.4l2.9,1.6l-0.4,2.6l-3.2,3.1c-1.1,3.8-3.5,6.5-6.3,6.9
		c-0.6,0.1-1.3,0.1-2.2-0.2c-0.6,0.3-1.2,0.5-1.8,0.8c-0.9-0.4-1.8-0.8-2.8-1.2c-0.7,0.3-1.4,0.6-2.1,0.9c-0.4-0.7-0.9-1.5-1.3-2.4
		c-0.2-0.5-0.4-1.1-0.6-1.6c-0.3-0.6-0.7-1.1-1-1.7h-1.5l-0.5,1.9l-0.4,2.1l-0.7,2.3v2.1c0.1,0.7,0.3,1.4,0.4,2.1
		c0.7,0.9,1.4,1.9,2,2.8c1.1,0.9,2.3,1.8,3.4,2.7c2.8,0.6,5.5,1.2,8.3,1.8c2.3,0,4.7,0.1,7,0.1c0.6,0,1.5-0.1,1.5-0.1
		c0.9-0.1,1.7-0.1,2.2-0.2c1.2,0.2,2.4,0.4,3.7,0.6c1.2,0.2,2.3,0.4,3.4,0.6c0.9,0.3,1.9,0.5,2.8,0.8h4l4.9-1.6l6.1-3.3l8.4-4.7
		l6.6-6.9l6.2-5.9c-0.5-1.6-0.9-3.8-1-6.4c0-2.4,0.3-4.4,0.7-5.8c-0.1-1.6-0.3-3.1-0.4-4.7l-0.4-2.2l0.6-4.3l-0.9-3.4l-0.8-2.2
		C177.4,96.1,174.8,97.3,172.2,98.5z"/>
	<path class="st75" d="M116.7,122.9l-0.1,0.2l-0.6,1.4l-0.2,1.8l0.4,1.8c0.9,0.6,1.7,1.2,2.6,1.8c0.5-0.2,1-0.3,1.5-0.5
		c0.7-0.2,1.5-0.5,2.2-0.7c0.3-0.5,0.5-1,0.8-1.5l1.2-2c0.1-0.3,0.2-0.6,0.3-0.9c-0.4-0.2-0.8-0.3-1.2-0.5l-2.3-0.8l-1.5-0.2
		L116.7,122.9z"/>
	<path class="st76" d="M114.6,105.5c-0.6,0.7-1.1,1.4-1.7,2.2l-2.4,2.2l-0.4,1.4c0,0.4,0,0.9,0,1.3c0.1,0.6,0.1,1.2,0.2,1.8
		c0.1,0.5,0.3,1,0.4,1.6c0.2,0.2,0.4,0.4,0.6,0.7c0.1-0.3,0.2-0.7,0.3-1c0.2-0.5,0.3-1,0.5-1.5l0.4-2c0-0.3,0-0.5,0-0.8
		c0.2-0.4,0.4-0.7,0.5-0.9c0.4-0.7,0.4-0.6,0.5-0.8c0,0,0.1-0.2,0.2-0.3c0.1-0.1,0.2-0.2,0.3-0.2c0,0,0,0,0.7-0.4
		c0,0,1.3-0.7,1.3-0.7c0.6,0,1.2,0,1.8,0c0.4-0.3,0.8-0.7,1.2-1c0.5,0,1,0,1.4,0c1.1-0.1,2.3-0.2,3.4-0.3c-0.1,0-0.3-0.1-0.5-0.2
		c-1.3-0.5-2-0.7-2.2-0.8c-1.3-0.3-1.8,0.1-2.6-0.4c-0.3-0.2-0.6-0.4-0.7-0.6c-0.2-0.1-0.4-0.2-0.7-0.4c-0.2,0.2-0.5,0.4-0.9,0.6
		C115.5,105.3,115,105.4,114.6,105.5z"/>
	<path class="st77" d="M108.2,108.8l0.9,5l1.4,3.7l0.9,2.4l1.4,0.3l-0.2,1.6l0.5,3.6c-0.1,0.6-0.2,1.2-0.2,1.8
		c-0.3,1.4-0.7,2.9-1,4.3c-0.1,1.1-0.3,2.3-0.4,3.4c-0.1-1.1-0.3-2.2-0.4-3.3c0-0.7,0-1.3-0.1-2c0.1-0.7,0.2-1.4,0.4-2.1
		c0-0.8,0-1.6,0-2.4c-0.1-0.5-0.2-0.9-0.4-1.4l-0.9-1.6l-0.5-1.7l-0.4-3.3l-0.6-3.3l-0.2-2.2V108.8z"/>
	<polygon class="st78" points="131,102.7 129.8,104.2 127.5,105.3 125.6,105.8 123.7,106.7 127.4,108.2 132,110.3 134,110.9 
		133.4,109.2 133.4,106.4 132.9,105.5 131.6,103.7 131.3,103.6 	"/>
	<path class="st79" d="M130.4,116.6h-0.6l0.8,0.6l3.4,1l0.4,0.1l0.9,0.6l-0.2,0.2c-0.1,0.1-0.2,0.2-0.3,0.3c0.4,0.2,0.8,0.3,1.3,0.5
		c0-0.2,0.1-0.5,0.1-0.7l-2.2-1.2l-0.8-0.4c-0.4-0.3-0.7-0.6-1.1-0.9C132,116.8,130.4,116.6,130.4,116.6z"/>
	<path class="st80" d="M116.7,104l0.6-0.6c0.2,0,0.4-0.1,0.6-0.1c0.5,0,1,0,1.5,0c0.9,0.3,1.8,0.6,2.6,0.9c0.3,0.1,0.7,0.3,1,0.4
		c-1.3,0.2-2.6,0.4-3.9,0.5l-1.8-0.5L116.7,104z"/>
	<polygon class="st81" points="177.1,168.5 177.7,163.3 179.4,158.1 182.2,141.6 175,147.3 167.1,150 169,154 167.7,157.4 
		172.9,159.7 173.3,162.9 166.4,162.9 161.1,162.3 155.4,160.8 153,160.2 156.4,163.2 160.3,165.2 165.2,163.7 170.7,164.3 
		172.6,166.6 174.2,169.2 175.9,169.1 	"/>
	<polygon class="st82" points="199.4,157.7 198,147.4 196.8,150.7 193.1,146.2 187.6,152.2 184.8,152.5 183.4,156.6 182.2,159.6 
		181.9,167.7 183.9,167.2 187.2,165.9 191.6,163.9 195.1,161.5 	"/>
	<polygon class="st82" points="142.2,164.6 139.9,162.1 139.5,159 135.4,160.5 133.1,160.8 135.4,161.8 140.4,164.4 142.5,165.1 	
		"/>
	
		<image style="overflow:visible;" width="841" height="840" xlink:href="../../../new portfolio/images/as2.png"  transform="matrix(0.1111 6.165244e-03 -6.165244e-03 0.1111 125.8574 190.2878)">
	</image>
</g>
</svg>
