<?xml version="1.0" encoding="utf-8"?>
<!-- Generator: Adobe Illustrator 24.1.1, SVG Export Plug-In . SVG Version: 6.00 Build 0)  -->
<svg version="1.1" id="Layer_1" xmlns="http://www.w3.org/2000/svg" xmlns:xlink="http://www.w3.org/1999/xlink" x="0px" y="0px"
	 viewBox="0 0 1200 800" style="enable-background:new 0 0 1200 800;" xml:space="preserve">
<style type="text/css">
	.st0{clip-path:url(#SVGID_2_);fill:url(#SVGID_3_);}
	.st1{clip-path:url(#SVGID_5_);}
	.st2{opacity:0.15;clip-path:url(#SVGID_7_);fill:url(#SVGID_8_);enable-background:new    ;}
	.st3{clip-path:url(#SVGID_10_);fill:url(#SVGID_11_);}
	.st4{clip-path:url(#SVGID_13_);fill:url(#SVGID_14_);}
	.st5{clip-path:url(#SVGID_16_);}
	.st6{fill:url(#SVGID_17_);}
	.st7{fill:url(#SVGID_18_);}
	.st8{clip-path:url(#SVGID_20_);}
	.st9{fill:#FFFFFF;}
	.st10{clip-path:url(#SVGID_22_);}
	.st11{fill:url(#SVGID_23_);}
	.st12{fill:url(#SVGID_24_);}
</style>
<g id="BACKGROUND">
	<g>
		<g>
			<defs>
				<rect id="SVGID_1_" x="0" y="0" width="1200" height="800"/>
			</defs>
			<clipPath id="SVGID_2_">
				<use xlink:href="#SVGID_1_"  style="overflow:visible;"/>
			</clipPath>
			
				<radialGradient id="SVGID_3_" cx="600" cy="330.7174" r="851.9351" gradientTransform="matrix(1 0 0 -0.661 0 618.6042)" gradientUnits="userSpaceOnUse">
				<stop  offset="0" style="stop-color:#303138"/>
				<stop  offset="8.911997e-02" style="stop-color:#2D2E35"/>
				<stop  offset="0.5759" style="stop-color:#1F2028"/>
				<stop  offset="1" style="stop-color:#1A1B23"/>
			</radialGradient>
			<polygon class="st0" points="0,800 1200,800 1200,0 0,0 			"/>
		</g>
		<g>
			<defs>
				<rect id="SVGID_4_" x="0" y="0" width="1200" height="800"/>
			</defs>
			<clipPath id="SVGID_5_">
				<use xlink:href="#SVGID_4_"  style="overflow:visible;"/>
			</clipPath>
			<g class="st1">
				<g>
					<defs>
						<rect id="SVGID_6_" width="1200" height="800"/>
					</defs>
					<clipPath id="SVGID_7_">
						<use xlink:href="#SVGID_6_"  style="overflow:visible;"/>
					</clipPath>
					
						<linearGradient id="SVGID_8_" gradientUnits="userSpaceOnUse" x1="277.0905" y1="429.4262" x2="157.8455" y2="103.9577" gradientTransform="matrix(0.9468 0.322 0.3865 -1.1365 -113.6801 800.859)">
						<stop  offset="0" style="stop-color:#272426"/>
						<stop  offset="2.893585e-02" style="stop-color:#373536;stop-opacity:0.9711"/>
						<stop  offset="0.1203" style="stop-color:#666465;stop-opacity:0.8797"/>
						<stop  offset="0.2171" style="stop-color:#8F8D8E;stop-opacity:0.7829"/>
						<stop  offset="0.3181" style="stop-color:#B2B1B1;stop-opacity:0.6819"/>
						<stop  offset="0.4243" style="stop-color:#CECDCE;stop-opacity:0.5757"/>
						<stop  offset="0.5373" style="stop-color:#E4E3E4;stop-opacity:0.4627"/>
						<stop  offset="0.6606" style="stop-color:#F3F3F3;stop-opacity:0.3394"/>
						<stop  offset="0.8016" style="stop-color:#FCFCFC;stop-opacity:0.1984"/>
						<stop  offset="1" style="stop-color:#FFFFFF;stop-opacity:0"/>
					</linearGradient>
					<path class="st2" d="M327.5,615.9c-14.2-16.1-34.5-24.5-55.1-28.3c-58.1-10.9-117.5,10.9-175.8,19.8
						c-61.4,9.4-123.9-1-175.5-34.5c-5.3-3.4-10.5-7.2-15.4-11.4l-16.4,48.1l457.9,155.7c-6.3-16.7-9.3-35.1-8.4-53.7
						C340.4,676,352.2,643.8,327.5,615.9z"/>
				</g>
				<g>
					<defs>
						<rect id="SVGID_9_" width="1200" height="800"/>
					</defs>
					<clipPath id="SVGID_10_">
						<use xlink:href="#SVGID_9_"  style="overflow:visible;"/>
					</clipPath>
					
						<linearGradient id="SVGID_11_" gradientUnits="userSpaceOnUse" x1="667.6243" y1="608.789" x2="1199.3" y2="608.789" gradientTransform="matrix(1 0 0 -1 0 802)">
						<stop  offset="0" style="stop-color:#E59900"/>
						<stop  offset="0.3025" style="stop-color:#E69C01"/>
						<stop  offset="0.5688" style="stop-color:#EBA703"/>
						<stop  offset="0.8206" style="stop-color:#F2B907"/>
						<stop  offset="1" style="stop-color:#F9CB0B"/>
					</linearGradient>
					<path class="st3" d="M676.1,90.3c13.8,24.9,42.6,39.2,71,48.3c36,11.5,73.9,17,110.4,26.9c36.6,9.9,72.9,24.9,98.4,51.3
						c31,32.2,42.2,77.4,70.1,112.1c42.8,53.4,112.3,67.9,173.3,50.6V123c-3.9,2.8-8,5.2-12.3,7.3c-45.3,21.8-106.1,17.4-146.5-10.4
						c-18.8-13-34.1-30.9-57-37.7c-15.8-4.8-33.1-3.6-49.8-3.4c-28.7,0.3-59.3-3.1-81.4-18.6c-20-13.9-30.3-37.8-23.2-58.8
						c0.2-0.5,0.3-1,0.5-1.4H689.1c-5.3,6.5-9.9,13.7-13.6,21.7C665.4,43.4,664.4,69.3,676.1,90.3z"/>
				</g>
				<g>
					<defs>
						<rect id="SVGID_12_" width="1200" height="800"/>
					</defs>
					<clipPath id="SVGID_13_">
						<use xlink:href="#SVGID_12_"  style="overflow:visible;"/>
					</clipPath>
					
						<linearGradient id="SVGID_14_" gradientUnits="userSpaceOnUse" x1="826.8559" y1="729.9279" x2="1199.2001" y2="729.9279" gradientTransform="matrix(1 0 0 -1 0 802)">
						<stop  offset="0" style="stop-color:#F9CB0B"/>
						<stop  offset="0.2888" style="stop-color:#F7C70A"/>
						<stop  offset="0.5659" style="stop-color:#F3BC08"/>
						<stop  offset="0.8375" style="stop-color:#EBA803"/>
						<stop  offset="1" style="stop-color:#E59900"/>
					</linearGradient>
					<path class="st4" d="M852.2,60.2c22.1,15.5,52.7,18.9,81.4,18.6c16.8-0.2,34-1.4,49.8,3.4c22.9,6.9,38.2,24.7,57,37.7
						c40.4,27.9,101.2,32.2,146.5,10.4c4.2-2,8.4-4.5,12.3-7.3V0H829.6c-0.2,0.5-0.4,1-0.5,1.4C822,22.4,832.3,46.3,852.2,60.2z"/>
				</g>
				<g>
					<defs>
						<rect id="SVGID_15_" width="1200" height="800"/>
					</defs>
					<clipPath id="SVGID_16_">
						<use xlink:href="#SVGID_15_"  style="overflow:visible;"/>
					</clipPath>
					<g class="st5">
						
							<linearGradient id="SVGID_17_" gradientUnits="userSpaceOnUse" x1="-125.1759" y1="41.3097" x2="361" y2="41.3097" gradientTransform="matrix(1 0 0 -1 0 802)">
							<stop  offset="0" style="stop-color:#E59900"/>
							<stop  offset="0.3866" style="stop-color:#E69B01"/>
							<stop  offset="0.6152" style="stop-color:#E9A402"/>
							<stop  offset="0.8026" style="stop-color:#EFB205"/>
							<stop  offset="0.9668" style="stop-color:#F7C60A"/>
							<stop  offset="1" style="stop-color:#F9CB0B"/>
						</linearGradient>
						<path class="st6" d="M-95.9,606c0,0,359.1,16,367.1,10s67.6,95.6,67.6,95.6L361,836.5c0,0-131.7,81.8-151.6,78.8
							c-20-3-312.3-76.8-330.2-80.8S-95.9,606-95.9,606z"/>
						
							<linearGradient id="SVGID_18_" gradientUnits="userSpaceOnUse" x1="-87.5507" y1="208.4485" x2="953.69" y2="208.4485" gradientTransform="matrix(0.9468 0.322 0.3865 -1.1365 -113.6801 800.859)">
							<stop  offset="0" style="stop-color:#F9CB0B"/>
							<stop  offset="0.3516" style="stop-color:#F8C80A"/>
							<stop  offset="0.5931" style="stop-color:#F4BF08"/>
							<stop  offset="0.8009" style="stop-color:#EEB005"/>
							<stop  offset="0.9897" style="stop-color:#E69A00"/>
							<stop  offset="1" style="stop-color:#E59900"/>
						</linearGradient>
						<path class="st7" d="M735,716c-52.8-7.5-83.3,6.6-156-10c-33.8-7.7-64.6-14.8-97-37c-53.7-36.9-43.6-68.6-99.5-116.6
							c-20.6-17.7-62.5-56.9-117.3-54.6c-37.6,1.6-73.8,19.8-109.6,35.2c-65.5,28.2-131.4,29.1-190.5-7.9
							c-22.7-14.2-42.5-33.6-58.3-56.4l-60,176.5c4.9,4.1,10.1,7.9,15.4,11.4c51.6,33.6,114.1,43.9,175.5,34.5
							c58.3-8.9,117.7-30.7,175.8-19.8c20.6,3.8,40.8,12.3,55.1,28.3c24.7,27.9,12.9,60.1,11.3,95.7c-0.8,18.6,2.1,37,8.4,53.7
							c201.9-16.3,403.8-32.7,605.7-49C831.1,740.5,775.3,721.8,735,716z"/>
					</g>
				</g>
				<g>
					<defs>
						<rect id="SVGID_19_" width="1200" height="800"/>
					</defs>
					<clipPath id="SVGID_20_">
						<use xlink:href="#SVGID_19_"  style="overflow:visible;"/>
					</clipPath>
					<g class="st8">
						<g>
							<g>
								<path class="st9" d="M692.5-44.7C668-33.1,655.7-5.7,656,20.4c0.4,30.3,18.6,56.6,41.7,74.9
									c57.4,45.2,136.6,40.7,197.6,78.7c15.2,9.5,28.4,21.6,38.8,36.2c9.9,13.8,17.4,29.1,24.8,44.3c7.5,15.3,14.8,30.7,24.3,44.9
									c8.3,12.4,18.4,23.5,29.8,33.1c45.6,38,109.5,50.1,167.2,40.6c68.5-11.2,129.2-50.5,180.5-95.5c6.5-5.7,12.8-11.5,19.1-17.4
									c0.6-0.6-0.3-1.4-0.9-0.9c-49.9,47-107.5,89.3-174.6,107.3c-57.8,15.5-123.2,9.9-174.2-23.1c-12.5-8.1-23.9-17.7-33.7-28.9
									c-10.6-12-18.8-25.7-26.2-39.9c-14.9-28.7-26.8-59.9-50.3-83c-52.2-51.2-131.7-48.3-193.9-79.9
									c-27.9-14.2-54-36.3-64.6-66.6c-9-25.6-4.2-57.6,15.2-77.4c4.7-4.8,10.2-8.7,16.3-11.6C693.8-44,693.2-45,692.5-44.7
									L692.5-44.7z"/>
							</g>
						</g>
						<g>
							<g>
								<path class="st9" d="M847.1-23.3c-5.7,29,10.3,60.8,37.1,73.4c17,8,36.3,7.8,54.6,8.7c9.7,0.5,19.4,1.3,28.9,3.7
									c8.9,2.3,17.3,5.9,25.4,10.3c32.9,18.1,56.5,48.2,86.1,70.5c14.8,11.2,31.1,19.8,48.9,24.8c17.6,5,36.2,6.7,54.4,5.4
									c36.1-2.6,70.5-17.2,99.4-38.7c13.9-10.3,27.8-22.1,37.9-36.2c9.8-13.7,14.5-30.4,7.9-46.6c-6.7-16.3-21.2-27.3-36.7-34.6
									c-17.5-8.2-36.5-13.8-55-19.1c-38.3-10.9-77.5-18-117-22.6c-40-4.6-80.3-6.5-120.6-7c-40.5-0.5-80.9,0.5-121.4,1.9
									c-9.8,0.3-19.7,0.7-29.5,1c-0.8,0-0.8,1.3,0,1.3c39.3-1.4,78.7-2.7,118.1-3c39.3-0.2,78.7,0.6,117.9,3.7
									c39,3,77.8,8.3,116,16.8c18.9,4.2,37.7,9.3,56.2,15.2c17.8,5.7,36.6,11.6,51.7,22.9c14.1,10.6,24.7,27.5,21.8,45.6
									c-2.7,17.4-15.5,31.4-27.9,42.9c-26.1,24.3-58,43.1-92.9,51.2c-35.5,8.3-74.4,5.1-106.9-12.1c-32.8-17.3-56.2-47-85.2-69.4
									c-13.5-10.5-28.4-19.6-44.8-24.5c-17.9-5.3-36.6-4.4-55-5.9c-17.4-1.4-34.2-5.8-47.3-18c-11-10.2-18.6-24.2-21.1-39
									c-1.3-7.4-1.2-15,0.2-22.4C848.5-23.8,847.3-24.1,847.1-23.3L847.1-23.3z"/>
							</g>
						</g>
					</g>
				</g>
				<g>
					<defs>
						<rect id="SVGID_21_" width="1200" height="800"/>
					</defs>
					<clipPath id="SVGID_22_">
						<use xlink:href="#SVGID_21_"  style="overflow:visible;"/>
					</clipPath>
					<g class="st10">
						<g>
							<g>
								<path class="st9" d="M-77.5,715.2c39.3-5.3,74.2-25.4,109.6-41.9c18.5-8.6,37.5-16.4,57.5-20.8c21.9-4.8,44.9-5.7,66.7-0.5
									c18.3,4.4,35.7,13,49.6,25.8c14.6,13.5,23.4,31,30.2,49.4c6.7,18,12,36.6,21.5,53.4c8.3,14.7,19.5,27.7,32.5,38.5
									c26.1,21.7,59.8,34.5,93.8,34.4c4.3,0,8.5-0.3,12.8-0.7c0.8-0.1,0.8-1.3,0-1.3c-35,3.5-70.5-7.2-98.8-27.9
									c-14.2-10.4-26.6-23.4-36-38.4c-10.3-16.3-16.1-34.8-22.5-52.9c-6.4-17.8-13.8-35.6-26.8-49.7c-12.2-13.3-28.1-23-45.2-28.8
									c-40.2-13.6-83.1-4.6-121,11.6C10,680.9-24.4,702.5-63.4,711.3c-4.7,1.1-9.5,1.9-14.4,2.6
									C-78.6,714.1-78.3,715.3-77.5,715.2L-77.5,715.2z"/>
							</g>
						</g>
						<g>
							<g>
								<path class="st9" d="M-77.8,599.5c65.2,18.5,131.6-6.4,191.7-30.5c57.8-23.2,118.8-47.8,182.3-36.4
									c27.5,5,53.9,16.9,73.5,37.3c21.1,22,32.7,50.9,40.9,79.8c8.8,31,14,62.9,25,93.2c9.4,25.8,23.6,49,43.6,68
									c36.7,34.8,88.7,53.8,139.2,48.9c6.1-0.6,12.2-1.5,18.2-2.8c0.8-0.2,0.5-1.4-0.3-1.2c-51.6,11-107.1-4.5-147.5-38
									c-21.3-17.7-37.7-40.1-48.3-65.6c-12.4-29.9-18-62-26.1-93.2c-7.3-27.9-17.1-56.1-34.8-79.3c-16.5-21.4-39.4-36.2-65.2-43.9
									c-58.6-17.6-118.9,0-173.9,21.4c-61.3,23.9-125.2,54.4-192.8,46.3c-8.5-1-16.9-2.7-25.2-5.1
									C-78.3,598.1-78.6,599.3-77.8,599.5L-77.8,599.5z"/>
							</g>
						</g>
					</g>
				</g>
			</g>
		</g>
	</g>
	
		<linearGradient id="SVGID_23_" gradientUnits="userSpaceOnUse" x1="42.1" y1="321" x2="115.3" y2="321" gradientTransform="matrix(1 0 0 -1 0 802)">
		<stop  offset="0" style="stop-color:#FFD71D"/>
		<stop  offset="1" style="stop-color:#FEB200"/>
	</linearGradient>
	<circle class="st11" cx="78.7" cy="481" r="36.6"/>
</g>
<g id="OBJECTS">
	<g>
		<g>
			<g>
				<path class="st9" d="M950.3,748c10.3-19.7,26.5-35.8,46.2-46.5c-19.7-10.7-35.8-26.8-46.2-46.5c-10.3,19.7-26.5,35.8-46.2,46.5
					C923.5,712.2,939.6,728.3,950.3,748z"/>
			</g>
		</g>
	</g>
</g>
<linearGradient id="SVGID_24_" gradientUnits="userSpaceOnUse" x1="801.8511" y1="1036.9149" x2="801.8511" y2="1036.9149">
	<stop  offset="0" style="stop-color:#F9CB0B"/>
	<stop  offset="0.3516" style="stop-color:#F8C80A"/>
	<stop  offset="0.5931" style="stop-color:#F4BF08"/>
	<stop  offset="0.8009" style="stop-color:#EEB005"/>
	<stop  offset="0.9897" style="stop-color:#E69A00"/>
	<stop  offset="1" style="stop-color:#E59900"/>
</linearGradient>
<path class="st12" d="M801.9,1036.9"/>
</svg>
