<?xml version="1.0" encoding="utf-8"?>
<!-- Generator: Adobe Illustrator 24.1.1, SVG Export Plug-In . SVG Version: 6.00 Build 0)  -->
<svg version="1.1" id="Layer_1" xmlns="http://www.w3.org/2000/svg" xmlns:xlink="http://www.w3.org/1999/xlink" x="0px" y="0px"
	 viewBox="0 0 342.6 377.2" style="enable-background:new 0 0 342.6 377.2;" xml:space="preserve">
<style type="text/css">
	.st0{fill:#2062AF;}
	.st1{fill:#3C9CD7;}
	.st2{fill:#FFFFFF;}
	.st3{fill:url(#SVGID_1_);}
	.st4{fill:url(#SVGID_2_);}
	.st5{fill:url(#SVGID_3_);}
	.st6{opacity:5.000000e-02;}
	.st7{fill:url(#SVGID_4_);}
	.st8{opacity:5.000000e-02;enable-background:new    ;}
</style>
<g>
	<polygon class="st0" points="311.2,340.5 174.9,377.2 38.7,340.5 7.3,0 342.6,0 	"/>
	<polygon class="st1" points="174.9,27.6 174.9,348 175.2,348 285.5,318.4 310.9,27.6 	"/>
	<g>
		<polygon class="st2" points="174.8,112.7 77.3,153.3 80.6,193.5 174.8,153.2 275.1,110.4 279.2,69.2 		"/>
		
			<linearGradient id="SVGID_1_" gradientUnits="userSpaceOnUse" x1="126.0755" y1="93.917" x2="126.0755" y2="174.719" gradientTransform="matrix(1 0 0 -1 0 287.446)">
			<stop  offset="0.3865" style="stop-color:#D1D3D4;stop-opacity:0"/>
			<stop  offset="1" style="stop-color:#D1D3D4"/>
		</linearGradient>
		<polygon class="st3" points="77.3,153.3 80.6,193.5 174.8,153.2 174.8,112.7 		"/>
		
			<linearGradient id="SVGID_2_" gradientUnits="userSpaceOnUse" x1="227.032" y1="134.218" x2="227.032" y2="218.207" gradientTransform="matrix(1 0 0 -1 0 287.446)">
			<stop  offset="0.3865" style="stop-color:#D1D3D4;stop-opacity:0"/>
			<stop  offset="1" style="stop-color:#D1D3D4"/>
		</linearGradient>
		<polygon class="st4" points="279.2,69.2 174.8,112.7 174.8,153.2 275.1,110.4 		"/>
		
			<linearGradient id="SVGID_3_" gradientUnits="userSpaceOnUse" x1="77.48" y1="57.8785" x2="271.544" y2="57.8785" gradientTransform="matrix(1 0 0 -1 0 287.446)">
			<stop  offset="0" style="stop-color:#E8E7E5"/>
			<stop  offset="1" style="stop-color:#FFFFFF"/>
		</linearGradient>
		<polygon class="st5" points="77.5,153.3 80.7,193.5 225.3,194 222.1,247.6 174.5,261 128.8,249.4 126,216.2 83.5,216.2 89,280.4 
			175,305.8 260.5,280.9 271.5,153.3 		"/>
		<g class="st6">
			<polygon points="174.8,153.3 77.3,153.3 80.6,193.5 174.8,193.8 			"/>
			<polygon points="174.8,260.9 174.4,261 128.6,249.4 125.8,216.2 83.3,216.2 88.9,280.4 174.8,305.8 			"/>
		</g>
		
			<linearGradient id="SVGID_4_" gradientUnits="userSpaceOnUse" x1="68.551" y1="197.646" x2="279.243" y2="197.646" gradientTransform="matrix(1 0 0 -1 0 287.446)">
			<stop  offset="0" style="stop-color:#E8E7E5"/>
			<stop  offset="1" style="stop-color:#FFFFFF"/>
		</linearGradient>
		<polygon class="st7" points="68.6,69.2 279.2,69.2 275.1,110.4 73.6,110.4 		"/>
		<polygon class="st8" points="174.8,69.2 68.6,69.2 73.6,110.4 174.8,110.4 		"/>
	</g>
</g>
</svg>
