<?xml version="1.0" encoding="utf-8"?>
<!-- Generator: Adobe Illustrator 24.1.1, SVG Export Plug-In . SVG Version: 6.00 Build 0)  -->
<svg version="1.1" id="Capa_1" xmlns="http://www.w3.org/2000/svg" xmlns:xlink="http://www.w3.org/1999/xlink" x="0px" y="0px"
	 viewBox="0 0 331.3 331.3" style="enable-background:new 0 0 331.3 331.3;" xml:space="preserve">
<style type="text/css">
	.st0{opacity:0.1;}
	.st1{fill:#FFFFFF;}
</style>
<g class="st0">
	<path class="st1" d="M22.7,315.2l4.3-17.1l-11.7-4.7l-8.1,13.3c0,0,4.4,12.1-0.5,21.7C6.7,328.6,12.9,318.1,22.7,315.2z
		 M14.9,307.4c1.5-0.5,3.1,0.1,3.7,1.5c0.7,1.5-0.1,3.1-1.6,3.6s-3.1-0.1-3.7-1.5C12.7,309.6,13.4,308,14.9,307.4z"/>
	<path class="st1" d="M146.6,117c-34,27.9-78.5,85.3-116.2,152.4l0,0L23.8,281l7.1,2.7l3.7-9.7c20.1-36.3,74.7-131,174.5-193.9
		c0,0,37.1-22.1,73.8-52.7c-8.9,7.5-26.6,16.8-36,22.8C221.8,65.8,190.9,80.7,146.6,117z"/>
	<path class="st1" d="M25.5,216.4c-7.7,27.4-7.3,48-4.3,53.8h4.5c12.9-26.7,75-123.6,113.7-153.8c40-31.4,71-49.6,97-63
		c9.1-4.7,18.5-11.1,27-17.3c10.3-8.1,20.7-16.7,29.8-25.2l-26.4,17.3l11.7-18L256.1,33l14.7-25c-34.6,3.1-66.7,20.4-66.7,20.4
		c-12.8,15.2-23.2,39.5-23.2,39.5c-0.4-12.1,7.9-30.4,7.9-30.4c-6,2.8-29.1,15.9-29.1,15.9c-11.2,9.3-14.8,33.9-14.8,33.9
		c-2.1-9.7,5.3-28.4,5.3-28.4c-32.4,18.7-55.6,50.6-55.6,50.6c-16,31.5-2.8,56-7.9,50.2c-4.9-5.9-3.9-27.4-3.9-27.4
		c-33.9,32.6-37.5,48.2-37.5,48.2c-5.7,13.9-10.7,50.8-10.7,50.8c-3.2-3.5,0-22.8,0-22.8c-8.1,17.3-4.3,33.6-4.3,33.6
		C26.6,240.7,25.5,216.4,25.5,216.4z"/>
	<path class="st1" d="M293.2,21.9c0,0-13.1,12.7-29.8,25.2c-26.2,20.7-51.4,37.5-51.4,37.5C113.2,143,58.2,238.3,40,271h9.7
		c3.5-2.8,8.5-4.8,30-11.1c27.1-7.9,43.2-24.3,43.2-24.3S98.3,249.5,86.5,248c-11.6-1.3-27.4,2.9-27.4,2.9s-6-2.8,23.5-7.2
		s77.9-37.4,77.9-37.4s-18.5,7.6-27.1,6.9c-8.5-0.7-29.8,0-29.8,0c14-3.2,27.1-1.3,48.4-9.5c21.3-8.1,20.1-7.3,20.1-7.3
		c24.3-8.1,34.3-33.2,34.3-33.2c-4.1,1.6-36.2,5.5-49.5,1.6c-13.3-3.9-35.9,0-35.9,0c21.3-7.2,26.2-3.9,31.4-4.1
		c5.2-0.3,22.1,1.2,55.6-10.4c33.5-11.6,43-25.9,43-25.9l-22.5,3.1c14.8-2.5,31.4-12.3,31.4-12.3c-10.3,2.8-26.2,4.1-26.2,4.1
		c18.8-4.1,29.2-9.9,29.2-9.9c17.6-13.3,21.6-33.2,21.6-33.2C259.7,84.9,240,81,240,81c34.3-2.3,43.8-11.1,48.4-13.2
		c4.8-2.1,6.7-10.7,6.7-10.7c-17.3,6.3-37,7.2-37,7.2c21.2-3.3,39.4-14,39.4-14V39.6c-8.1,4.7-22.7,8.3-22.7,8.3l22.4-14.5
		C299.2,26.3,293.2,21.9,293.2,21.9z"/>
	<polygon class="st1" points="16.2,289.1 29.6,294.6 32,288.6 18.6,283.3 	"/>
	<path class="st1" d="M164.6,284.2c-44,21.2-86.5,35.8-142.9,37.6c-5.2,0.1-5.3,5.5,0,5.2c50.4-1.7,92.5-12.5,132.9-31.5
		c45.1-21.1,86.5-38.8,143-44.8c5.2-0.5,2.9-5.6-2.1-5.1C245.4,251,204.7,265,164.6,284.2z"/>
</g>
</svg>
