<?xml version="1.0" encoding="utf-8"?>
<!-- Generator: Adobe Illustrator 24.1.1, SVG Export Plug-In . SVG Version: 6.00 Build 0)  -->
<svg version="1.1" id="Capa_1" xmlns="http://www.w3.org/2000/svg" xmlns:xlink="http://www.w3.org/1999/xlink" x="0px" y="0px"
	 viewBox="0 0 765 512" style="enable-background:new 0 0 765 512;" xml:space="preserve">
<style type="text/css">
	.st0{opacity:0.15;}
	.st1{fill:#FFFFFF;}
	.st2{opacity:0.15;fill:#FFFFFF;enable-background:new    ;}
</style>
<g class="st0">
	<g>
		<polygon class="st1" points="572.6,408.8 562.1,398.2 524.6,435.7 562.1,473.1 572.6,462.5 545.6,435.7 		"/>
	</g>
</g>
<g class="st0">
	<g>
		<polygon class="st1" points="634.7,398.2 624.2,408.8 651,435.7 624.2,462.5 634.7,473.1 672.1,435.7 		"/>
	</g>
</g>
<g class="st0">
	<g>
		
			<rect x="554.2" y="428.2" transform="matrix(0.1951 -0.9808 0.9808 0.1951 54.4099 937.538)" class="st1" width="88.5" height="14.9"/>
	</g>
</g>
<path class="st2" d="M441.8,367.5c0,12.9,10.5,23.4,23.4,23.4s23.4-10.5,23.4-23.4c0-9.1-5.5-17.2-13.2-21v-63.2l28.4,9.5V350
	c0,3.4,1.7,6.4,4.4,8.4c1.7,1,3.8,1.7,5.7,1.7c1.4,0,2.7-0.3,3.8-0.7c50-18.6,105.2-18.6,155.3,0c3.4,1.4,6.7,1,9.5-1
	c2.7-2,4.4-5.1,4.4-8.4v-57.2l44-14.9c3.8-1.4,6.4-5.1,6.7-9.1c0.3-4.1-2-7.8-5.7-9.5L600.1,200c-2.7-1.4-5.7-1.4-8.4,0l-131.6,58.9
	c-4.1,1.7-6.4,5.7-6.1,9.8c0,2,0.7,3.8,1.7,5.1v72.4C447.5,349.9,442.2,358.1,441.8,367.5z M524.3,292.1c46-15.6,96.1-15.6,142.1,0
	v43.6c-46.4-14.2-95.7-14.2-142.1,0L524.3,292.1L524.3,292.1z M491.8,267l103.8-46.7L699.8,267l-22,7.4c-53.1-18.9-111-18.9-164.1,0
	L491.8,267z M462.8,367.2c0-1.7,1.4-3.1,3.1-3.1s3.1,1.4,3.1,3.1s-1.4,3.1-3.1,3.1C464.1,370.3,462.8,368.9,462.8,367.2z"/>
</svg>
