<?xml version="1.0" encoding="utf-8"?>
<!-- Generator: Adobe Illustrator 24.1.1, SVG Export Plug-In . SVG Version: 6.00 Build 0)  -->
<svg version="1.1" xmlns="http://www.w3.org/2000/svg" xmlns:xlink="http://www.w3.org/1999/xlink" x="0px" y="0px"
	 viewBox="0 0 512 512" style="enable-background:new 0 0 512 512;" xml:space="preserve">
<style type="text/css">
	.st0{fill:#281407;stroke:#FF7914;stroke-width:10;stroke-miterlimit:10;}
	.st1{fill:#FF7914;}
	.st2{fill:#FFD8BB;}
</style>
<g id="Layer_2">
	<path class="st0" d="M469.3,511.3H42c-23.2,0-42-18.8-42-42V42C0,18.8,18.8,0,42,0h427.3c23.2,0,42,18.8,42,42v427.3
		C511.3,492.5,492.5,511.3,469.3,511.3z"/>
</g>
<g id="Capa_1">
	<path class="st1" d="M256.7,270.9c-16.1-4-28-18.5-28-35.7c0-20.3,16.5-36.8,36.8-36.8s36.8,16.5,36.8,36.8
		c0,17.3-11.9,31.8-28,35.7v108.5l96.1-171.8C332.7,185.1,301,124.7,301,96.1h-70.9c0,28.6-31.7,89-69.5,111.5l96.1,171.8
		L256.7,270.9L256.7,270.9z"/>
	<path class="st2" d="M453.8,123.5L279.9,439.8c-1.4,2.3-3.4,5.7-5.7,9.9c-4.3,7.7-6.1,12.4-8.4,12.2c-1.2-0.1-1.9-1.3-2.3-1.9
		c-2.9-4.6-7.6-11.6-13.6-20.6C184.6,346.3,119.3,253.1,54.1,160l-4.1-5.9c-3.3-4.7-4.9-10.1-4.9-15.4c0-7.6,3.2-15.1,9.4-20.4
		c5.5-4.8,12.4-6.8,19-6.4c8.8,0.5,17.3,5.3,22,13.8l171.3,307.7l174.5-316.7c1.3-2.3,3.7-3.7,6.2-3.7c0.9,0,1.8,0.2,2.6,0.5
		C454.2,115,455.8,119.8,453.8,123.5z"/>
</g>
</svg>
