<?xml version="1.0" encoding="utf-8"?>
<!-- Generator: Adobe Illustrator 24.1.1, SVG Export Plug-In . SVG Version: 6.00 Build 0)  -->
<svg version="1.1" id="Layer_1" xmlns="http://www.w3.org/2000/svg" xmlns:xlink="http://www.w3.org/1999/xlink" x="0px" y="0px"
	 viewBox="0 0 359 380" style="enable-background:new 0 0 359 380;" xml:space="preserve">
<style type="text/css">
	.st0{fill:#E7A42B;}
	.st1{fill:#F2BF22;}
	.st2{fill:#FAF9F8;}
	.st3{fill:#EBEBEB;}
	.st4{fill:#FFFFFF;}
</style>
<polygon class="st0" points="12,0 352,0 312,340 182,380 42,340 "/>
<polygon class="st1" points="318.3,30 284.5,317.1 182,348.6 182,30 "/>
<polygon class="st2" points="182,160 192,180 182,200 89.9,200 98.4,70 182,70 192,90 182,110 142.3,110 139,160 "/>
<polygon class="st3" points="181,275.7 182,275.4 192,300 182,317.2 181.4,317.4 98.1,293.6 92.5,230 132.7,230 135.5,262.7 "/>
<polygon class="st4" points="272.7,160 257,294.2 182,317.2 182,275.4 220.3,263.6 227.7,200 182,200 182,160 "/>
<polygon class="st4" points="281.2,130 241.3,130 238.7,110 182,110 182,70 273.3,70 275,82.6 "/>
</svg>
