<?xml version="1.0" encoding="utf-8"?>
<!-- Generator: Adobe Illustrator 24.1.1, SVG Export Plug-In . SVG Version: 6.00 Build 0)  -->
<svg version="1.1" id="Layer_1" xmlns="http://www.w3.org/2000/svg" xmlns:xlink="http://www.w3.org/1999/xlink" x="0px" y="0px"
	 viewBox="0 0 219.6 219.6" style="enable-background:new 0 0 219.6 219.6;" xml:space="preserve">
<style type="text/css">
	.st0{opacity:0.3;}
	.st1{fill:url(#SVGID_1_);}
	.st2{opacity:0.65;}
	.st3{fill:url(#SVGID_2_);}
	.st4{fill:url(#SVGID_3_);}
	.st5{fill:#F9CB0B;}
	.st6{fill:url(#SVGID_4_);}
	.st7{fill:url(#SVGID_5_);}
</style>
<g class="st0">
	
		<image style="overflow:visible;opacity:0.2;enable-background:new    ;" width="186" height="153" xlink:href="B77C247D.png"  transform="matrix(1 0 0 1 31.383 20.234)">
	</image>
	<g>
		
			<linearGradient id="SVGID_1_" gradientUnits="userSpaceOnUse" x1="36.0567" y1="114.7476" x2="202.6502" y2="114.7476" gradientTransform="matrix(1 0 0 -1 0 206.4681)">
			<stop  offset="0" style="stop-color:#E59900"/>
			<stop  offset="1" style="stop-color:#F9CB0B"/>
		</linearGradient>
		<path class="st1" d="M121.9,34.4c-13.3,5.9-30.7-12.6-48.8-9.2C36,32.1,29,70,42.3,89.9c3.3,5,6,17.6,3.8,23.2
			c-3.7,9.2-6.5,35.1,16.6,43.8c12.2,4.6,24.9-1,24.5-6.9c-0.3-3.2-6-6-2.2-11.1c7.2-9.7,26.1-18.2,37.4-13.8
			C220.9,163,237.8-16.7,121.9,34.4z"/>
	</g>
</g>
<g class="st2">
	
		<image style="overflow:visible;opacity:0.2;enable-background:new    ;" width="213" height="194" xlink:href="B77C247F.png"  transform="matrix(1 0 0 1 7.383 11.234)">
	</image>
	<g>
		
			<linearGradient id="SVGID_2_" gradientUnits="userSpaceOnUse" x1="197.006" y1="109.8375" x2="3.708" y2="96.0551" gradientTransform="matrix(1 0 0 -1 0 206.4681)">
			<stop  offset="0" style="stop-color:#F9CB0B"/>
			<stop  offset="0.4194" style="stop-color:#F4BE08"/>
			<stop  offset="1" style="stop-color:#EEB005"/>
		</linearGradient>
		<path class="st3" d="M66.3,135.3c23.9,4.3-5.9,31.6,7.3,47.1c21.7,25.4,49.9-14.5,71.2-13.4c6.4,0.3,19.7,9.3,26.1,9.7
			c10.6,0.8,33.4-4.3,34.7-30.6c0.7-13.9-4.9-25.5-10.8-23.1c-3.2,1.3-4.1,8-10.6,5.8c-12.2-4.1-20.9-21.6-26.2-33.4
			c-6.7-14.6-10.3-81.7-41.8-81.7c-28.4,0-39.7,44.8-85.8,33.2C6.3,42.8-5.2,122.3,66.3,135.3z"/>
	</g>
</g>
<g>
	
		<image style="overflow:visible;opacity:0.2;enable-background:new    ;" width="27" height="27" xlink:href="B77C247A.png"  transform="matrix(1 0 0 1 188.383 107.234)">
	</image>
	<g>
		
			<linearGradient id="SVGID_3_" gradientUnits="userSpaceOnUse" x1="193.2483" y1="90.934" x2="201.2273" y2="90.934" gradientTransform="matrix(1 0 0 -1 0 206.4681)">
			<stop  offset="0" style="stop-color:#F9CB0B"/>
			<stop  offset="0.2839" style="stop-color:#F7C70A"/>
			<stop  offset="0.5659" style="stop-color:#F3BB07"/>
			<stop  offset="0.8464" style="stop-color:#EBA703"/>
			<stop  offset="1" style="stop-color:#E59900"/>
		</linearGradient>
		<path class="st4" d="M198.6,119.2c-2.1,0.8-4.4-0.3-5.1-2.3c-0.8-2.1,0.3-4.4,2.3-5.1c2.1-0.8,4.4,0.3,5.1,2.3
			C201.8,116.1,200.7,118.4,198.6,119.2z"/>
	</g>
</g>
<g>
	
		<image style="overflow:visible;opacity:0.2;enable-background:new    ;" width="61" height="75" xlink:href="B77C247B.png"  transform="matrix(1 0 0 1 170.383 129.234)">
	</image>
	<g>
		<path class="st5" d="M174.4,188.8c0,0,0.3,0.1,0.9,0.2c0.6,0.1,1.5,0.3,2.6,0.3c0.6,0.1,1.2,0.1,1.9,0.1s1.4,0.1,2.2,0
			c0.8,0,1.6-0.1,2.5-0.2c0.4-0.1,0.9-0.1,1.4-0.2c0.5-0.1,0.9-0.2,1.4-0.3c1-0.1,1.9-0.5,2.9-0.7c1-0.3,2-0.6,3-1.1
			c2.1-0.8,4.1-1.9,6.1-3.3c1-0.6,2-1.4,2.9-2.2s1.9-1.6,2.7-2.5c1.7-1.8,3.4-3.8,4.7-5.9c1.3-2.1,2.5-4.4,3.4-6.7
			c0.8-2.3,1.5-4.7,1.9-7c0.3-1.2,0.3-2.3,0.5-3.5c0.1-1.1,0.1-2.3,0.2-3.3c0-1.1,0-2.1-0.1-3.2c-0.1-1-0.1-2-0.3-3
			c-0.1-0.9-0.3-1.8-0.4-2.7c-0.2-0.9-0.3-1.7-0.5-2.4c-0.3-1.5-0.7-2.8-1-3.9c-0.7-2.1-1.1-3.4-1.1-3.4s0.5,1.2,1.3,3.3
			c0.3,1.1,0.8,2.4,1.2,3.9c0.2,0.8,0.4,1.6,0.6,2.4c0.1,0.9,0.3,1.8,0.5,2.7c0.2,1,0.2,2,0.3,3s0.1,2.1,0.2,3.2
			c0,1.1,0,2.2-0.1,3.4s-0.2,2.3-0.4,3.5c-0.3,2.4-1,4.8-1.9,7.2s-2,4.7-3.4,7c-1.4,2.2-3.1,4.2-4.9,6.1c-0.9,0.9-1.9,1.8-2.8,2.6
			c-1,0.8-2,1.5-3,2.2c-2.1,1.4-4.2,2.4-6.3,3.2c-1,0.4-2.1,0.7-3.1,1c-1,0.2-2,0.5-3,0.7c-0.5,0.1-1,0.2-1.4,0.2
			c-0.5,0-0.9,0.1-1.4,0.1c-0.9,0.1-1.7,0.1-2.6,0.1c-0.8,0-1.5-0.1-2.2-0.1s-1.3-0.1-1.9-0.2c-1.1-0.1-2-0.4-2.6-0.5
			C174.7,188.9,174.4,188.8,174.4,188.8z"/>
	</g>
</g>
<g>
	
		<image style="overflow:visible;opacity:0.2;enable-background:new    ;" width="196" height="161" xlink:href="B77C2485.png"  transform="matrix(1 0 0 1 12.383 31.234)">
	</image>
	<g>
		
			<linearGradient id="SVGID_4_" gradientUnits="userSpaceOnUse" x1="16.6261" y1="99.3179" x2="193.4732" y2="99.3179" gradientTransform="matrix(1 0 0 -1 0 206.4681)">
			<stop  offset="0" style="stop-color:#F9CB0B"/>
			<stop  offset="0.2839" style="stop-color:#F7C70A"/>
			<stop  offset="0.5659" style="stop-color:#F3BB07"/>
			<stop  offset="0.8464" style="stop-color:#EBA703"/>
			<stop  offset="1" style="stop-color:#E59900"/>
		</linearGradient>
		<path class="st6" d="M191.3,76.3c2-40.3-51.3-54.9-73-21.8c-23.5,35.8-104.1-18.3-101.6,54c0.7,19.3,17.8,32.3,35.8,34.3
			c23.8,3.1,35.5-13.7,47.5-8.7c21.7,9,15.3,29.3,32.4,38.7c26.9,14.7,56.2-3.8,60.9-29.4c2-11-12.5-26.8-9.3-42.6
			C185.7,92.5,190.8,85.4,191.3,76.3z"/>
	</g>
</g>
<g>
	
		<image style="overflow:visible;opacity:0.2;enable-background:new    ;" width="48" height="63" xlink:href="B77C2487.png"  transform="matrix(1 0 0 1 1.383 99.234)">
	</image>
	<g>
		<path class="st5" d="M6.8,103.4c0,0,0,0.9-0.1,2.5c0,0.8,0,1.8,0,2.9c0,0.6,0,1.1,0.1,1.8c0,0.6,0.1,1.3,0.1,1.9
			c0,0.7,0.1,1.4,0.2,2.1c0.1,0.7,0.2,1.5,0.3,2.2c0.1,0.8,0.3,1.5,0.4,2.3c0.2,0.8,0.4,1.6,0.6,2.4c0.4,1.6,1,3.3,1.6,4.9
			c0.3,0.8,0.7,1.6,1.1,2.4c0.4,0.8,0.8,1.6,1.3,2.3c0.9,1.5,1.9,3,3,4.4s2.3,2.6,3.6,3.8c2.5,2.3,5.1,4,7.5,5.3
			c2.4,1.3,4.5,2.1,6,2.6c1.5,0.5,2.4,0.7,2.4,0.7s-0.9-0.1-2.4-0.5c-1.5-0.4-3.7-1.1-6.2-2.3c-1.2-0.6-2.5-1.3-3.9-2.2
			c-1.3-0.9-2.7-1.8-4-3c-1.3-1.1-2.6-2.4-3.7-3.8c-0.6-0.7-1.2-1.4-1.7-2.2c-0.6-0.7-1-1.5-1.5-2.3s-0.9-1.6-1.3-2.4
			c-0.4-0.8-0.8-1.7-1.1-2.5c-0.7-1.7-1.2-3.4-1.6-5.1c-0.2-0.8-0.4-1.7-0.5-2.5s-0.2-1.6-0.4-2.4c-0.1-0.8-0.1-1.5-0.2-2.3
			c-0.1-0.7-0.1-1.4-0.1-2.1c0-0.7,0-1.3-0.1-2c0-0.6,0-1.2,0.1-1.8c0-1.1,0.1-2.1,0.2-2.9C6.7,104.3,6.8,103.4,6.8,103.4z"/>
	</g>
</g>
<g>
	
		<image style="overflow:visible;opacity:0.2;enable-background:new    ;" width="33" height="33" xlink:href="B77C248A.png"  transform="matrix(1 0 0 1 22.383 22.234)">
	</image>
	<g>
		
			<linearGradient id="SVGID_5_" gradientUnits="userSpaceOnUse" x1="26.4045" y1="172.784" x2="40.5586" y2="172.784" gradientTransform="matrix(1 0 0 -1 0 206.4681)">
			<stop  offset="0" style="stop-color:#F9CB0B"/>
			<stop  offset="0.2839" style="stop-color:#F7C70A"/>
			<stop  offset="0.5659" style="stop-color:#F3BB07"/>
			<stop  offset="0.8464" style="stop-color:#EBA703"/>
			<stop  offset="1" style="stop-color:#E59900"/>
		</linearGradient>
		<path class="st7" d="M36,40.3c-3.7,1.4-7.7-0.5-9.1-4.2s0.5-7.7,4.2-9.1s7.7,0.5,9.1,4.2C41.5,34.9,39.6,39,36,40.3z"/>
	</g>
</g>
<g>
	
		<image style="overflow:visible;opacity:0.2;enable-background:new    ;" width="62" height="72" xlink:href="B77C248B.png"  transform="matrix(1 0 0 1 166.383 11.234)">
	</image>
	<g>
		<path class="st5" d="M170.7,15.8c0,0,0.3,0,0.9-0.1c0.6-0.1,1.4-0.1,2.5-0.1s2.4,0.1,3.9,0.2c1.5,0.2,3.2,0.4,5,0.9
			c1.8,0.4,3.7,1.1,5.7,1.9c2,0.8,4,1.8,5.9,3c2,1.2,3.9,2.6,5.7,4.3c1.8,1.6,3.5,3.4,5,5.4c0.4,0.5,0.7,1,1.1,1.5
			c0.3,0.5,0.7,1,1,1.5c0.6,1.1,1.3,2.1,1.8,3.2c1.1,2.2,1.9,4.4,2.7,6.6c0.3,1.1,0.6,2.2,0.9,3.3c0.2,1.1,0.4,2.2,0.6,3.2
			c0.1,1,0.3,2.1,0.4,3.1c0.1,1,0.2,1.9,0.2,2.9c0.1,0.9,0.1,1.8,0.1,2.6c0,0.8,0,1.6,0,2.4c-0.1,1.5-0.1,2.8-0.2,3.9
			c-0.2,2.1-0.3,3.4-0.3,3.4s0-1.2,0.1-3.4c0.1-1.1,0-2.4,0-3.9c0-0.7-0.1-1.5-0.1-2.4c-0.1-0.8-0.1-1.7-0.2-2.6
			c-0.1-0.9-0.2-1.9-0.3-2.8c-0.2-1-0.3-2-0.5-3s-0.5-2.1-0.7-3.1c-0.3-1.1-0.6-2.1-0.9-3.2c-0.7-2.1-1.6-4.4-2.7-6.5
			c-0.5-1.1-1.2-2.1-1.8-3.1c-0.3-0.5-0.7-1-1-1.5s-0.7-1-1.1-1.5c-1.4-2-3.1-3.7-4.8-5.3c-1.7-1.6-3.6-3-5.6-4.2
			c-3.8-2.4-7.8-4.1-11.3-5.1c-1.8-0.5-3.4-0.9-4.9-1.1c-1.5-0.2-2.8-0.4-3.8-0.4c-1.1,0-1.9-0.1-2.5,0
			C171,15.8,170.7,15.8,170.7,15.8z"/>
	</g>
</g>
</svg>
