<?xml version="1.0" encoding="utf-8"?>
<!-- Generator: Adobe Illustrator 24.1.1, SVG Export Plug-In . SVG Version: 6.00 Build 0)  -->
<svg version="1.1" id="Capa_1" xmlns="http://www.w3.org/2000/svg" xmlns:xlink="http://www.w3.org/1999/xlink" x="0px" y="0px"
	 viewBox="0 0 765 512" style="enable-background:new 0 0 765 512;" xml:space="preserve">
<style type="text/css">
	.st0{opacity:0.15;}
	.st1{fill:#FFFFFF;}
</style>
<g class="st0">
	<g>
		<polygon class="st1" points="637.6,383.2 625.9,371.5 584.3,413.1 625.9,454.7 637.6,443 607.7,413.1 		"/>
	</g>
</g>
<g class="st0">
	<g>
		<polygon class="st1" points="706.8,371.5 695.1,383.2 725,413.1 695.1,443 706.8,454.7 748.4,413.1 		"/>
	</g>
</g>
<g class="st0">
	<g>
		
			<rect x="617.1" y="404.9" transform="matrix(0.1951 -0.9808 0.9808 0.1951 131.1842 986.1006)" class="st1" width="98.5" height="16.5"/>
	</g>
</g>
<g class="st0">
	<path class="st1" d="M485.2,353.2c-4.9,4.9-4.9,12.9,0,17.8s12.9,4.9,17.8,0s4.9-12.9,0-17.8C498.1,348.3,490.1,348.3,485.2,353.2
		L485.2,353.2z M497,359.3c1.6,1.6,1.6,4.1,0,5.7s-4.1,1.6-5.7,0s-1.6-4.1,0-5.7C492.9,357.7,495.4,357.7,497,359.3z"/>
	<path class="st1" d="M429,503.7c4.4,0,8-1.3,10.6-3.9c0.9-0.9-1.5,2.1,36.6-47.6v0.5c0,3.8,4.2,6,7.3,3.9l9.9-6.7
		c0.4-0.3,0.9-0.3,1.3,0l9.9,6.7c3.1,2.1,7.3-0.1,7.3-3.9v-11.3l4.8,10.2c1.6,3.4,6.4,3.6,8.3,0.4l6-10.3c0.2-0.4,0.7-0.6,1.2-0.6
		l11.8,1.8c3.7,0.6,6.6-3.2,4.9-6.6l-20.6-43.4c1.5-2.1,3.5-3.8,5.8-5l4.6-2.3c3.1-1.5,4.5-5.2,3.3-8.4
		c11.7-10.9,23.9-21.3,36.6-30.9c65.3-50,61-46.6,61.8-47.5c5.5-5.5,5.1-15.4-1-28c0.4-3-0.1-7.1-2.6-12.6c-1-2.2-3.5-3.1-5.7-2.1
		s-3.1,3.5-2.1,5.7c2.6,5.9,2,8.4,1.6,8.8c0,0,0,0-0.1,0.1c-5.2,3.8-17.3,0.9-31.7-7.3l1.9-1.9c2.2-2.2,2.2-5.9,0.1-8.1
		c-6.2-6.4-11-13.1-13.7-19c-2.6-5.8-2-8.4-1.6-8.8c0.1-0.1,0.2-0.1,0.3-0.2c0.2-0.1,0.4-0.1,0.6-0.2c3.4-0.7,14.8,3.4,28,16.6
		c1.4,1.4,2.8,2.8,4,4.3c1.6,1.8,4.3,1.9,6,0.4c1.8-1.6,1.9-4.3,0.4-6c-1.4-1.6-2.9-3.1-4.4-4.7c-11.4-11.4-25.7-20.2-35.1-19
		c-12.6-6.1-22.5-6.5-28-1c-0.4,0.4-0.9,0.9-1.3,1.5c-49.7,65-49.1,64.2-55.3,71.8c-2.3,2.8-0.2,7,3.3,7c1.2,0,2.5-0.5,3.3-1.6
		c6.3-7.8,6.3-7.8,47-61c0.6,2.5,1.5,4.9,2.5,7.3c6.9,16.1,21.7,32.8,35.4,43.9c-53.1,40.7-61.7,46.8-77.6,60.7
		c-4.9-6-12-9.5-19.7-9.8c-3.8-4.7-7.3-9.7-10.5-14.8c3.1-3.4,6.3-6.8,9.3-10.2c1.6-1.8,1.4-4.5-0.4-6c-1.8-1.6-4.5-1.4-6,0.4
		c-2.8,3.1-5.6,6.3-8.5,9.4c-3.2-1.2-6.8,0.2-8.4,3.3l-2.3,4.6c-1.7,3.5-4.7,6.2-8.3,7.6L457,331c-3.6,1.4-5.3,5.4-3.8,8.9
		c-11.2,10.4-23.1,20.4-35.2,29.7c-64.9,49.7-61,46.6-61.8,47.5c-5.2,5.2-5.1,14.6,0.2,26.3C369.3,470.8,406.9,503.7,429,503.7z
		 M499.6,442.6c-3.3-2.3-7.6-2.3-11,0l-3.8,2.6v-24.4c0-2.4-1.9-4.3-4.3-4.3s-4.3,1.9-4.3,4.3V438c-45.2,59-42.4,55.4-42.7,55.7
		c-3.2,3.2-13.8,1.2-28-8.3l70.6-92.2v7.7c0,2.4,1.9,4.3,4.3,4.3s4.3-1.9,4.3-4.3v-13.6c5.8,2.1,12.4,2.3,18.6,0v58L499.6,442.6z
		 M533.7,432.5c-4-0.6-7.9,1.2-9.9,4.7l-2.3,4l-9.4-19.8v-39.3c0.5-0.4,0.9-0.9,1.3-1.3l24.9,52.4L533.7,432.5z M524.5,384.4
		l-5.6-11.9c0.2-0.6,0.5-1.1,0.7-1.7c4.1,3,8.3,5.9,12.6,8.6C529.5,380.6,527.3,381.7,524.5,384.4L524.5,384.4z M633.9,278.9
		c2.9,7.6,2.4,12.1,0.7,13.8c-2.1,2.1-7.8,2.1-16.5-1.8L633.9,278.9z M593,257.2l-1.4,1.4c-6.5-4.3-13.1-9.5-19.5-15.2l6.3-8.3
		C581.1,242.2,586.6,250.2,593,257.2z M577.3,222.4l-11.5,15.1c-0.4-0.4-0.9-0.9-1.3-1.3c-2.7-6.8-3.1-12.3-1-14.5
		C565.2,220,569.7,219.4,577.3,222.4L577.3,222.4z M581.1,261.7c10.4,7.6,24.4,16,37.1,18.4l-8.4,6.4
		C599.4,280.1,589.2,270.9,581.1,261.7z M599.5,289.9c6.8,4.8,15.4,9.7,23.4,11.8l-49.3,37.8c-13.1,10-25.8,20.8-37.9,32.1
		c-5.1-3.2-10.1-6.7-14.8-10.5c-0.1-2.8-0.7-5.6-1.7-8.3C535.7,338.3,543.4,332.9,599.5,289.9L599.5,289.9z M507,375
		c-7.1,7.1-18.7,7.1-25.8,0c-7.1-7.1-7.1-18.7,0-25.8c7.1-7.1,18.7-7.1,25.8,0C514.2,356.3,514.2,367.9,507,375z M463.1,337.5
		c5.7-2.2,10.3-6.4,13-11.8l0.8-1.6c2.7,4.3,5.5,8.5,8.6,12.6c-6.8,2.3-12.1,7.1-15.1,13c-2.8-3.9-5.4-7.9-7.9-12L463.1,337.5z
		 M362.5,422.7c0.2-0.2-3.7,2.8,61-46.8c11.9-9.1,23.5-18.8,34.5-29c2.9,4.5,6,8.9,9.4,13.1c-0.6,7.4,1.9,15,7.5,20.8l-76.2,99.5
		c-4.1-3.2-8.2-6.8-12.1-10.7C364.9,447.9,357.9,427.3,362.5,422.7z"/>
</g>
</svg>
