<?xml version="1.0" encoding="utf-8"?>
<!-- Generator: Adobe Illustrator 24.1.1, SVG Export Plug-In . SVG Version: 6.00 Build 0)  -->
<svg version="1.1" id="Capa_1" xmlns="http://www.w3.org/2000/svg" xmlns:xlink="http://www.w3.org/1999/xlink" x="0px" y="0px"
	 viewBox="0 0 512 512" style="enable-background:new 0 0 512 512;" xml:space="preserve">
<style type="text/css">
	.st0{fill:#1B1B1E;stroke:#00C3FF;stroke-width:21;stroke-linejoin:round;stroke-miterlimit:10;}
	.st1{fill:none;stroke:#CCEFFF;stroke-miterlimit:10;}
	.st2{fill:#00AAF0;}
	.st3{fill:#00C3FF;}
</style>
<path class="st0" d="M486.5,512h-461C11.4,512,0,500.6,0,486.5v-458C0,12.8,12.8,0,28.5,0h458C500.6,0,512,11.4,512,25.5v461
	C512,500.6,500.6,512,486.5,512z"/>
<path class="st1" d="M256,91.6c-4,0-7.8,1.6-10.6,4.4L94.1,247.3h0c-4.1,6.9-3,14.5,1.9,19.3l151.3,151.3c0,0,0,0,0,0
	c6.9,4.1,14.5,3,19.3-1.9l151.3-151.3c4.1-6.9,3-14.5-1.9-19.3L266.6,96C263.8,93.2,260,91.6,256,91.6z"/>
<path class="st2" d="M309,311.6c-19.4,0-33.1-8.8-37.9-13l8-13.4c5.1,3.6,16.9,11,29.4,11c8.1,0,13.8-3.4,13.8-9.3
	c0-7.2-11.9-9.5-18.4-11.4c-5.4-1.5-29.9-4.9-29.9-23.4c0-17.7,15.4-27.7,33-27.7c18.4,0,28.2,7.5,32.8,11.5l-8.6,13
	c-4.3-3.2-13.8-9.3-24.3-9.3c-7.8,0-12.8,3.3-12.8,9.4c0,7.6,13.4,9.8,16.5,10.6c5.8,1.5,32.5,5.6,32.5,25.3
	C342.9,308.3,319.5,311.6,309,311.6z"/>
<path class="st3" d="M179.7,310V196.4h48.2c22,0,36.2,20.3,36.2,37.8c0,20.6-15.7,37.8-35.4,37.8h-26.9V310H179.7z M201.8,252.6
	h25.6c7.7,0,14.2-7.2,14.2-18.4c0-9.6-5.8-18.4-15.2-18.4h-24.6L201.8,252.6L201.8,252.6z"/>
</svg>
