<?xml version="1.0" encoding="utf-8"?>
<!-- Generator: Adobe Illustrator 24.1.1, SVG Export Plug-In . SVG Version: 6.00 Build 0)  -->
<svg version="1.1" xmlns="http://www.w3.org/2000/svg" xmlns:xlink="http://www.w3.org/1999/xlink" x="0px" y="0px"
	 viewBox="0 0 300 300" style="enable-background:new 0 0 300 300;" xml:space="preserve">
<style type="text/css">
	.st0{display:none;}
	.st1{fill:#DDA292;}
	.st2{fill:#D7AB9C;}
	.st3{fill:#D59A8B;}
	.st4{fill:#EFEDED;}
	.st5{fill:#B27E77;}
	.st6{fill:#51302F;}
	.st7{fill:#DAAD9E;}
	.st8{opacity:0.78;fill:#DDAD9E;}
	.st9{opacity:0.49;fill:#E6BBB5;}
	.st10{fill:#DEAE9B;}
	.st11{fill:#744435;}
	.st12{fill:#50302B;}
	.st13{fill:#BC806D;}
	.st14{fill:#493033;}
	.st15{fill:#AF7E74;}
	.st16{fill:#D3D0D7;}
	.st17{fill:#E5E5E5;}
	.st18{opacity:0.67;fill:#DEDBDE;}
	.st19{fill:#DEDBDE;}
	.st20{fill:#BFBEBE;}
	.st21{fill:#3D3C47;}
	.st22{fill:#F6EFF8;}
	.st23{fill:#F0ECEF;}
	.st24{fill:#F7F4FF;}
	.st25{fill:#A79C9E;}
	.st26{fill:#CCCCCC;}
	.st27{fill:#EADED3;}
	.st28{fill:#2A2B30;}
	.st29{fill:#483838;}
	.st30{fill:#443634;}
	.st31{fill:#383C46;}
	.st32{fill:#494848;}
	.st33{fill:#7A5652;}
	.st34{fill:#754332;}
	.st35{fill:#E0CAC6;}
	.st36{fill:#EADFDF;}
	.st37{fill:#B96A6E;}
	.st38{fill:#F2E1DD;}
	.st39{fill:#D3C2B6;}
	.st40{fill:#C59E8B;}
	.st41{fill:#9B7E78;}
	.st42{fill:#A77572;}
	.st43{fill:#C49A96;}
	.st44{fill:#CDB8B0;}
	.st45{fill:#DDD2CE;}
	.st46{fill:#D3CDBE;}
	.st47{fill:#CEB0A5;}
	.st48{fill:#BA8F7F;}
	.st49{fill:#8F685B;}
	.st50{fill:#B89D95;}
	.st51{fill:#D8C9BF;}
	.st52{fill:#DEC2BE;}
	.st53{fill:#F4F4F4;}
	.st54{opacity:0.2;fill:#934E39;}
	.st55{fill:#BF7A71;}
	.st56{opacity:0.23;fill:#A4614C;}
	.st57{opacity:0.53;fill:#F2C4BD;}
	.st58{fill:#D6AB9A;}
	.st59{opacity:0.66;fill:#FFD0CC;}
	.st60{fill:#D68A8A;}
	.st61{opacity:0.48;fill:#CF7062;}
	.st62{fill:#D59987;}
	.st63{fill:#DDADA0;}
	.st64{fill:#E6BBB5;}
	.st65{fill:#CF8D74;}
	.st66{fill:#E5B3A4;}
	.st67{fill:#D59683;}
	.st68{fill:#31292A;}
	.st69{fill:#D69984;}
	.st70{fill:#644034;}
	.st71{opacity:0.72;fill:#644034;}
	.st72{fill:#522F29;}
	.st73{fill:#704D40;}
</style>
<g id="Layer_1" class="st0">
	
		<image style="display:inline;overflow:visible;" width="1068" height="1068" xlink:href="../../../Local Disk--D/Downloads/FB_IMG_15905671843989541.jpg"  transform="matrix(0.2791 0 0 0.2791 0.9574 0.9574)">
	</image>
</g>
<g id="Layer_3">
	<path class="st1" d="M121.7,36.4c-3.7,0.2-7.4,0.5-11.1,0.7c-3,3-6,6.1-9,9.1l-3.7,6.8l1.4,18.4l-6.8,7.1l-1.5,9.5L94,96l-0.7,8.6
		l-0.3,7.7l1.3,10l2.2,19.1l6.3,11.7l11.1,12.4l12.4,9.4l9.8,2h17l9.6-4.7l14.2-9.8l7.7-7.3l6.6-14.1l2.7-14l1.3-14.2l-0.5-6.4
		L192.4,94l-1.1-19.3l-7.1-5.7l-1.4-17.7l-3.4-11.7l-14-6.6l-33.7-3.1L121.7,36.4z"/>
	<polygon class="st2" points="106.9,160.7 107.3,164.1 108.9,170.3 111.2,176 114.7,181.3 121.7,188.4 131.7,197.1 138.9,203.8 
		145.7,206.8 153,204.1 166.6,193.9 174.7,186.4 181.4,179.9 184.6,175.2 187.1,167.8 186.8,164.3 187.7,150.3 186.3,153 184,157.4 
		162.9,173.8 147.3,181.2 124.3,175.1 	"/>
	<polygon class="st3" points="194.1,96 195.4,93.4 197.9,90.5 199.7,90.2 201.2,90.2 202.5,91.6 203.1,92.7 203.7,95.1 204,97.8 
		204.7,102.9 205.3,108.1 205.8,112.1 206.1,115 206.1,118.3 205.3,122.4 204.4,123.9 203.5,125.3 203.6,127 201.4,129.6 
		198.6,131.2 195.7,131.3 194.1,131 195.4,126.1 195.9,118.2 193.6,100.2 	"/>
	<polygon class="st2" points="92.8,100.2 92.2,98 91.6,96.3 90.4,96 89.1,96.8 87.5,98.3 87.2,99.9 87.2,101 87.9,101.7 88.1,102.4 
		88.6,105.8 88.7,108.6 88.3,111.3 87.6,114.2 87.2,117.7 87.8,122.4 88.9,125.4 89.8,127 90,129 90.4,130.8 91.6,132.4 93.2,133.1 
		94.4,133.1 94.8,129.9 93.1,112.5 93.5,102.4 	"/>
	<polygon class="st4" points="1,221.3 4.4,218.4 7.3,217.3 10.6,214.7 14.7,210.6 20,207.8 29,202.9 32,201 42.2,196.7 55.5,191.2 
		63.3,187.4 72.4,182.3 78.1,179 84.1,177.5 93.8,173.9 100.6,170.6 102.7,168 103.5,164.9 105.8,161.3 107.1,162.8 107.3,164.1 
		108.9,170.3 111.2,176 114.7,181.3 121.7,188.4 131.8,197.2 138.9,203.8 145.7,206.8 153,204.1 166.6,193.9 181.4,179.9 
		184.6,175.2 187.1,167.8 186.8,164.3 187.1,158.5 188.4,160.4 189.4,162.9 189.6,166 191.5,170 193.6,175.6 201.6,179.8 
		216.6,186.4 231.9,196.9 246.5,205.8 251.5,210.3 259.6,216.2 264,220 268.5,222.6 270.5,222.6 270.9,224.6 275.8,228.2 279,232.3 
		282,240 289.6,256.4 299,282.2 299,299 1,299 	"/>
</g>
<g id="Layer_5">
	<path class="st5" d="M130.5,121.8C130.4,121.7,130.4,121.7,130.5,121.8c-0.2-0.2-0.4-0.2-0.9,0.1l-1,0.6l-0.3,0.4l0,1.3l0,0.4
		l0.7,0.8l1.4,0.6h1.8l2.5-1.2l1,0.5l1-0.7l0.9,0l0.4,0.6c0.7,0,1.5,0,2.2,0.1c-0.1,0-0.3-0.1-0.5-0.3c-0.1-0.2-0.2-0.3-0.2-0.4
		c-1.4-0.7-2.8-1.3-4.2-2l-1.7-0.4c-0.9,0-1.9-0.1-2.8-0.1C130.7,122.1,130.6,121.9,130.5,121.8z"/>
	<polygon class="st6" points="163,141.9 151.3,139.3 128.7,138.9 123.5,143 126.9,146.7 150,148.8 	"/>
	<polygon class="st7" points="126.2,121 123.6,123.3 122.1,125.4 121,127.7 121.3,129.7 122.7,131.1 135.4,126.8 135.9,126 
		137.4,125.9 138.2,125.7 137.5,124.6 136.7,124.6 135.6,125.4 134.6,124.9 132.1,126 130.4,126 129,125.4 128.3,124.6 128.2,121.7 
		127.3,122.2 127.1,120.4 	"/>
	<path class="st8" d="M130.6,114.7l-2.9,1.5l-1.9,2.6l-2.1-1.7l-2.7-2.8l1.7-3.6l0.8-2.9l-1-1.4l3.2-1.3l3.8-2.4
		c0.2,0.1,0.5,0.2,0.7,0.3c0,0.2,0.1,0.4,0.1,0.6c0.3,1.5,0.6,3,0.9,4.4c1.2-0.3,2.4-0.7,3.7-1c-0.1,0.8-0.2,1.5-0.3,2.3
		c-0.1,0.6-0.1,1.2-0.2,1.8c-0.1,0.9-0.2,1.7-0.3,2.6C133,114.1,131.8,114.4,130.6,114.7z"/>
	<path class="st9" d="M97.9,99.5l-1.3,1.5v4l-0.7,3.8l-0.8-0.7l0.5,8.8l2.4-3.8l3.8-4.1l3.6,4.5l8.4,5.2l2-1.6l1-2.6
		c0,0,0.7,0.5,1.9,1.4c0.8-0.6,1.6-1.1,2.3-1.7c0.5-1,0.9-2,1.4-3c-1.8-1.1-3.5-2.2-5.3-3.2c0,0-2.1-1.7-2.5-1.7c1-0.2,2-0.4,3-0.6
		c-1.1-0.1-2.2-0.2-3.3-0.4c-0.8,0-1.6,0.1-2.5,0.1l-3.5-0.1h-1.7l4.2-0.9c0.4,0,0.7,0,1.1,0c-0.7-0.1-1.5-0.3-2.2-0.4
		c-0.2,0-0.4,0-0.6-0.1c-0.5,0-1,0-1.4,0c-0.5,0.2-1,0.4-1.4,0.6c0-0.3,0.1-0.7,0.1-1c-0.5,0-1.1,0.1-1.6,0.1
		c0.5-0.6,1.1-1.2,1.6-1.9l0.1-1.2h-1.8l-1.6,1.4l-3.4,0.3L97.9,99.5z"/>
	<path class="st10" d="M100.5,70.7c0.6,0.2,0.9,0.9,1.1,2.2c0,0.9,0,1.8,0,2.7c-0.1,0.8-0.3,1.7-0.4,2.5c-0.1,0.8-0.3,1.8-0.7,3
		c-0.3,0.6-0.5,1.2-0.8,1.7c-0.3,0.7-0.7,1.4-1,2c0.1,0.1,1.4,1.9,0.7,3.7c-0.3,0.7-0.7,1.1-1.1,1.4c-0.2,1.3-0.5,2.5-0.7,3.8
		l-1.4,4.7l-1.1,7.1h-1.2l0.8-12.4c-0.5-1-1.1-2.1-1.5-3.4c-1.1-3.3-1.1-6.2-1-8.2C96.2,73.8,99,70.2,100.5,70.7z"/>
	<polygon class="st11" points="130.9,122.4 130.5,122.9 130.5,123.4 131,124 132.7,124 135.1,124.1 138.2,124.8 137.2,123.9 
		136.1,123.5 135,122.9 133.7,122.4 132.4,122.3 	"/>
	<polygon class="st12" points="144.3,124.6 145.2,123.3 147.9,122.1 150.3,121.6 152.4,121.5 152.9,122.2 152.3,122.9 150.3,124.1 
		149.4,125 147.9,124.4 146.9,123.9 145.5,124.6 144.7,125 	"/>
	<path class="st13" d="M166.9,86.6l-5.7-1.8l-10.1,1.4c-0.7,0.1-1.4,0.2-2.1,0.3c-0.6,0.7-1.3,1.6-1.9,2.8c-0.7,1.5-1.1,2.9-1.2,3.9
		c-0.2,1.4-0.3,2.7-0.5,4.1c0.3,1.6,0.6,3.2,0.9,4.8c-0.7,2.2-1.3,4.4-2,6.6v1.9l8.6,11.5l-0.7,0.7l-1.5,0.9l1.7,1.1l0.5,1.4
		l1.4-0.3l0.6-0.7l2.8-0.5l1.1,1.9l3.4,1.5l3.3,3.8l7.4,3.1l-0.7-2.4l-2.1-2.8l-4.6-2.9l-2.2-3.1l-1.4-0.5l-0.1-1.5l1.3-0.8
		l-0.5-0.9l-3.7-3.1l-3.8-4l3.4-1.7l-1.2-3.8c0.7-0.8,1.3-1.5,2-2.3c2.2-0.6,4.4-1.2,6.6-1.9c-13.3-3.5-16-5.7-15.9-7
		c0.1-0.6,0.6-1.5,2-2.6c1.2-0.9,2.4-1.8,3.5-2.6c6-0.9,12-1.9,17.9-2.8L166.9,86.6z"/>
	<path class="st13" d="M112.8,87c1.4,1,2.8,2,4.1,2.9c3.6,1.4,7.2,2.9,10.8,4.3c0.7,0.3,1.6,0.8,2.8,1.4c2.5,1.4,2.6,1.8,2.6,2
		c0,0.4-0.4,0.7-2.9,2.2c-2.3,1.4-3.1,1.8-3.3,2.6c-0.2,0.7,0.1,1.5,0.4,2c0.4-0.3,0.9-0.6,1.5-0.9c0.2-0.1,0.4-0.3,0.8-0.3
		c0.3,0,0.6,0.1,0.8,0.1c0,0.2,0.1,0.4,0.1,0.6l0.9,4.4l5.4-1.6l-2.3,7.3l-2.6,0.6l-1.2,0.3l-2.9,1.5l-1.9,2.6l-7.3,3.9l-5.8,5.9
		l-4.6,5.2l-0.4,4.9l7.6,9.2l4.4-5.3l-2-2.8l9.4-6.6l-4.4-2.2l-1.4-1.4l-0.4-2l1.1-2.3l1.5-2.1l2.7-2.3l0.8-0.6l11.2-4.2V97.6
		l-1.2-6.7l-4.4-4.8C126,86.3,119.4,86.6,112.8,87z"/>
	<path class="st14" d="M119.6,141.2c0.3,0.6,0.6,1.2,0.9,1.7c0.4,0.4,0.8,0.9,1.3,1.3l2.8-0.5l1.6,1l2,1.2l0.2-1l0.3-0.8l-0.8,0.3
		l-1.1-0.8l-0.3-1l-0.2-0.6h-0.2l-3-0.4c-0.7,0-1.5,0.1-2.2,0.1C120.5,141.5,120,141.4,119.6,141.2z"/>
	<path class="st6" d="M164.9,140.8c0.4,0.1,0.8,0.2,1.2,0.4l-1.3,1.6l-1.9,3c-0.3,0.1-0.7,0.3-1,0.4c-0.2-0.8-0.5-1.5-0.7-2.3
		l-3.6,2.5l-0.6,0.3l-0.1-0.9l-0.9-0.2l1-1.2c0.1,0,0.1,0,0.2,0c0.2,0,0.4,0.1,0.6,0.1c0.4-0.2,0.9-0.4,1.3-0.6
		c0.1-0.1,0.3-0.2,0.4-0.3c0.1-0.6,0.2-1.3,0.4-1.9l1.2-0.1C162.3,141.3,163.6,141.1,164.9,140.8z"/>
	<path class="st15" d="M139.5,125.2c-0.5,0-1.1,0.1-1.6,0.1c0.1,0.1,0.1,0.2,0.3,0.4c0.3,0.4,1,0.9,2.9,1.2c0.9,0.1,2.2,0.2,3.9,0
		c0.5-0.2,1-0.3,1.5-0.5c0.1-0.1,0.2-0.2,0.3-0.3c-0.8-0.5-1.7-0.9-2.5-1.4c0.2-0.2,0,0.1-0.6,0.4c-0.2,0.1-0.4,0.2-0.5,0.2
		c-0.4,0.1-0.9,0.2-1.7,0.2C141,125.4,140.4,125.3,139.5,125.2z"/>
	<polygon class="st16" points="97.6,180.1 98.1,188.3 100.1,201 101.7,209.6 103.2,214.8 104.1,221.6 104.7,226.4 101.8,220.7 
		99,214.7 99,207.5 98.6,198.4 98.5,194.9 98,191.7 97.3,190.5 97.3,184.2 	"/>
	<polygon class="st16" points="194.3,178.2 196.6,183.3 198.3,190.7 198.4,201.2 195.9,226.4 192.9,201 194.7,187.4 	"/>
	<polygon class="st17" points="203.6,185.8 210.7,203.1 222.7,225.1 222.7,220.2 217.2,211.3 216.3,201.2 215.3,196 208,188.1 	"/>
	<polygon class="st18" points="218.7,195.2 229.7,205.4 236.7,224.4 244.9,249.9 253.4,281 244.7,273.1 236.1,253 230.8,237.6 
		225,215.6 223.9,204.8 	"/>
	<polygon class="st19" points="244.9,274.7 249.7,281.9 253.4,291.1 253.4,298.1 253.4,299 250.9,299 250.5,293.6 250,288.7 
		247.9,282.9 	"/>
	<path class="st19" d="M260.7,287.8l2.1-10.2c0,0,1.1-11,1.1-11.4c0-0.4-1.6-10.7-1.6-10.7l-6.6,2.6l1.1,12.3l0.9,13l-0.1,4.9l1,1.8
		L260.7,287.8z"/>
	<polygon class="st20" points="256.4,299 260.7,287.8 258.5,290.1 257.6,288.4 257.3,292.1 	"/>
	<polygon class="st21" points="154.2,207.3 135.9,209.4 130.4,213.5 125,218.7 130.2,225.1 134.6,231 136.9,236.1 136.6,238.1 
		136.4,243.2 134.2,246.4 130,257.1 125.8,269.4 123.9,276.7 123.1,285.9 121.8,299 162.7,299 162.1,286.9 161.9,279.9 160.6,270.3 
		158.4,262.1 156.4,255.5 153.3,249.2 149.3,240.8 147.7,238.1 148,235.9 149.3,233.1 155.3,225.1 162.7,217 	"/>
	<polygon class="st22" points="69,194.1 55.9,204.3 46.1,222.8 43.9,242.7 43.9,254 49.4,246.8 51.3,233.6 57.2,212.4 62.5,204.1 	
		"/>
	<polygon class="st23" points="69.6,207.3 63.3,221.5 59.4,238.7 56.4,253.2 50.4,279 49.6,294.1 54.3,277.1 60.6,262 69,243.1 
		69,223 	"/>
	<polygon class="st24" points="92.9,182.8 88.9,192.4 86.8,206.7 86.8,215.7 86.8,226.4 92.9,219.6 92.9,212.6 89.9,204.6 
		91.6,195.8 	"/>
	<polygon class="st18" points="83.9,217.7 81,243.3 73.7,267.6 59.6,292.6 57.7,299 50.3,299 53.5,288.9 66.3,259.2 79.6,220 
		84.5,206.4 	"/>
	<polygon class="st18" points="96.7,220.4 92.1,230.2 87.6,248.4 80.6,272.8 75,288.5 73.3,299 91.9,299 92.9,283.9 96.7,274 
		102.3,287.3 100,299 117,299 114.5,282.3 109.2,264.3 102.4,240.1 	"/>
	<polygon class="st19" points="53.4,245.6 47.9,257.4 39.2,269.6 40.2,255.7 39.2,242.3 40,230.7 34.9,225.9 29.9,237.9 33,250.7 
		32.7,263.8 31.8,269.6 28.5,251.4 27.2,238.6 24.7,237.1 21.7,250.7 21.2,228.3 18.7,232.6 18.7,242.1 17.9,252.1 13.2,256.7 
		17.5,267.5 18.8,280.6 18.3,292.9 18.9,299 19.9,299 20.1,290.2 24.7,294.1 28.9,299 32.4,300 30.1,294.1 30.1,291.7 32.7,291.5 
		33.3,291.5 35.6,298.8 47.1,299 47.2,291.6 46.7,283 44.4,288.1 41.7,293 37.8,291.3 38.4,287 41.4,284.6 46.3,278.8 51.6,259.5 	
		"/>
	<polygon class="st19" points="12.1,255.2 16.6,267.1 18,277.2 18,286.8 13.6,274.4 12.1,272.1 11.2,266.7 10.6,256.2 	"/>
	<polygon class="st25" points="18.6,299 17.1,294.2 14.9,283.4 14.1,275.9 18,286.8 18.3,292.9 18.9,299 	"/>
	<path class="st26" d="M104.7,228.4c0.5,0.2,1.7,0.5,3.1,0.2c1.1-0.2,1.9-0.8,2.3-1.1c0.1,2.6,0.3,5.1,0.4,7.7v5.4L104.7,228.4z"/>
	<polygon class="st26" points="114.5,226.6 116,231.1 114.4,239.6 114.4,255.2 122.7,266.6 121.8,252.7 122.7,240.4 131.7,252.7 
		134.2,246.4 125,236.4 122.9,228.8 134.9,233.6 132,227.4 125,218.7 120.2,222.6 113.8,225.8 	"/>
	<polygon class="st20" points="120.2,222.4 123.9,219.4 126,224 134.9,233.4 129.9,231 124.4,226.1 	"/>
	<polygon class="st19" points="194.6,243.8 191.3,263.5 187.8,285.5 185.2,299 179.3,299 189.6,249.6 	"/>
	<polygon class="st19" points="179.3,238.1 177.2,255.4 173.8,265.7 181.5,258.9 176.9,271.4 170.2,291.3 170.2,299 162.7,299 
		170.9,263.5 	"/>
	<polygon class="st26" points="174.7,229.1 162.7,250.1 165.1,267.6 164.5,291.1 162.7,298.3 161.9,279.9 160.6,270.3 156.4,255.5 
		149.3,240.8 147.7,238.1 148,235.9 149.3,233.1 155.3,225.1 162.7,217 169.9,223.6 173.9,228.1 	"/>
	<polygon class="st26" points="190.7,205.8 190.7,213.9 192.2,223.1 194.6,235.9 194.5,244.2 189.6,249.6 187.8,243.8 185.5,239.8 
		182,241.2 177.4,253.5 179.3,238.1 173.4,240.8 166.1,254.6 163.6,257 162.7,250.1 174.7,229.1 176.7,230.8 178.6,233.4 
		180.2,235.7 181.5,235.4 182.5,233.4 185.9,221.1 188.6,213.1 	"/>
	<polygon class="st20" points="188.9,225.7 186.4,228.6 183.5,229.7 188.6,213.1 190.7,205.8 190.8,214.2 192.3,223.5 	"/>
</g>
<g id="Layer_2">
	<path class="st27" d="M136.2,141.6c0,0.6-0.1,1.2-0.1,1.8c0.1,0.7,0.2,1.4,0.3,2.1c0.6,0.3,1.3,0.6,1.9,0.9l2.9,0.5l1.1-0.5
		l0.1-4.7C140.3,141.7,138.2,141.6,136.2,141.6z"/>
	<path class="st28" d="M99.8,50.1l-1,2.8l-0.3,2.6l0.4,3.8l0.7,6.6l0.9,4.8l-0.4,1.6l-6.9,9.4v3.9v2.9l0.5,2.6l0.9,1.8v3.5l-0.3,4.6
		l-0.4,4.5l-0.9-0.8c0.1-0.9,0.2-1.9,0.3-2.8c-0.1-0.2-0.2-0.5-0.2-0.7c-0.2-0.7-0.4-1.3-0.6-2c-0.1-0.4-0.2-0.9-0.4-1.3
		c-0.2-0.5-0.4-1-0.6-1.5c-0.4-0.1-0.8-0.2-1.1-0.3c-0.6-4.2-1.2-8.4-1.9-12.6l-0.4-2L88,78.7l0.2-4.4l0.6-5.7l-1.1-6.1l-2.9-2.3
		l-1.6,1.1L82,63.4l-3.1-1l-2.1-4.2l-1.1-3.3l0.7-1.7l-4-2.5L70.7,48v-3.4l2-3.6l-2-2.9l0.6-3.8l1.7-1.7l1.7-0.4l1.9,0.4L76,29.1
		l0.8-2.9l1.8-2.7l3.1-2.6l3.5-1.4l1.8-1l2-2.2l1.3-1.4l1.1-0.4l1.4-2.6l2-1.9l2.1-1.4h1.6l1.4-2.3l3.1-3.7l1.4-1.5h75.6l2.1,2.6
		l3.9,1.9l2,1.1l0.4,1.2l3.7,0.7c0,0-1.7-0.6-1.5-0.8c0.2-0.2,4,0.3,4,0.3l2,0.4l1.9,2.5l1.1,2.4V15l-0.9,4.7l-1,1.8l3.3-0.6
		l1.2-1.9l-0.8-1.5l1.7-0.2l1.1,1.3l0.3,2.2l-0.5,1.1l0.9,0.6l0.4,1.1v1.2v1.3l0.8,1l1.1,0.3v1.2l1.2,0.2l1.1,1.3l0.3,1.7l-0.1,1.4
		l1.6,0.6l1.8,0.9l0.7,1.7l0.3,2.8l-1.8,3.5l-1,0.9l-0.3,3.1l-0.7,2.5l-1,2.2l-1.5,2l-1.4,0.9l0.5-1.2l1.1-1.6l1.1-2.4l0.3-1.8
		l-0.1-1.7l-0.1-1l-0.6,2.7l-0.4,2.1l-0.6,1.3l-0.5,1.5l-1.5,1.6l0.4-1.7c0,0,1.1-1.7,1.1-1.7c0,0,0.2-1.6,0.2-1.6l0.2-0.9l-0.6,1.4
		c0,0-1.1,1.6-1.1,1.7s-2.4,3.6-2.4,3.6l-0.1-0.8l0.8-2.3l0.7-1.8l-0.8,0.4l-1.9,1.9l-2.2,2.1l-2,1.8l-0.5,3.6l0,4.7l-0.4,4.8
		l0.2,10.3l0.4,4.3l0.3,4.5l0,2.3l-0.4,1.4l-1.3,1.5l-1.6,1.7c-0.2,0.4-0.3,0.7-0.5,1.1c0.1,2.5,0.2,5,0.3,7.6l-0.6,3l-1-6.6
		l-0.7-3.4l-1.1-1.4l-0.5-3.2l0.6-1.4l-0.3-3.8l-0.4-3.5l-0.7-2.8l-0.9-2.9l-3.1-4.3l-4.4-3.5l-1.6-0.8l-0.2-10.9l-0.3-6.8l-0.7-5.4
		l-1.4-2.4l-4.9,0.5l-4.1-5.4l-3.6-1.2l-4.6-1l-1.2-1.4l-2,1.1l-3.1-1.4l-1.4,1.1l-1.9-1.1l-2.1,0.5l-2.2-1.2l-2.3,2.2l-1.1,0.3
		l-6.9-2.6l-4.5,0.3l-6.3,1.4l-1.5,1.1l-1.5-0.7l-0.3,0.7l-1.6,0.8l-1.7-0.4h-0.9l-0.3,0.7l-0.2,0.5l-2.9,1l-5.4,2.6l-2.6,1.8
		l-2.9,2.6l-2.3,1.7L99.8,50.1z"/>
	<path class="st29" d="M134.9,86.4l0.2-1l-1,1.3v-1.5l1.3-2.3l-2.5,2.7l0.3-1.2l1-1.4v-1.2l-1.3,1.4l-0.3,0.3v-2.3l-0.9,2.1
		c-0.1,0.2-0.2,0.4-0.3,0.6c0-0.6,0.1-1.2,0.1-1.9l-0.1-0.5l-1.1,1.1V84l-0.4-2.7l-0.4,1l-0.3,1.1l-0.6-2l-0.5,1.5l-1.4-1.2
		c0,0.4,0.1,0.8,0.1,1.2c-0.4-0.4-0.8-0.9-1.3-1.3c-1.4-0.1-2.8-0.3-4.1-0.4c-1.6,0.1-3.4,0.1-5.2,0.1c-1.3,0-2.5-0.1-3.6-0.1
		c-1.2,0.1-2.3,0.2-3.5,0.3l-4.1,0.8l-4.1,2.6l-3,2.2l0.6,0.3l-0.9,1.1l1.8-0.4l-0.6,1l2.4-0.9l2.4-0.2l3.3,0.9l3.9-0.4
		c1.4,0,2.9-0.1,4.3-0.1c1.8-0.4,3.2-0.4,4.2-0.3c0,0,0.2,0,2.5,0.2l0,0l1.1-0.1l-0.9-1.2l1.8,1.2h2.3l-0.5-0.6L127,88l-0.6-1.4
		l1.5,1.3h0.8l-1-1.2l2.1,1.2l-0.1-1.3l0.8,1.1l0.7-0.9l0.3,0.9l0.7-0.9l0.5,0.7l0.8-0.4l0.4,0.4L134.9,86.4z"/>
	<path class="st29" d="M146.9,85.6l-1-1.6l-0.1-1.8c0.2,0.4,0.4,0.7,0.6,1.1c0.3,0.4,0.5,0.7,0.8,1.1c0.1,0.1,0.3,0.2,0.4,0.3
		c-0.1-0.2-0.2-0.4-0.3-0.6l-0.5-1.4l-0.4-2c0.2,0.7,0.5,1.5,1.2,2.3c0.1,0.2,0.3,0.3,0.4,0.5c0.1,0.1,0.2,0.2,0.3,0.3
		c0-0.1,0.1-0.2,0.1-0.4c0.1-0.5-0.1-0.9-0.1-1.1c-0.1-0.6-0.2-1.3-0.3-1.9l1.3,2c0.1,0.3,0.3,0.6,0.4,0.9c0.1-0.1,0.2-0.2,0.3-0.3
		c0.2-0.4,0.4-0.9,0.6-1.3l0.3-0.9c0.1,0.7,0.1,1.4,0.2,2.1c0.1,0,0.2-0.1,0.2-0.1c0.1-0.2,0.1-0.3,0.2-0.5c0.2-0.3,0.4-0.7,0.7-1
		c0.6-0.3,1.2-0.6,1.9-0.9l1.7-0.4c1.2,0,2.4,0,3.6,0c1.2,0.1,2.5,0.2,3.7,0.3c1.1,0.2,2.3,0.5,3.4,0.7l-4.2-1.4
		c1.4,0,3,0.1,4.8,0.5c0.5,0.1,1,0.3,1.5,0.4c-0.4-0.2-0.8-0.5-1.2-0.7l-1.1-0.2h2.5c0.5,0.1,1,0.2,1.5,0.3c0.5,0.2,0.9,0.4,1.4,0.7
		l-1.3-0.9l-1.4-1.1l4.5,1.3V79l3.6,0.7l2.5,1.5l4.7,3l-1.2,0.2l0.6,0.7l0.7,0.5l-1.4,0.4l-2.5,0.2l-2.2-0.2
		c0.1-0.2,0.3-0.3,0.4-0.5c-0.4,0.1-0.8,0.2-1.3,0.3c-0.8,0.1-1.6,0.2-2.4,0.3l-2.4-0.2l2.6-1.4c-0.9,0.3-1.7,0.7-2.6,1
		c-1.4,0.2-2.8,0.4-4.2,0.5h-4l-4.1-0.3l-3.4,0l0.3-0.7l-1.3,0.6c-0.2-0.1-0.4-0.3-0.6-0.4c-0.3,0.1-0.6,0.3-0.9,0.4
		c-1.1,0.1-2.1,0.3-3.2,0.4l-2.8,0.4l-0.9-0.4L146.9,85.6z"/>
	<path class="st30" d="M133.4,126.7l-2.2,1.1l-4,1.1l-3.4,1.5l-3.1,2l-4.8,1.3c-1.1,0.6-2.2,1.2-3.3,1.7c-0.7,0.9-1.6,2-2.3,3.3
		c-0.5,0.9-0.9,1.7-1.2,2.5v2.3v2.4l0.4,0.3c0.1-0.3,0.2-0.5,0.3-0.8c0.1-0.1,0.2-0.2,0.3-0.3c0,0.4,0,0.7,0,1.1
		c0.1-0.1,0.2-0.2,0.3-0.3c0.1-0.1,0.2-0.1,0.4-0.2c-0.1,0.6-0.3,1.1-0.4,1.7c0.3-0.1,0.5-0.2,0.8-0.3c0.1,0.1,0.2,0.3,0.2,0.5
		c0.1,0.4,0,0.7,0.1,0.8c0.1,0.1,0.3-0.2,0.7-0.3c0.2-0.1,0.5,0,0.6,0c0.2-0.6,0.4-1.3,0.6-1.9c0.5-1.1,1.1-2.3,1.6-3.4
		c0.5-0.3,1.1-0.7,1.6-1c0.8-0.2,1.7-0.5,2.5-0.7c1.1-1,2.2-2,3.4-3l3.6-0.9l1.9-0.3l2.4-0.9l0.9,0.3h2.8l0.4,0l0.9-2.3l2,2l2-1.4
		l1.7-1.4v-2.4l-0.4-2.3l-1.1-0.6l-2.8,0l-2.2-0.8l-0.6-0.6L133.4,126.7z"/>
	<path class="st30" d="M147.3,126.7l1.8-0.6l1.9,1l2.9,1.3l1-0.5l4.2,1.7l3.5,1.1l4,1.2h3.3l1.7,0.8l2.7,2.7l3.7,5.2v1.1l-1.9-1.4
		l0.2,2.2h-0.8l0.5,1.9l-0.2,0.1l-0.8-0.9l0.1,0.7l0,0.6l-1.1-1.1v0.8l0.1,0.8l-0.8-1.1l-0.4-1.3c-0.5-0.4-1.1-0.8-1.6-1.2
		c-0.8-0.4-1.6-0.8-2.5-1.1c-0.2,0.4-0.5,0.8-0.7,1.2c-0.8-0.8-1.6-1.7-2.3-2.5c-0.7-0.4-1.4-0.8-2.2-1.1l-1.8-0.6l-2,0.1l-0.3-0.6
		l-2-0.2l-2.1-0.4l-3.2-0.9l-3.9,0.4l-0.4-1.4l-1.1-0.6l-2.2-0.8l-2-1.4v-2l1.7-1.6l1.4-0.6L147.3,126.7z"/>
	<path class="st31" d="M93.2,105.5l0.6,4.6l1.1,9l1,7.3l1.7,3.1l3.6,3.3l0.4,4.9l3.6,5l2.8,4.5v7.8h0.7v2.3l1.3,0.4l0.6,1.8l1.5-0.1
		l0.6,1.4l1.3,0.3l1.2,1.3l-0.5,0.7h2.3l-0.1,1.1l2.1,0.6l-1.2,1.5l1.5-0.2l0.3,1.1l1.1-0.7l-0.6,1.9l1.4-1.2l0.3,3.1l2.6-1.3
		l-1,3.2l1-1.3l0.3,1.3l0.5-1.1l0.5,1.8c0.3-0.6,0.7-1.3,1-1.9c0.2,0.4,0.4,0.8,0.5,1.1c0.3-0.5,0.6-0.9,0.8-1.4
		c0.1,0.6,0.2,1.1,0.3,1.7c0.5-0.8,1-1.5,1.5-2.3c-0.2,0.8-0.4,1.7-0.6,2.5c0.3-0.1,0.7-0.1,1-0.2c0.1,0.5,0.2,1,0.4,1.5
		c0.4-0.2,0.7-0.5,1.1-0.7c0,0.8,0.1,1.5,0.1,2.3c0.2-0.3,0.3-0.6,0.5-0.9c0.4-0.8,0.6-1.5,0.8-2.1c0.1,0.6,0.3,1.3,0.4,1.9
		c0.4-0.9,0.9-1.9,1.3-2.8c0,1.2-0.1,2.4-0.1,3.6c0.3-0.2,0.5-0.5,0.8-0.7c0.2,0.4,0.5,0.9,0.7,1.3l0.3-1.8l0.5,0.9l1.4-2.7l1,3.2
		l1-1.9l0.5,2.3l0.7-0.9l0.2,0.9l1.2-1.7l0.2,1.3c0.5-0.9,1.1-1.7,1.6-2.6c0.6,1,1.2,2.1,1.9,3.1c0.3-0.4,0.5-0.8,0.8-1.2
		c0.4,0.7,0.7,1.4,1.1,2.1c0.2-1.1,0.4-2.1,0.6-3.2c0.4,1.1,0.8,2.3,1.1,3.4c0.2-0.6,0.3-1.3,0.5-1.9c0.2,0.5,0.4,1.1,0.6,1.6
		c0.2-0.7,0.4-1.3,0.6-2c0.4,0.5,0.9,1.1,1.3,1.6c0-0.9,0-1.9,0-2.8c0.5,0.8,1.1,1.7,1.6,2.5c0.2-0.5,0.4-1,0.5-1.6
		c0.6,0.4,1.1,0.9,1.7,1.3c-0.3-0.9-0.6-1.8-0.8-2.6c0.5,0.5,0.9,1,1.4,1.5c-0.1-0.5-0.2-1-0.3-1.4c0.3,0.3,0.6,0.6,0.9,1
		c-0.1-0.8-0.2-1.7-0.3-2.5c0.7,0.7,1.4,1.5,2.1,2.2l-0.8-2.2l1.1,0.7v-0.7l1.1,1.3l0.2-1.9l2.1,0.3c0.1-0.7,0.3-1.4,0.4-2.1
		c0.4,0.1,0.8,0.3,1.2,0.4c0.2-0.6,0.5-1.1,0.7-1.7c0.6-0.1,1.2-0.2,1.8-0.4c0.5-1.2,1.1-2.3,1.6-3.5l2.6-0.1l0.8-1.9l1.6,0.3l2-2.1
		l0.8-2.1l1.3-0.6l0.8-2.9l1.5-0.3l-1.5-3.2l-1.5-4.5l5.4-6.1l6-9.9l2.7-1.3v-3.1l1.3-4.6l0.9-7.4l-0.3-7.2l0.6-3l0.3,3.7l0.6,3.8
		l-0.2,2l1.5,1l0.8,2.2v2.2v1.5l-0.4,0.9l-0.8,2.2l-0.5,3.4l0,2.6l0.3,0.7l-0.7,1.7l-1.5,0.5l0,0.7l-0.3,0.3l-0.9,0.3l0.4,2.5
		l-0.2,0.5l-0.1,2.1l0.1,3.6l-1.2,3.1l-1,3.9l-2.6,3.8l-1.6,0.4l-0.7,2.9l-1.5,1.9l-0.2,0.4l-1.4,2.6l-1.3,0.5l-1.3,2.1l-6.2,7
		l-2.8,3.8l-4.1,3.7l-6.9,4.9l-8,4l-4.8,0.7h-8.6l-3.1-1.3l-3.9-0.3l-5.4-4l-5.1-4.5l-7.4-7l-9.2-10.3l-4.9-4.8l-2-4.5l-3.2-3.1
		l-1.3-4.7l-0.3-5.2v-6.2l0.8-3.8l-0.8-1.9v-1.4l1.2-2.2l-1.2-0.4v-1.3l0.8-1.5l-0.8-9.8l0.2-2.1L93.2,105.5z"/>
	<path class="st32" d="M133.4,159.2c-0.3,0.6-0.7,1.2-1,1.8c0.4-0.1,0.7-0.2,1.1-0.2c-0.1,0.8-0.3,1.5-0.4,2.3
		c0.3-0.4,0.6-0.7,1-1.1c-0.8,3.6-0.9,4.5-0.8,4.6c0.1,0,1-3.1,1.3-3c0.2,0,0,1,0.2,1c0.2,0.1,0.6-1.1,0.8-1c0.1,0,0.1,0.3,0,1.3
		c0.3-0.3,0.6-0.6,0.8-1c-0.1,0.8-0.2,1.6-0.3,2.4c0.7-1.3,1.2-1.9,1.3-1.9c0.1,0,0,0.5-0.3,1.3c0.4-0.9,0.7-1.4,0.7-1.4
		c0,0,0,0.2-0.1,0.6l-1.1,3.4c0.8-1.2,1.6-2.3,1.9-2.2c0.5,0.2-1,4.5-1,4.5l0,0c0.6-1.2,1.1-2.3,1.7-3.5c0,0.8,0,1.5,0,2.3l0.6-2.3
		c0.1,0.3,0.2,0.5,0.3,0.8c0.1-0.2,0.2-0.3,0.2-0.5c-0.1,1-0.1,2-0.2,2.9l0.7-2.1c0.1,0.4,0.1,0.8,0.2,1.1c0.1-0.6,0.2-1.2,0.3-1.8
		c0.1,1,0.2,1.2,0.3,1.2c0,0,0,0,0,0c0.1,0,0.1-0.3,0.1-0.3c0-0.4,0.3-1.2,0.3-1.2c0,0,0,0.3-0.1,1.3c0.1-0.5,0.2-0.7,0.2-0.7
		c0,0,0,0.6-0.2,1.7l-0.2,1.4c0.4-1,0.7-2,1.1-3.1c0.2,0.8,0.5,1.6,0.7,2.4c-0.1-0.6-0.1-1.4,0.2-2.3c0.1-0.3,0.2-0.6,0.3-0.8
		c0.2,0.6,0.4,1.2,0.7,1.8c0-0.7,0.1-1.4,0.1-2.1c0.5,1,1,2,1.6,3c-0.1-1-0.2-2-0.3-3c0.4,0.7,0.8,1.3,1.3,2c0-0.8,0.1-1.5,0.1-2.3
		c0.4,0.8,0.8,1.7,1.1,2.5c-0.3-1.3-0.5-2.6-0.3-2.7c0.2-0.1,0.7,1.2,1.2,2.4c0-0.6-0.1-1.2-0.1-1.8c0.3,0.3,0.5,0.6,0.8,0.9
		c0-0.9-0.1-1.8-0.1-2.8c0.4,0.3,0.8,0.7,1.1,1c0-0.5,0-1,0-1.5c0.1,0.2,0.3,0.4,0.5,0.7c0.7,1.1,0.9,1.9,1,1.8c0.1,0,0-0.7-0.4-3.1
		c0.4,0.3,0.8,0.6,1.1,0.9c-0.1-0.8-0.2-1.5,0-1.5c0.3-0.1,1.1,2.1,1.3,2c0.3-0.1-0.9-3.7-0.4-3.9c0.3-0.2,1.3,1.2,1.4,1.1
		c0.1-0.1-0.4-0.8-0.9-1.6c0.6,0.1,1.2,0.2,1.8,0.3l-0.9-1.8l-1.1-0.3l-3,0.6l-3.2,0l0.2-0.3h-1.6h-3.4c0,0-1.1-0.3-1.3-0.4
		c-0.2-0.1-0.5-0.4-0.6-0.4c-0.2,0-2.5,0.3-2.5,0.3s-2.7,0.2-2.9,0.2s-1.9-0.4-1.9-0.4l-0.5-0.3L133.4,159.2z"/>
	<path class="st33" d="M65.4,129.3"/>
	<g>
		<g>
			<path class="st34" d="M155.1,93.9c0.7-0.4,1.2-0.9,1.9-1.4c0.8-0.5,1.9-0.8,2.7-1c2-0.4,4-0.3,6-0.3c1.1,0,2.1,0,3.2,0.3
				c0.7,0.2,1.3,0.5,2,0.7c1.7,0.4,3.1,1,4.5,2c0.4,0.3,0.8-0.4,0.4-0.6c-1.4-1-2.8-1.6-4.5-2c-0.9-0.2-1.7-0.6-2.5-0.8
				c-1-0.3-2-0.3-3.1-0.3c-2.1,0-4,0-6.1,0.3c-0.9,0.1-1.8,0.5-2.6,0.9c-0.9,0.4-1.5,1.2-2.3,1.6C154.3,93.5,154.7,94.1,155.1,93.9
				L155.1,93.9z"/>
		</g>
	</g>
	<g>
		<g>
			<path class="st34" d="M106.6,95.7c0.6-0.1,1.1-0.5,1.7-0.7c0.8-0.3,1.6-0.6,2.5-0.8c1.4-0.3,2.7-0.8,4.1-1.1
				c0.6-0.1,1.2-0.3,1.8-0.4c0.9-0.2,1.8-0.2,2.7-0.3c1.8-0.2,3.6-0.2,5.4,0c0.5,0.1,0.5-0.7,0-0.8c-1.6-0.2-3.5-0.4-5.1-0.1
				c-0.9,0.2-1.9,0.1-2.8,0.3c-0.7,0.1-1.4,0.3-2.1,0.5c-1.2,0.3-2.5,0.6-3.7,0.9c-0.8,0.2-1.5,0.4-2.3,0.7
				c-0.3,0.1-0.6,0.2-0.8,0.3c-0.4,0.2-0.9,0.6-1.3,0.6C106.1,95,106.1,95.8,106.6,95.7L106.6,95.7z"/>
		</g>
	</g>
	<path class="st13" d="M106.1,104.6c-0.5-0.3-1-0.7-1.5-1c0-0.5-0.1-0.9-0.1-1.4c0.5-0.1,0.9-0.3,1.4-0.4c0.9,0,1.8-0.1,2.7-0.1
		c1.9,0.1,3.9,0.1,5.8,0.2h3.6c2.2-0.3,4.4-0.7,6.5-1c1.7-0.3,3.4-0.6,5.1-0.9l-3.1,2.2l-4.4,1.6c-2.2,0.2-4.4,0.4-6.6,0.6
		c-1.6,0.1-3.2,0.2-4.8,0.2l-1.9-0.5h-1.4L106.1,104.6z"/>
	<path class="st13" d="M154.7,100.2c1.1,0.1,2.2,0.2,3.3,0.3l4.7,0.8h5.4l3.8-0.8h3.8v1.2l-1.1,1.3l-1.6,0.5l-5.3,0.6l-4.5-1
		l-4.8-1.5C157.2,101.1,156,100.7,154.7,100.2z"/>
	<path class="st35" d="M155.2,96.4c0.7-0.5,1.4-1,2.1-1.5l3.6-1.5l3.3-0.3l2,0.2l2.4,0.6l2.9,1.2c-0.8,0.3-1.6,0.7-2.4,1
		c-1,0.1-2,0.1-3.1,0.2c-1.3,0.1-2.6,0.1-3.9,0.2c-1.2,0-2.5,0-3.7,0C157.4,96.6,156.3,96.5,155.2,96.4z"/>
	<polygon class="st36" points="110.6,97.3 114,95.3 117,94.3 122.4,94.7 127.1,96.6 122.9,97.3 120,98.1 116.5,98.2 113.7,97.9 	"/>
	<path class="st37" d="M121.9,144.6l1.1,2.1l1,2.1l2.3,2.7l2.3,1.7l3,2.2l3.1,1.8l5.6,0.4h6l4.6-1l5.3-2.5l3.1-3.3l3.5-4.9l-1,0.4
		l-0.4-2.2l-0.4-0.1l-3.6,2.5l-0.6,0.3c-0.7,0.2-1.5,0.5-2.3,0.7c-1.2,0.3-2.4,0.4-3.4,0.5c-1.1,0.1-2.3,0.2-3.4,0.3l-4.4,0.7
		l-2.4-0.4l-3.2-0.2l-3.8-0.8l-2.3-1.1l-3.5-0.5l-3.6-2.2l-2.8,0.5L121.9,144.6z"/>
	<polygon class="st38" points="148.6,141.7 148.8,145.5 148.2,146.4 146.9,146.7 144.9,146.9 143,146.6 142.2,146.4 142.3,141.7 
		144.8,141.7 147.6,141.7 	"/>
	<polygon class="st39" points="153.1,141.9 153.1,143.8 153.1,144.6 152.7,145.5 151.7,146 150,146.2 148.8,145.5 148.6,141.7 
		150.2,141.7 151.6,141.8 	"/>
	<path class="st40" d="M156.6,141.9c0,0.7,0,1.3,0,2l-0.3,0.9l-1.1,0.9l-1.7-0.7l-0.4-0.4v-2.6h1.8
		C155.5,141.9,156,141.9,156.6,141.9z"/>
	<path class="st41" d="M160,141.7c-0.1,0.6-0.1,1.3-0.2,1.9l-1,1.3l-0.8,0.2l-0.8-0.5l-0.6-0.7c0-0.7,0-1.3,0-2c0.4,0,0.9,0,1.3,0
		C158.6,141.9,159.3,141.8,160,141.7z"/>
	<polygon class="st42" points="127.6,145.5 128.6,144.6 130.2,145.4 130.3,146.3 128.1,146 127.5,145.6 	"/>
	<polygon class="st43" points="132.5,146.9 133,145.2 132.1,143.9 130.8,144.6 130.3,145.2 130.3,146.3 131.6,146.4 	"/>
	<path class="st44" d="M137.2,148.2c-0.1-0.4-0.1-0.8-0.2-1.2c0-0.4-0.1-0.8-0.1-1.2l-1.3-0.5l-1.3-0.1l-1.4,0l-0.3,1.8l1.4,0.7
		C135.1,147.8,136.1,148,137.2,148.2"/>
	<polygon class="st45" points="140.7,148.3 140.9,146.9 138.2,146.4 136.9,145.8 137.2,148.3 137.5,148.3 140.6,148.5 	"/>
	<polygon class="st46" points="145,146.9 145.1,148.7 143.4,149 140.6,148.5 140.9,146.9 141.1,146.9 142.2,146.4 143,146.6 	"/>
	<path class="st47" d="M149.5,148.1l-0.1-1.9c-0.2-0.1-0.5-0.3-0.7-0.4c-0.1,0.2-0.3,0.4-0.4,0.6l-1.3,0.3l-1.9,0.2l0.1,1.8l2.7-0.4
		L149.5,148.1z"/>
	<path class="st48" d="M152.8,145.3l0.3,2.4c-0.4,0.1-0.8,0.1-1.1,0.2c-0.9,0.1-1.7,0.2-2.5,0.2c0-0.6-0.1-1.3-0.1-1.9l0.1-0.3
		l0.5,0.3l1.7-0.2l1-0.5L152.8,145.3z"/>
	<path class="st49" d="M156.5,145l0.5,1.6c-0.5,0.2-1.1,0.4-1.8,0.6c-0.8,0.2-1.5,0.3-2.1,0.5c-0.1-0.5-0.1-1.1-0.2-1.6l0.9-1.1
		l1.4,0.6l1.1-0.9L156.5,145z"/>
	<path class="st50" d="M128.6,141.6l-0.3,1.5l0.3,1l-0.8,0.3l-1.1-0.8c-0.2-0.6-0.4-1.1-0.6-1.7
		C126.9,141.8,127.7,141.7,128.6,141.6z"/>
	<path class="st51" d="M132.6,141.4c0,0.8,0,1.6-0.1,2.4c-0.9,0.7-1.8,1.4-2.7,2l-1.3-1.5v-0.1l-0.3-1l0.3-1.5l1.3-0.2L132.6,141.4z
		"/>
	<polygon class="st52" points="132.6,141.5 132.6,143.8 132.8,144.9 134,145.5 135.4,145.8 136.3,145.5 136.1,143.4 136.2,141.6 
		135.5,141.5 132.6,141.4 	"/>
	<path class="st37" d="M119.6,141.2l3.1-0.3c1-0.5,1.7-0.9,2.3-1.2c0.6-0.3,0.9-0.5,2-1c0.7-0.4,1.3-0.7,1.7-0.9
		c0.7-0.2,1.5-0.5,2.2-0.7l3.5-0.2l3.1-0.3l2.8,1.4l2.5-0.7c0.8-0.1,1.6-0.3,2.4-0.4c0.4-0.1,0.9-0.2,1.6-0.3c0.6-0.1,1.1,0,1.6,0
		c0.8,0,2,0.1,3.4,0.3c1,0.4,2.1,0.7,3.1,1.1c1,0.3,2,0.7,3,1c0.9,0.4,1.8,0.7,2.7,1.1c1.5,0.2,3,0.5,4.4,0.7l-3.9,0.8l-3,0.3
		c-1.6,0-3.2,0-4.9,0c-1.5-0.1-3-0.1-4.6-0.2c-0.8,0-1.7,0-2.6,0c-1.1,0-2.1,0-3.1,0l-3.5,0.2l-3.8-0.4l-2.1-0.1l-3.6,0l-2,0.4
		l-1.8,0.2l-3-0.4l-2.2,0.1L119.6,141.2z"/>
	<polygon class="st32" points="107.1,162.8 107.4,163.6 108.6,168.3 109.6,171.6 111.6,176 114.9,181.2 120.3,186.6 121.4,188.1 
		114.7,181.3 111.2,176 108.9,170.3 107.3,164.1 	"/>
	<path class="st32" d="M187.1,158.5c-0.1,1.9-0.2,3.9-0.3,5.8c0.1,1.2,0.2,2.3,0.3,3.5l-2.5,7.5l-3.2,4.7l-14.9,14L153,204.1
		l-7.3,2.7l-6.8-3.1l-11.2-10.3l-6.3-5.4l-1.1-1.4l9.2,8.3l9.9,8.6l6.4,2.5l7.2-2.3l10.3-7.4l7.6-6.7l9.9-9.4l4.2-6.6l1.8-7.7
		c0-0.7,0-1.4,0.1-2.1C186.8,162,186.9,160.2,187.1,158.5z"/>
	<path class="st53" d="M102.7,168L98,178l-0.5,3.2l0.6,7.6L101,206l0.7,4l1.4,4.9l1.5,11.9v1.6c0.6,0.2,1.5,0.4,2.6,0.3
		c1.6-0.2,2.7-0.8,3.2-1.2c3.2-1.7,6.5-3.4,9.7-5l4.8-3.7l5.4-5.2c-4,0.8-8.1,1.5-12.1,2.3c-2.8,0.5-5.5,0.9-8.3,1.4
		c-1.6-3.6-3.2-7.2-4.9-10.9c-1-3.2-1.9-6.7-2.8-10.4c-1.3-5.8-2.2-11.3-2.8-16.3C100.6,175.8,101.7,171.9,102.7,168z"/>
	<polygon class="st26" points="135.9,209.4 142.2,207.3 147.7,206.8 154.2,207.3 	"/>
	<path class="st53" d="M193.4,175.1l0.9,3.1l0.4,9.1l-1.8,13.7l-2.1,4.8l-2.1,7.3l-5.1,16.6l-1,3.7l-1,2l-1.3,0.3l-3.2-4.5l-2.3-2.1
		l-4.8-5.5l-7.2-6.6l-8.4-9.7c3.4,2.5,8.6,6.1,14.2,9.2c1.5,0.8,2.6,1.2,4.5,2.4c3.6,2.3,4.3,3.6,5.7,3.3c1.5-0.3,2.5-2.2,4-5
		c0.8-1.6,1.2-2.8,1.3-2.8c1.8-5.2,6.3-13.5,7.9-17.2C193.7,192.7,195.3,185.8,193.4,175.1z"/>
</g>
<g id="Layer_4">
	<polygon class="st54" points="197.5,96.7 198.1,95.5 199.5,93.7 200,92.7 201.2,92.1 202.1,92.6 202.7,94.2 203,96.3 203.7,99.4 
		203.8,103.6 203.8,105.7 204.2,108.3 204.7,110.6 205.3,114 205.5,116.2 204.7,118.4 203.8,121.1 202.4,122.5 200.4,121 
		200.1,120.4 203.1,116.9 203.5,114.8 203.8,111.6 203.4,109.3 202.5,105.1 201.5,102.1 199.8,98.9 198.2,97.1 	"/>
	<polygon class="st55" points="195.8,103.8 195.3,105.4 195.1,106.7 195.3,107.7 196.3,108.4 197.5,109.5 197,110.9 197,112.1 
		197.9,112.9 198.8,113.5 199,114.3 199,115.7 198.2,117.2 197.9,117.7 200.1,117.1 201.8,115.5 202.7,112.6 203.1,110.1 
		202.7,108.1 201.7,106 199.3,104.2 197.9,103.5 	"/>
	<polygon class="st56" points="198.5,121.3 197.4,122 197.2,123.6 196.5,122.6 195.9,126.3 195.9,128.7 196.5,130 197.5,130.2 
		199.1,129.9 200.4,128.8 200.9,127.3 200.4,126.1 199.7,124.6 199.1,123 	"/>
	<path class="st57" d="M197.5,97c0,1,0,2.1,0,3.1c0.2,0,0.4,0,0.6,0l0.7,0.7l-0.1,1.1l-0.6,0.7h-1.5l-0.8,0.1l0.4,0.6l0.8,0.5
		l0.9-0.1l1.4,0.7l2.4,1.8l1.1,2.1l0.4,2l-0.4,2.5l-0.9,2.9l-1.7,1.6l-1.8,0.6l0,0.8l-0.7-0.1v1.5l-0.4,0.9l-0.7,1.9l0.7,0.9
		l0.2-1.6l1.1-0.7l1.2,3.1l1-0.7l0.8-1.8l-1.1-0.8l-0.3-0.6l3-3.5l0.4-2.1l0.4-3.2l-0.4-2.3l-0.9-4.1l-1-3.1l-1.7-3.2l-1.6-1.8
		C198,97.1,197.7,97,197.5,97z"/>
	<path class="st58" d="M203.8,123.4l-0.9,1l-0.4,1v1l-2,2.4l-1.3,1l-1.6,0.3l-1.1-0.1l-0.3-0.4c-0.2,0.6-0.5,1.1-0.7,1.7
		c0.1,0,0.2,0,0.3,0c1-0.1,1.9-0.1,2.9-0.2c0.3-0.2,0.5-0.4,0.8-0.6c0.2-0.2,0.5-0.3,0.7-0.4l1.1-0.7l0.8-0.8l1.1-1.4v-1.5l0.6-1.5
		L203.8,123.4z"/>
	<polygon class="st59" points="92.9,102.4 91.8,100.7 90.4,98.4 89.5,98.1 88.4,99.7 87.8,100.3 88.1,98.6 89,97.2 89.8,96.3 
		90.4,96 91.6,96.3 92.2,97.8 93.3,101.9 	"/>
	<path class="st60" d="M89,103.7c0.1,0.3,0.2,0.7,0.3,1c0.1,0.5,0.2,1.1,0.3,1.6v1.7l0.1,1.6l-0.6,2.4l-0.4,1.5l-0.5,2.9v1.8
		l0.4,3.4l0.9,1.5l1.1,1.6l0.7,0.4v-1.8v-2.1l0.4-0.7l-1-1l-1.3-0.2l-0.4-2l0-2.1l0.6-2.9l0.6-1.8l0.2-1.5v-0.9l-0.5,0.1l-0.2-2.6
		L89,103.7z"/>
	<path class="st61" d="M91.1,106c0,0.1,0,0.1,0,0.2l-0.8,1.3l-0.6,0.3v-1.4v-1.4l-0.6-0.9L89,102v-0.5l0.4-0.7l0.7-0.4h0.9l0.6,1.2
		l0.4,0.9l1,0.8L92,104l-0.8,1.1l-0.1,0.9C91.1,105.9,91.1,106,91.1,106z"/>
	<polygon class="st62" points="92.4,110.4 90.9,112.9 89.8,115.9 89.6,117.4 90.5,118.9 91.9,119.9 93.7,118.9 93.3,117 92.2,117.1 
		91.6,116.8 91.4,115.7 91.4,114.4 92,113.1 92.9,111.8 93,110.4 	"/>
	<polygon class="st63" points="111.2,45.6 110.2,52.7 107,57.2 102,62.8 102,68.3 108,62.8 113.1,66.8 115.9,64.6 120.5,65.8 
		123.3,63 126.1,62.7 128.2,61.2 124.7,59.1 124.7,53.7 120.5,52 119,51.5 	"/>
	<path class="st63" d="M101.6,72.9c0.2,2.8-0.3,6.8-3,11.9c0,0.5-0.1,1-0.1,1.5c2.2-1.4,4.3-2.9,6.5-4.3l4.1-0.8l3.5-0.3l3.6,0.1
		l5.2-0.1l4.1,0.4l1.3,1.3l-0.1-1.2l1.4,1.2l0.2-1.5l-4-5.6l-0.8-4.2l-0.1-1.3c-1-1.4-2-2.9-2.9-4.3c-1.5-0.4-3.1-0.8-4.6-1.1
		c-0.4-0.3-4-2.8-8.3-1.4c-2.6,0.8-4.7,2.8-5.6,5.1C101.3,70.1,101.6,71.6,101.6,72.9z"/>
	<path class="st64" d="M103.1,106.6c-0.4,0.9-0.9,1.7-1.3,2.6c-1.2,1.2-2.3,2.5-3.5,3.7c0.1,1.4,0.2,2.9,0.3,4.3
		c0.9,0.8,1.7,1.7,2.6,2.5c0.3,1.2,0.6,2.4,1,3.6c0.8,1,1.7,2,2.5,3c2.6-0.9,5.1-1.7,7.7-2.6c1-1.3,1.9-2.6,2.9-3.8l-2.1-3.9
		l-1.9-2.2l0.4-4.2l-1-2.3l-3.4-0.8C105.9,106.6,104.5,106.6,103.1,106.6z"/>
	<polygon class="st65" points="146.3,102.1 145.2,102.7 144.5,104.4 144.1,108.2 147.1,108.2 148.2,109.9 149.1,111.4 150,112.9 
		152.1,112.9 155,114.2 157.1,114.2 157.5,112.7 155.7,111.3 153.1,110.6 150.4,110.2 148.4,108.5 148.2,107.1 148,104.6 
		147.9,103.5 	"/>
	<path class="st66" d="M134.8,90.5l2.3,0.4l1.9,2.6l1.7,2.8v4.1l1.1,8.2l-0.6,4.3l0.6,3.4l1.1,2.8v1.5c-0.2,0.2-0.4,0.5-0.7,0.7
		c-0.4,0.3-0.7,0.7-1.1,1c-0.4,0.1-0.9,0.1-1.3,0.2c-0.3-0.1-0.6-0.1-0.9-0.2c-0.4-0.1-0.9-0.1-1.3-0.2c-0.6-0.3-1.2-0.6-1.8-0.9
		c-0.3,0-0.7-0.1-1-0.1c0.3,0.2,0.5,0.4,0.8,0.6c0.4,0.4,0.8,0.9,1.2,1.3l2.5,1.3l0.1,0.5l-1.2-0.5l-1.8-0.9l-1.1-0.6l-1.7-0.4
		l-2.1-0.1h-0.7l-0.4-0.5l-1.6-0.1l-1.5,0.7l-0.3-1.7l0.6-1.6l1.8-1.5l1.8-0.2l1.1,0.4l1.5-1.1l1-9.1l0.5-5.9l1.3-4.5l-0.6-2.4
		l-1.3-1.1l-0.1-1.6l-1.2-1.4L134.8,90.5z"/>
	<polygon class="st67" points="146.7,115.2 148.3,115.2 149.7,115.2 150.7,116.3 151.6,117.2 152.8,117.8 153.5,117.5 153.6,116.8 
		155,116.5 156.4,116.9 157.1,117.9 157.3,119.6 157.3,121.6 156.2,122.8 155.1,123.3 153.8,122.4 153.4,121.6 152.1,120.2 
		150.8,119.1 149.6,118.7 148.6,118.3 148,117.2 146,117 144.8,117.1 146.5,115.4 	"/>
	<path class="st68" d="M114.5,95.2c-0.1,0-0.3,0.1-0.4,0.4c-0.1,0.2-0.1,0.4-0.1,0.5l0.4,1.3l0.4,0.6c0.1,0.1,0.2,0.1,0.3,0.2
		c0.5,0,0.9,0.1,1.4,0.1c1.2-0.1,2.3-0.1,3.5-0.2c0.9-0.2,1.8-0.5,2.6-0.7c0.1-0.3,0.2-0.6,0.3-1v-1.2c-0.2-0.2-0.3-0.3-0.5-0.5
		c-0.7-0.1-1.5-0.1-2.2-0.2c-1.1-0.1-2.2-0.2-3.3-0.3C116.1,94.6,115.3,94.9,114.5,95.2z"/>
	<path class="st68" d="M159.9,93.8c0,0.5,0,1-0.1,1.4l0.4,1l0.4,0.3c0.5,0,1,0,1.5,0c0.8,0,1.6-0.1,2.4-0.1c1.1-0.1,2.3-0.1,3.4-0.2
		c0.1-0.1,0.3-0.2,0.4-0.3l0.2-0.6c0-0.3,0-0.6-0.1-1c-0.1-0.2-0.1-0.4-0.2-0.6c-0.9-0.3-1.7-0.5-2.1-0.6c-0.4-0.1-0.5,0-1-0.1
		c-0.4-0.1-0.6-0.1-0.9-0.1c-0.1,0-0.2,0-0.4,0c-0.3,0-0.5,0-0.6,0.1c-0.9,0.1-1.4,0.1-1.5,0.1c-0.2,0-0.3,0-0.4,0
		c-0.2,0-0.2,0-0.3,0c-0.2,0-0.3,0.1-0.4,0.2C160.4,93.7,160.2,93.8,159.9,93.8z"/>
	<path class="st69" d="M177.4,104.6h-9.6h-2.9l-5.4,1l-2,2.3l1.2,3.8l-1.5,0.8l0.3,0.3l-0.4,1.5H156l3,3.2l3.7,3.1l0.5,0.9l-1.1,0.7
		l1.2,1.5l8.2,3.9l3.5,1.9l0.8,3.9l0.3,4.9l3.8,2.8l2.4-6.8l1.2-5.8l0.3-14.6l0-0.7l2.9-2.2l1.4-4.4l-0.3-4.4
		c-1.8-2.2-3.5-4.4-5.3-6.6c0.1,0.5,0.8,3.8-1.3,6.6C179.7,103.6,178.1,104.3,177.4,104.6z"/>
</g>
<g id="Layer_6">
	<path class="st70" d="M131.2,97.1c-0.5-0.2-0.9-0.4-1.4-0.6c-1.1-0.5-2.2-0.9-3.2-1.4c-0.7-0.2-1.4-0.4-2.1-0.6l-2.4-0.8
		c-0.8-0.1-1.7-0.1-2.5-0.2c-0.9,0-1.7,0-2.6,0l-3,0.4l-2.2,1.1l-2.5,1l-1.8,1.3l-1.5,1l-0.4,0.5c0.2-0.1,0.3-0.2,0.5-0.3
		c0.2-0.1,0.3-0.2,0.5-0.3l0.7-0.2l0.3-0.1l0.5-0.3c0.1-0.1,0.3-0.1,0.4-0.2c0.7-0.1,1.4-0.1,2.1-0.2c1.3-0.7,2.6-1.4,3.9-2.1
		c0.3-0.1,0.6-0.2,1-0.4c0.5-0.2,1-0.4,1.5-0.5c0.6,0,1.2,0.1,1.8,0.1c0.4,0,0.8,0.1,1.2,0.1c0.3,0,0.5,0,0.8,0.1
		c0.4,0,0.7,0.1,1.1,0.1c0.2,0,0.5,0,0.7,0.1c0.3,0.1,0.7,0.3,1,0.4l3.8,1.5c-0.6,0.1-1.2,0.2-1.8,0.3c1.5,0.8,2.8,1.1,3.7,1.4
		c0.7,0.2,1.3,0.3,1.7-0.1C131.1,97.8,131.2,97.3,131.2,97.1z"/>
	<path class="st71" d="M127.1,96.6c-0.4,0.1-1,0.2-1.7,0.3c-0.4,0.1-0.9,0.2-1.9,0.4c-1.6,0.3-2.4,0.5-2.7,0.6
		c-0.3,0.1-0.5,0.1-0.8,0.2c-0.4,0.1-0.7,0.1-1.4,0.1c-0.3,0-0.6,0-1.1,0.1c-0.1,0-0.2,0-0.3,0c-0.3,0-0.5,0-0.7,0
		c-0.1,0-0.2,0-0.3,0c-0.3,0-0.4,0-1-0.1c0,0,0,0,0,0c-0.4,0-0.5-0.1-1.1-0.1c-0.6,0-1.4-0.2-2.2-0.4c-0.7-0.2-0.8-0.3-1.3-0.3
		c-0.1,0-0.5,0-1.2,0.1c-0.7,0.1-0.9,0.1-1.1,0.2c-0.3,0.1-0.5,0.3-0.7,0.4c-0.4,0.1-0.8,0.2-1.2,0.2c-0.3,0.2-0.5,0.4-0.8,0.6
		c0.7-0.1,1.5-0.1,2.2-0.2c0.3,0,7,0.2,7.3,0.2h3.6c1.9-0.3,3.7-0.6,5.6-0.9c1.4-0.3,2.7-0.7,4.1-1C128,96.8,127.5,96.7,127.1,96.6z
		"/>
	<path class="st72" d="M151.8,97.1c0.9-0.5,1.7-0.9,2.6-1.4l3.2-1.5l3.2-1.2l3.8-0.6l4.1,0.3l4.1,1.7l3.1,0.6l-0.6,1.1l0.3,1.1
		l-2.6-1.1l-2.6-1.3l-2.9-0.8l-4.6-0.5l-2.9,0.8l-2.5,0.8c-0.6,0.6-1.2,1.1-1.8,1.7C154.4,96.9,153.1,97,151.8,97.1z"/>
	<polygon class="st73" points="155.6,96.6 157.3,96.7 160.5,96.7 165.6,96.6 169.1,96.3 171.3,95.4 173.7,96.4 171.9,97 168.5,97 
		164.4,97 160.8,97 157,97 155.1,96.6 	"/>
</g>
</svg>
