<?xml version="1.0" encoding="utf-8"?>
<!-- Generator: Adobe Illustrator 24.1.1, SVG Export Plug-In . SVG Version: 6.00 Build 0)  -->
<svg version="1.1" xmlns="http://www.w3.org/2000/svg" xmlns:xlink="http://www.w3.org/1999/xlink" x="0px" y="0px"
	 viewBox="0 0 300 300" style="enable-background:new 0 0 300 300;" xml:space="preserve">
<style type="text/css">
	.st0{display:none;}
	.st1{display:inline;fill:#CA9C61;}
	.st2{display:inline;fill:#6E5031;}
	.st3{fill:#D7AA73;}
	.st4{fill:#F3D08B;}
	.st5{fill:#392E2E;}
	.st6{fill:#704845;}
	.st7{opacity:0.85;fill:#704845;}
	.st8{fill:#CEA06C;}
	.st9{fill:#E6C080;}
	.st10{fill:#E2BBAC;}
	.st11{fill:#6B4645;}
	.st12{fill:#E6C583;}
	.st13{fill:#A48653;}
	.st14{fill:#A67D48;}
	.st15{fill:#C2A26B;}
	.st16{fill:#B18B54;}
	.st17{opacity:0.53;fill:#6D4936;}
	.st18{fill:#3E262C;}
	.st19{fill:#A29993;}
	.st20{fill:#866766;}
	.st21{fill:#C9A66C;}
	.st22{fill:#B5965B;}
	.st23{fill:#9F7B4B;}
	.st24{fill:#805A2F;}
	.st25{fill:#B18753;}
	.st26{fill:#99794D;}
	.st27{fill:#845F3A;}
	.st28{fill:#7E5C34;}
	.st29{fill:#AF8254;}
	.st30{opacity:0.61;fill:#A67D48;}
	.st31{fill:#694449;}
	.st32{fill:#8E7E7F;}
	.st33{fill:#B2A9A4;}
	.st34{fill:#BAB4AF;}
	.st35{fill:#947B7F;}
	.st36{fill:#957677;}
	.st37{opacity:0.25;fill:#FFFFFF;}
	.st38{fill:#AE9691;}
	.st39{fill:#7E464D;}
	.st40{fill:#B4A3A1;}
	.st41{fill:#816C69;}
	.st42{fill:#232323;}
	.st43{fill:#51352E;}
	.st44{opacity:0.25;fill:#985F44;}
	.st45{opacity:0.51;fill:#362326;}
	.st46{opacity:0.48;fill:#533125;}
	.st47{fill:#26161A;}
	.st48{fill:#362326;}
	.st49{fill:#424142;}
	.st50{opacity:0.52;fill:#855C57;}
	.st51{opacity:0.31;fill:#AA8E87;}
	.st52{fill:#915862;}
	.st53{fill:#40262C;}
	.st54{fill:#491D25;}
	.st55{fill:#67323B;}
	.st56{fill:#4C272D;}
	.st57{fill:#805954;}
	.st58{fill:#9D7F77;}
	.st59{fill:#8E7073;}
	.st60{opacity:0.12;fill:#FFFFFF;}
	.st61{fill:#2F2121;}
	.st62{fill:#D3D1D1;}
	.st63{fill:#1B151B;}
	.st64{opacity:1.000000e-02;fill:#FFFFFF;}
	.st65{opacity:0.41;fill:#CCB2AE;}
	.st66{opacity:0.58;fill:#FFFFFF;}
	.st67{opacity:0.42;fill:#FFFFFF;}
	.st68{opacity:0.83;fill:#CCB2AE;}
	.st69{fill:#A06E73;}
	.st70{fill:#CCB2AE;}
	.st71{fill:#392729;}
</style>
<g id="Layer_1" class="st0">
	
		<image style="display:inline;overflow:visible;" width="748" height="1012" xlink:href="351FED86.jpg"  transform="matrix(0.2589 0 0 0.2589 47.3478 19)">
	</image>
	<path class="st1" d="M156.5,193.4c0.9,3.7,3.7,5.9,6.8,8.3c2.7,2.1,6.3,4.4,11.3,5.8c8.4,2.3,10.8-3.2,20.7-1.4
		c1.8,0.3,3.6,0.8,6.6,0.8c5.4-0.1,8.7-1.9,9.4-2.4c1.9-1.2,3.6-2.2,4-3.7c0.8-3.5-4.6-8.4-10.1-10.3c-2.4-0.8-3.1-0.5-14.3-0.4
		c-3.3,0-6.3,0-12.2-0.1c-9-0.1-10.3-0.3-12-0.9c-4.9-1.7-6.6-4.5-8.5-3.6C156.1,186.4,155.8,190.5,156.5,193.4z"/>
	<path class="st2" d="M229.6,211.8c0,1.6,0.1,3.8-1.4,5.1c-2.2,2.1-7.1,1.3-10-0.8c-1.3-1-1.7-1.8-3.1-2.2c-2-0.5-4.4,0.5-4.6,1.6
		c-0.1,0.7,0.6,1,1.7,2.5c1.1,1.5,1.5,2.6,2,3.7c1.6,3.4,3.8,5.3,6.4,9.4c3.7,5.8,4.6,10.3,5.4,10.1c0.5-0.1,0.1-1.7,0.5-5.3
		c0.3-2.9,0.9-5.1,1.3-6.5c0.8-2.8,1.2-2.9,2.6-7.1c1-2.8,1.4-4.3,1.5-5.6c0.2-2.4-0.5-3.2-1.3-6.9c-0.2-0.9-0.6-3.9-1.4-9.9
		c-0.7-5.2-0.9-6.9-2.1-7.4c-0.9-0.4-1.3,0.4-3.7,0.9c-1.4,0.3-1.8,0.1-7,0c-4.1-0.1-4.4,0-4.4,0.1c0,0.2,1,0.4,4.1,1.1
		c3.5,0.8,3.5,1.1,4.5,1.1c2-0.1,3-1,3.8-0.4c0.6,0.5,0.5,1.4,0.4,2.1c-0.2,2.4-1.6,3.1-1.4,4.4c0.2,1.4,1.8,1.3,3.6,3.1
		C229.5,207.7,229.6,211.2,229.6,211.8z"/>
</g>
<g id="Layer_9">
	<path class="st3" d="M80.7,224.7c-1.3,1-3.9,3.3-4.2,6.6c-0.6,6.6,8.4,11.2,9.1,11.6c7.3,3.6,12.5,0.3,22,0
		c18.6-0.7,24,11.2,32.7,7.9c14-5.3,19.2-43.1,6.1-51.6c-6.4-4.2-16-0.4-31.1,5.6c-8.7,3.5-20.7,8.2-23.7,15.5
		c-0.4,0.9-1.4,3.6-4,4.8C85.2,226.2,82.6,225.5,80.7,224.7z"/>
	<path class="st4" d="M58.9,215.9c-5.1-8.8-12.3-13.4-10.6-17.7c0.1-0.3,1.2-2.1,3.4-5.6c1.2-2,1.8-3,2-3.2c2.5-3.1,5.3-2.4,9.4-4.4
		c1.9-0.9,1.2-1.1,9.4-9c3.5-3.4,5.3-5.2,6.5-6c4.1-2.7,6-2.5,8-5.1c0.4-0.6,1.2-1.8,2.6-2.1c1-0.2,2.1,0,2.6,0.4
		c2.6,2-7.7,12.3-5.4,21c2.5,9.6,19.6,15.3,24.3,16.9c5.1,1.7,7.6,1.8,7.9,3.3c0.8,3.8-13.5,6.6-32.2,18.9
		c-11.5,7.6-15.8,12.9-20.2,11C62.3,232.3,65,226.2,58.9,215.9z"/>
	<path class="st5" d="M97.5,185.9c0.5-0.1,0.2-1.5,1.1-5.7c1.4-6.6,3.3-8.5,2.1-11.1c-0.7-1.5-2.2-2.9-3.4-2.7
		c-1.5,0.3-2.3,2.8-2.6,4.1C92.7,177.9,96.2,186.1,97.5,185.9z"/>
	<path class="st6" d="M108.5,194c2.9,4,9.2,5,11.6,2.6c0.9-0.9,1.1-2.1,1.1-2.5c0.6-5.7-8.3-13-12-11.3
		C106.7,184,105.8,190.1,108.5,194z"/>
	<path class="st7" d="M107.4,194c0.6-0.9,1.4-2.3,1.9-4.1c0.3-1,1-4.2-0.9-9.7c-1.6-4.9-5.4-11.7-7.8-11.1c-1.1,0.3-1.5,2.1-2.2,5.4
		c-1.1,5.1-1.7,8.1-0.4,11.5C100.4,191.6,106.3,193.6,107.4,194z"/>
	<path class="st8" d="M115.6,206.9c-0.7,3.2,2.5,4,7,15c2.6,6.4,2.6,8.7,4.3,9.2c5.3,1.4,13.9-19.1,15.1-18.6
		c0.9,0.4-3.8,11.6-10.7,22c-2.9,4.4-5.2,7.1-8.5,7.5c-2.4,0.3-3.2-1-8.9-3.4c-6.4-2.7-9.6-4.1-12.8-3.2c-5.1,1.3-6.1,6.7-8.9,6.1
		c-2.5-0.5-4.6-5.2-3.7-9c1.4-6.1,9.8-7.5,9.4-10.6c-0.3-2.2-4.7-2.1-10.9-5.6c-5.6-3.2-5.7-6.7-8.5-6.6c-4,0.1-7.1,6.8-8.7,10.4
		c-3.1,6.8-3,12-3.9,11.9c-0.8,0-2-4.8-1.2-9.9c0.9-5.2,3.2-6.6,5.1-11.7c2.3-6.1,0.3-7.5,1.7-14.6c2.2-11.8,9.4-17.8,8-19.1
		c-1.1-1-6.4,2.2-9.7,6.6c-1.5,2-1,2.1-3.9,7.5c-2.4,4.4-3.6,6.6-5.8,8.9c-3,3.1-4.3,2.8-5.6,4.8c-1.9,2.8-0.8,6.9,1.2,14.8
		c1.2,4.8,1.9,7.6,3.7,11.2c2.4,4.7,5,7.8,6.1,9c0.2,0.2,4.8,5.3,10.4,8.2c8.9,4.7,13.7,0.6,28.3,1.9c9.9,0.9,17.6,3.7,27.1,7.1
		c15,5.5,15.8,8.4,20.1,7.7c17.7-3.1,30.5-56.4,15.3-67.2c-3-2.2-7.9-1.8-17.7-1C140.8,196.6,117.3,198.4,115.6,206.9z"/>
	<path class="st9" d="M91.2,162.3c-1.4,0.5-2.2,1.8-4.2,6.4c-1.3,2.9-1.9,4.4-2.2,5.3c-0.5,1.6-1.8,6-0.9,10.9
		c1.2,6.7,5.6,10.8,7.9,13c4.9,4.7,10.2,6.4,15.1,8.1c1.5,0.5,5.8,1.9,10.6,2.5c9.5,1.1,22.6-1.1,32.7-9.6
		c12.2-10.2,16.5-26.5,14-28.1c-2.6-1.7-13.9,11.9-30.9,20.7c-3,1.5-8.3,4.1-15.2,3.7c-3.2-0.2-6-1.1-7.3-1.5c-3.1-1-6.3-2-9.5-4.9
		c-1.3-1.2-4.1-3.7-5.4-7.8c-0.8-2.5-0.7-4.6-0.7-5.7c0.1-1.8,0.1-3.9,1.3-6.2c1-1.9,1.8-2.2,1.7-3.3c-0.2-1.7-2.3-3.2-4.2-3.5
		C93.3,162.1,92.3,161.9,91.2,162.3z"/>
</g>
<g id="Layer_4">
	<path class="st10" d="M86,139.7c0.3,1.8,0.7,3.3,1,5.9c0.2,2.7,0.1,3.7,0.6,5.7c0.4,1.8,1,3,1.8,4.5c0.5,1.1,1.3,2.5,4.6,7.1
		c1.8,2.5,3,4.2,4.8,6.4c2.7,3.4,2.8,3.1,4.7,5.7c1.7,2.2,3,4.2,5.2,7.6c2.1,3.2,2.2,3.6,3.3,4.9c1.3,1.5,1.8,1.8,4,4.3
		c2,2.3,1.9,2.4,2.6,2.8c0.7,0.5,1.9,1.1,6.5,1.2c3.2,0.1,4.9,0.1,7-0.3c3.8-0.8,6.5-2.4,7.9-3.3c1.1-0.7,3.4-2.3,9.1-8.9
		c3.1-3.6,4.7-5.5,5.9-7.4c4.4-6.7,5.6-13,6.6-18.5c1.1-5.9,2.5-13.4,0.5-17.3c-0.1-0.3-1.3-2.3-1.3-5c0-1,0-2,0.7-2.9
		c0.7-0.9,1.5-0.6,2.4-1.6c0.8-0.9,0.5-1.4,1.1-2c1.2-1.3,3.4-0.1,4.6-0.4c3.3-1,4.6-15.9-1.1-32.3c-3.5-10-7.2-20.6-17.2-27.6
		c-19.6-13.6-52.7-5.5-63.8,13c-6,9.9-5.4,22.5-5.1,29.3C82.6,119.1,85,134.9,86,139.7z"/>
	<path class="st11" d="M186.8,112.6c2,1.7,2.9,3.4,3.3,4.4c0.2,0.5,1.8,4.2,0.4,5.4c-0.4,0.3-0.6,0.1-1.8,0.4
		c-1.3,0.3-2.2,0.8-3.2,1.4c-0.9,0.5-1.8,1-2.8,1.9c-0.5,0.5-1.2,1.1-1.9,2.1c-1.1,1.8-0.6,2.5-1.6,3.6c-0.9,0.9-1.5,0.5-2.3,1.5
		c-0.8,1.1-0.6,2.1-1.2,2.3c-0.4,0.1-0.9-0.3-1.4-0.9c-1.8-1.6-3.2-1.3-3.4-2c-0.1-0.4,0-1,1.4-2c1.4-1,1.7-1.1,1.7-1.1l0.5-0.9
		l1.2-2.5l4.1-6.1l3.5-8l2.1-1c0,0,1.2,0.2,1.4,0.8S186.8,112.6,186.8,112.6z"/>
</g>
<g id="Layer_5">
	<path class="st12" d="M170.9,270.4c1.4-1,2.8-1.9,4.4-2.7c0.3-0.1,0.6-0.3,0.8-0.4c4.2-3.4,11.9-10.8,20.7-24.1
		c8.8-13.2,18.5-28.1,20.4-48.8c0.9-9.6-0.6-12.6-1.3-13.7c-8.2-13.9-43-15.2-55.9,1.5c-1.7,2.2-1.3,11.3-5.2,13.3
		c-0.4,0.2-1.1,0.4-1.5,1.2c-1.1,2.1,2.3,4.8,1.5,7.4c-0.3,1-0.9,1-3.1,2.7c0,0-2.6,2.1-4.6,4.6c-1.9,2.4-2,5.2-2.2,10.5
		c-0.2,8.1,1.1,14.6,1.6,16.6c1,4.3,1.5,4.6,2.1,8.3c0.3,2.1,1,6.4,0.5,10.8c-0.2,1.4-0.2,2.8-0.5,4.2c-0.2,1.2-0.4,2-0.5,2.7
		c1.4,0.3,2.7,0.7,4.1,1.3c3,0,5.6,2.1,9.4,4.4C164.6,270.6,167.8,270.5,170.9,270.4z"/>
	<path class="st13" d="M201.8,213.6c2.6,2.6,2.4,6.7,2.3,9.3c-0.3,6.4-2.9,7.7-6.4,18.1c-0.6,1.9-3.5,10.8-0.9,14.4
		c0.1,0.2,0.4,0.5,0.8,0.8c3.4-1.7,6.8-3.2,10.4-4.5c4.1-1.4,11.3-3.7,17.1-3.1c0.3-1.7,0.7-4,1.1-6.9c1.5-11.2,0.3-10.5,1.4-15.1
		c1.9-7.3,4.7-8.8,4.4-14.9c-0.1-1.6-0.2-1-0.9-6.4c-0.6-4.8-0.7-6.7-1.5-10c-0.9-3.2-1.7-5.1-3.4-6.4c-0.7-0.6-1.4-0.9-2.1-1.2
		c-2.9-1.2-11.4-3.5-13.8-0.3c-1.5,2,0.9,4.1,1.6,12.3c0.4,4.6,0.6,6.9-0.9,8.2c-2.1,1.9-5.1-0.4-12.2,0.4c-3.5,0.4-6.7,1.4-6.6,2
		C192.4,211.3,198.4,210.2,201.8,213.6z"/>
	<path class="st14" d="M169.5,270.5c1.3-2.8-0.5-5.9,1.2-10.6c1.3-3.5,3.6-5.5,7.3-8.7c5.6-4.8,13.1-8.6,14-7.4c0.5,0.7-2,3.8-7,10
		c-3.5,4.4-8,9.7-8,9.7c-3.1,3.7-4.8,5.6-5.4,6.5c1.2-0.8,2.4-1.6,3.7-2.2c2.2-1.1,4.4-2.2,6.5-3.3c6.9-4.9,12.4-9,16.8-15.2
		c9.4-13.4,11-29.2,9.4-29.7c-1-0.4-2.7,5.3-9.3,12.5c-4,4.4-11.7,11.2-13.5,9.8c-2.1-1.6,1.8-14.5,11.2-22c7.1-5.6,15-6.2,14.7-8
		c-0.3-1.7-7.2-2-11.1-2.2c-3.5-0.2-7.7-0.3-12.9,0.6c-2.7,0.5-4.1,1-6.9,1c-4,0-4.5-1.1-6.5-0.5c-3.5,1-2.9,5-7.1,7
		c-2.6,1.3-4.9,1.5-8.8,1.4c-2.5,0-9.6-0.2-11-3.6c-0.7-1.6,0.1-3.4-0.1-3.4c-0.3-0.1-1.4,2.4-2,4.9c-0.7,2.7-1.3,6.8-0.3,12.8
		c1.3,7.1,3.3,7.5,5,15.8c0.7,3.4,0.3,3,1.1,7.5c1.1,6.1,2,7.5,3.4,13.3c1.5,0.9,2.8,1.9,4.4,2.5
		C161.5,270.5,165.6,270.6,169.5,270.5z"/>
	<path class="st15" d="M192.7,186.8c0.1,3.8,3.6,7.1,7.1,8.3c7.1,2.5,16.4-3.1,16.9-10c0.3-3.7-1.9-7.6-5.2-9.3
		C204.4,172.1,192.5,179.6,192.7,186.8z"/>
	<path class="st16" d="M159,191.5c0.8-0.1,1.4,0.9,1.9,1.5c1.3,1.6,3.2,2.3,6.9,3.6c3.5,1.2,6.1,1.3,10.2,1.7
		c12.4,1.1,11.9,2.3,17.2,1.9c2.9-0.3,7.3-0.7,11.9-3.4c6.4-3.8,9.6-10,9-10.6c-0.6-0.6-4.9,5.6-11.6,5.4c-2.3,0-2.8-0.8-6.6-1
		c-3.2-0.2-4.4,0.3-7.7,0.5c-6.2,0.4-6.2-0.9-11.4-0.5c-5.8,0.4-6.5,2.1-10.7,1.5c-1.7-0.2-6-0.9-7.5-4.1c-1.4-3.2,0.8-7,1-7
		c0.1,0-0.9,2.1,0.1,3.7c0.4,0.7,1.1,1.2,5.8,2.2c2.4,0.5,4.1,0.9,6.7,1.1c1.1,0.1,2.9,0.3,4.9,0.3c2,0.1,14.3,0.4,14.6-1.3
		c0.3-1.9-14.6-3.3-27.7-6.8c-0.9-0.2-3.1-0.9-5.4,0.1c-3.3,1.3-4.5,4.9-4.8,5.7c-1.2,3.7,0.1,7.7,0.9,7.8
		C157.5,194,157.8,191.6,159,191.5z"/>
	<path class="st17" d="M92.2,160.5c-0.3-0.4-1.8-5.2,0.8-10c1.9-3.5,3.7-2.7,5.9-6.8c1.1-2,1.2-3.3,2.8-4.9c1.7-1.7,4.1-2.6,4.5-2.2
		c0.3,0.4-0.5,1.8-1.1,2.6c-0.7,1.1-1,1.2-1.2,1.9c-0.3,1,0,1.7,0.1,2.7c0.2,1.7-0.3,2.6-0.6,4.1c-0.6,2.9,0.6,3.7,1.8,11
		c0.3,2.2,0.2,1.8,0.4,3.3c0.7,4,1.7,5.7,2.8,9.3c1.9,5.9,0.8,6,2.5,9.3c1.1,2.3,2.6,5.2,5.6,6.3c3.6,1.4,7.4-0.6,8.6-1.3
		c0.9-0.5,2.4-1.8,5.3-4.5c2.7-2.5,3.6-3.6,4.4-4.7c1.2-1.8,1.9-3.3,2-3.7c0.4-1,0.7-2.2,1.4-4.8c0.5-1.9,0.7-2.8,0.8-3.3
		c0.3-1.9,0.6-3.8-0.5-5.4c-1-1.6-2.9-2.4-4.1-2.8c-1.3-0.5-2.5-0.7-4.3-1c-2.5-0.4-3.8-0.3-3.9-0.7c-0.1-0.5,2.8-0.5,4.1-2.5
		c0.5-0.8,0.4-2.1,0.3-4.8c-0.1-2.5-0.2-3.8-0.8-4.1c-1.1-0.6-2.4,1.6-4.3,1.1c-1.1-0.3-2-1.3-1.9-2.1c0.1-0.5,0.5-0.6,1.1-1.3
		c0.3-0.3,2.1-2.2,1.6-3.7c-0.4-1.2-2.3-1.9-3.4-1.4c-1,0.5-0.7,1.9-2,2.6c-0.7,0.4-1.5,0.5-2.2,0.3c-1.3-0.4-2.1-2.1-2-3.3
		c0.2-2.5,4-4.5,7.1-4.2c0.3,0,2.2,0.3,3.7,1.6c0.8,0.7,1.2,1.5,1.6,2.2c0.6,1.1,1.6,2.4,3.6,5c0.9,1.2,2.9,3.8,5.7,6.6
		c1.3,1.3,1.3,1.1,2.2,2c1.3,1.3,2.9,3.1,3.9,5.7c0.8,2,0.9,3.7,1,5.3c0.1,0.9,0.1,3.2,0.1,4.7c0,0.5,0,1,0,1.6c0,0,0,0.4,0.1,1.4
		c0,0.1,0,0.4,0.2,0.7c0.2,0.3,0.3,0.4,0.4,0.5c0,0,0.2,0.1,0.4,0.1c1,0,3.6-5.3,3.6-5.3c1.5-3.1,1.4-2.9,1.6-3.4
		c2.7-6.5,4.7-24.2,7.2-27.3c1.2-1.5,2.5-1.7,2.5-1.7c0.6-0.1,1.2,0,1.2-0.1c0,0-0.4-0.1-0.9,0.1c0,0-0.4,0.2-0.8,0.7
		c-1,1.7,0.3,9.4,0.3,9.4c0.3,1.9,0.4,3.7,0.6,5.6c0.5,5.4-0.8,13.7-4.1,21.4c-2,4.6-5.3,8.9-11.8,17.3c-1.9,2.5-4,5.1-7.5,7.1
		c-2.5,1.4-5.7,2.5-8.3,2.6c-0.6,0-2.4,0.1-3.3,0.1c-1.1,0-2,0-3,0c-0.9,0-1.9-0.1-2.8-0.3c-0.3-0.1-0.6-0.1-1.1-0.3
		c-0.6-0.2-0.8-0.3-1.1-0.4c-0.2-0.1-0.4-0.3-0.5-0.4c-0.4-0.4-0.6-0.7-0.7-0.8c-0.3-0.4-1-1.2-2.3-2.6c-1-1.1-1-1-2.5-2.6
		c-0.8-0.8-1.1-1.2-1.5-1.7c-0.3-0.4-0.4-0.6-1.1-1.6c-0.5-0.7-0.7-1.1-1-1.5c-1.5-2.3-2.3-3.8-3.6-5.6c-0.8-1.2-1.4-1.9-2.6-3.4
		c-2-2.6-2.9-3.5-4.5-5.4c-1.1-1.3-2.5-3.2-4.2-5.6c-0.5-0.7-0.9-1.3-1.4-2c-0.1-0.1-0.2-0.3-0.4-0.5
		C92.5,161,92.3,160.7,92.2,160.5z"/>
	<path class="st18" d="M133.7,168.2c0.9-0.7,2.5-1.9,2.6-3.7c0.1-1.4-0.6-3.3-1.8-4.6c0,0-0.1-0.1-0.1-0.1c-2.2-2.3-9.4-2.5-9.4-2.5
		c-7.9-0.2-9.6-0.1-11.7,0.2c-3.9,0.5-5.3,1.2-5.9,2.5c-0.2,0.4-0.5,1.2,0.1,3.5c1.2,4.3,3.5,7.4,4.5,8.7c2.3,2.9,3.5,4.3,5,4.9
		C120.5,178.3,124.9,174.9,133.7,168.2z"/>
	<path class="st19" d="M179.9,153.7c0.8,0.3,1.1-0.4,3.7-1.3c1.1-0.4,7.4-2.8,13.5-1c3.5,1,4.1,2.6,5.9,2.1c3.1-0.8,3.9-6.4,4.1-7.7
		c0.8-5.3,0.6-17.7-7.9-20.8c-6.2-2.3-13.3,1.7-16.9,5.6C174.8,138.7,176.4,152.5,179.9,153.7z"/>
	<path class="st20" d="M197.8,129.6c-0.3,0.9,0.2,1.4-0.2,1.9c-0.3,0.4-0.7,0.2-1,0.6c-0.3,0.3-0.2,0.8-0.1,1.7
		c0.3,2.1,0.4,2.5,0.2,2.6c-0.3,0.2-1.3-0.6-2-1.7c-0.3-0.5-1.4-2.3-0.5-3.9c1-1.8,3.7-2.1,3.9-1.7
		C198.1,129.1,197.9,129.2,197.8,129.6z"/>
	<path class="st21" d="M182.3,169.8c-0.6-1.6,6.6-4.3,9.5-11.8c0.7-1.8,0.7-2.7,0.4-3.4c-0.5-1.1-1.7-1.6-3-1.9c-4.3-1.2-8-1-8.2-1
		c-10.8,0.7-12.4-0.6-13.7,1.2c-1.6,2.2,0.3,4.5-0.2,9.1c-0.6,5.8-6.9,7.2-6.4,11.6c0.2,1.3,0.7,2.4,0.1,3.6
		c-0.8,1.5-2.6,1.1-3.3,2.7c-0.4,1.1,0.2,1.7-0.4,3c-0.4,0.7-0.6,0.7-1.1,1.4c-0.7,1.2-0.5,2.2-0.7,3.7c-0.2,1.7-0.7,2.2-1.3,3.8
		c-1.2,3.6-0.9,8,0,8.2c0.9,0.2,3.8-3.5,3.5-7.4c-0.2-2.9-2.1-4.6-1.1-6.5c0.5-1,1.2-0.6,2.3-2c1.4-1.6,0.9-2.8,2.1-4.9
		c0.8-1.3,1.7-2.1,2.4-2.6c1.1-0.9,3.6-2.6,8.9-2.6c1.8,0,5.8,0.2,14.6,3.9c8.3,3.5,10,5.6,15.1,5.6c3.6,0,6.9-1.1,6.9-1.4
		c0-0.3-2.6,0.2-6-0.4c-4.2-0.8-8.9-3.2-8.8-5.2c0.1-1.2,2-1.2,4.2-3.8c1-1.1,2.7-3.6,2-4.5c-0.7-0.9-3.4,0.6-8.4,1.6
		C191.2,169.9,183,171.5,182.3,169.8z"/>
	<path class="st22" d="M201.1,165.9c2.6,0.3,4.2,1.6,8.7,5.6c11,9.9,17.1,15.5,16,17.1c-0.7,1.1-3.7-1.2-8.9-0.1
		c-4.1,0.9-7,3.4-7.2,3.1c-0.2-0.3,2.4-1.5,3.8-4.4c1.2-2.4,1.6-6-0.1-7.3c-0.9-0.7-2.4-0.9-3.1-0.2c-0.6,0.6-0.4,1.7-0.4,1.8
		c0.2,1.2,1.2,1.5,1.3,2.1c0.2,1.3-3,3.1-5.5,3.7c-7.2,1.5-18.6-5.4-17.7-12.6C188.6,169.7,195.5,165.2,201.1,165.9z"/>
	<path class="st23" d="M204.3,166c1.2-2.5,2.7-3,3.3-5.9c0.3-1.3,0.2-2,0-2.4c-0.7-1.8-2.9-2.3-4.3-2.7c-8.9-2.5-9.9-4.9-12-3.7
		c-2.7,1.5-0.7,5.3-3.7,10.9c-0.4,0.7-3.8,6.7-10.1,8.7c-5.5,1.7-9.7-0.6-13.4,2.7c-0.6,0.6-1.1,1.2-2.1,2.6
		c-2.4,3.2-4.3,5.7-3.5,7.5c0.8,2,4.5,2.6,5,1.9c0.3-0.5-0.7-1.3-0.4-2c0.5-1.3,5-0.7,9.1-0.1c5.6,0.8,8.4,1.3,10.2,2.9
		c0.7,0.6,1.4,1.5,2.9,2c1.3,0.4,2.2,0.1,4.1,0c1.7-0.1,1.7,0.1,4.8,0.3c2.2,0.1,1.7,0,9-0.3c1.8-0.1,2.5-0.1,3.6-0.5
		c2.3-1,3.6-3.1,3.3-3.4c-0.3-0.4-2.6,2.5-5.1,1.9c-1.9-0.5-1.9-2.5-4.9-4c-1.4-0.7-1.6-0.3-3-0.9c-3.6-1.6-5.6-5.6-5.2-6
		c0.2-0.2,1.1,0.9,3.6,2.4c2.2,1.3,4.5,2.7,7.4,3c2.7,0.3,3.9-0.5,5.5,0.6c1.2,0.8,1.6,2.1,2,2c0.4-0.1,0.5-1.8-0.3-2.6
		c-1.1-1.2-2.9,0.1-5.6-1c-0.6-0.3-2.2-0.9-2.6-2.2c-0.4-1.1,0.3-2.1,0.9-3.5C204.3,169.8,202.7,169.2,204.3,166z"/>
	<path class="st24" d="M176.5,206.9c-0.1-1.1,4.7-3.3,9.8-3.4c4.3-0.1,6,1.3,8.8,0c1.8-0.9,1.3-1.6,4.2-4c3.5-2.9,4.8-2.3,6.6-4.6
		c2-2.5,1.8-5,2.7-5c0.8,0,1.6,2.1,1.7,4c0.1,2.3-1,4.1-3.2,7.7c-1,1.7-1.6,2.6-2.3,3.2c-1.8,1.6-3.9,1.9-6.4,2.2
		c-11.7,1.4-12.6,1.5-14.7,1.4C181.1,208.1,176.6,207.8,176.5,206.9z"/>
	<path class="st25" d="M154.3,222.2c1-2.2,5.6-0.7,11.3-2.6c3.6-1.2,3.4-2.4,7.8-4.5c4.3-2.1,8-2.7,11.6-3.2
		c9.6-1.4,9.6,1.1,17.7-0.3c1.2-0.2,2.7-0.5,3.2,0.2c0.8,1.1-1.1,3.8-5.4,9.4c-5,6.3-8.8,10.8-8.9,10.9
		c-9.8,11.5-11.9,14.3-15.8,14.5c-2.4,0.1-2.6-0.9-5.6-0.7c-6,0.5-8,4.9-10.7,3.9c-3-1-2.8-8.2-2.7-9.7c0-1.1,0.1-2.9,0.8-5.1
		c1.3-4,3.4-5.2,2.8-6.7c-0.7-1.8-4.3-0.9-5.6-3.4C154.5,224.5,153.8,223.2,154.3,222.2z"/>
	<path class="st26" d="M202.4,237.8c1.8,0.8,9.9-11.9,8.7-12.9c-0.4-0.4-2.1,1-2.6,0.5c-0.9-0.8,3.1-5.9,2.7-6.1
		c-0.3-0.2-2.9,2-5.1,5.4C202.6,230.2,201.2,237.3,202.4,237.8z"/>
	<path class="st27" d="M185.9,262.3c5.1-2.7,10.2-5.5,15.5-7.8c1.4-2.4,2-6.2,4.9-13.2c3.7-9.1,7.4-14.2,7-14.5
		c-0.4-0.2-3.4,4-8.3,10.9c-6.2,8.7-6.1,9-8.2,11.2c-3.9,4.2-5.1,3.9-11.7,9.9c-1.8,1.7-6.5,5.9-7.8,8
		C180.1,265.2,183.1,263.8,185.9,262.3z"/>
	<path class="st27" d="M215.5,228c0.8-0.2,1,2.6,4.4,7c2.9,3.7,4.7,4.2,5.4,7c0.7,2.8-0.3,5.8-1,5.9c-0.5,0-0.5-1.1-2-3.6
		c-0.6-1-1.6-2.4-3-3.8c-0.6-0.5-1-1-1.4-1.3c-0.3-0.1-0.6-0.3-1-0.6C213.4,235.6,214.2,228.2,215.5,228z"/>
	<path class="st28" d="M216.2,199.9c0,0-0.1,0.9,0.1,1.7c0.1,0.4,0.4,2.6,1.7,3.5c1.6,1.2,3.4-0.5,5.6,0.2c3.2,1,5.2,6.3,3.9,7.7
		c-0.8,0.8-2.3-0.5-7.5-1.4c-4.3-0.7-6.9-0.4-7.1-1.4c-0.1-0.6,1.1-0.9,2.2-2.4C217.4,204.7,216.2,199.9,216.2,199.9z"/>
	<path class="st29" d="M156.1,205.5c0.9-0.7,3.9,4.4,8.5,4.6c2.9,0.1,4.5-1.7,5.4-0.9c1,0.9,0.3,4.2-1.7,5.4
		c-1.7,1.1-3.9,0.4-7.8-0.7c-0.6-0.2-0.2-0.1-3.7-1.2c-2.7-0.8-4-1.3-4.4-1.3c-0.6-0.1-1.3-0.2-1.2-0.4c0-0.3,3.9,0.5,5.1-1.2
		C157.3,208.4,155.5,206,156.1,205.5z"/>
	<path class="st27" d="M219,248c-0.1,0.4-0.2,0.7-0.3,0.9c1.4-0.2,2.8-0.3,4.2-0.4c-0.5-1.1-1.1-2.1-1.2-2.4c-1.8-3.1-4.5-5-4.9-4.7
		C216.5,241.8,219.6,244.6,219,248z"/>
	<path class="st30" d="M152.7,265.9c1.9,0.9,3.5,2.3,5.5,3.1c0.5,0.2,1.1,0.4,1.7,0.6c-0.6-7.6-4.9-14.7-6.9-14.4
		c-1,0.2-0.5,2.2-3.2,6.5c-0.8,1.2-1.4,2-1.8,2.6C149.6,264.7,151.2,265.2,152.7,265.9z"/>
</g>
<g id="Layer_8">
	<path class="st31" d="M198.2,129c0.1,0.5-2.7,0.7-3.5,2.6c-0.6,1.6,0.6,3.2,0.1,3.5c-0.6,0.4-1.9-1.8-4.1-2.1
		c-0.7-0.1-1.9,0-4.7,1.9c-2.9,2-5.7,5.3-6.5,6.3c-0.9,1-1.2,1.6-1.7,1.5c-1.3-0.2-2.7-4.3-1.2-6.3c0.9-1.3,2-0.7,4-2.1
		c2.3-1.7,1.7-3.3,3.6-4.7c0.8-0.6,1.5-0.8,7.7-0.9C196,128.5,198.1,128.5,198.2,129z"/>
	<path class="st32" d="M196.8,136.9c1.1-0.8,2.7,1.9,7,3c1.9,0.5,3,0.3,3.5,1.2c0.4,0.8-0.1,1.6-0.3,3.8c-0.1,1.7,0.4,2.4,0.1,2.6
		c-0.5,0.3-1.4-1.6-4-3c-1.2-0.6-2.3-1-3.4-2.3c-0.2-0.2-0.7-0.9-0.6-1.1c0.5-0.6,5.9,3.4,6.1,3.1c0.1-0.2-1.3-1.9-3.4-2.9
		c-1.7-0.8-3.2-1.1-3.2-1.1c-1.2-0.3-1.7-0.2-2.1-0.7C196.1,138.8,196.1,137.3,196.8,136.9z"/>
	<path class="st33" d="M192.7,140.9c-0.2-1.2-2.3-1.7-2.4-1.7c-2.1-0.5-4,0.8-5.6,1.9c-2.3,1.6-3.4,3.4-3.7,4
		c-0.8,1.4-1.8,3.3-1.1,4.4c0.8,1.1,3,1.2,4.5,0.4c1.7-0.8,1.4-2.1,3.2-4.3C190.2,142.5,192.9,142.2,192.7,140.9z"/>
	<path class="st34" d="M200,127.2c-2.4,0.1-3.6-0.2-5.1-0.3c-0.9,0-3.9-0.2-7,1.3c-0.8,0.4-2.2,1.1-3.6,2.4
		c-1.2,1.3-1.2,1.9-3.1,4.3c-1.6,1.9-2.2,2.3-2.8,2.4c-0.9,0.2-2.3,0.1-3-0.8c-0.9-1.2-0.1-3.3,1-4.3c0.8-0.6,1.4-0.2,2.4-0.9
		c0.3-0.2,0.4-0.4,1.5-2.1c1.4-2.2,1.5-2.3,1.7-2.5c0.6-0.7,1.2-1.1,2.2-1.8c0.8-0.6,1.6-1,2-1.2c0.7-0.3,1.2-0.6,1.8-0.8
		c0.7-0.2,1.3-0.3,2.6-0.3c1.8-0.1,3.1-0.1,3.1-0.1c2.1,0,4.2,0.1,6.3,0c1.6-0.1,2.3-0.2,2.7,0.3c0.8,0.8,0.7,2.7-0.3,3.6
		C202,127,201.3,127.1,200,127.2z"/>
	<polygon class="st35" points="228.1,119.6 229.6,117.9 230.1,116.3 230.1,114.8 226.9,116.1 225.1,119.6 226.3,120.4 227.9,120 	
		"/>
	<path class="st35" d="M221,124.3c0-0.3,0.3-2.8-0.4-3.1c-0.8-0.3-1.7,2-4.5,4.9c-3.1,3.2-4.2,2.7-5.4,4.9c-1,1.9-1.1,3.8-1.3,7
		c-0.2,2.8-0.4,4.2,0,4.3c0.7,0.3,2-3,5.6-7.9C218.2,129.9,220.5,128.2,221,124.3z"/>
	<path class="st36" d="M175.7,135.7c-0.2,0-0.4-0.1-0.5-0.2c-0.1-0.1-0.2-0.2-0.3-0.2c-0.1-0.1-0.2-0.2-0.2-0.2
		c-0.1-0.1-0.4-0.4-0.7-0.6c-0.1-0.1-0.3-0.2-0.5-0.3c-0.1,0-0.2-0.1-0.3-0.2c-0.2-0.1-0.4-0.2-0.5-0.3c-0.6-0.2-0.9-0.4-1.1-0.5
		c-0.2-0.2-0.1-0.1-0.6-0.4c-0.3-0.2-0.4-0.3-0.8-0.5c-0.2-0.1-0.3-0.2-0.4-0.3c-0.4-0.3-0.8-0.5-1.1-0.7c-0.8-0.1-1.6-0.3-2.4-0.4
		c-0.8,0-1.6,0.1-2.4,0.1c-0.1,0.1-0.3,0.2-0.5,0.3c-0.4,0.2-0.5,0.2-0.7,0.3c-0.2,0.1-0.4,0.4-0.4,1c-0.1,1-0.2,2-0.4,2.9
		c0,1.3,0.1,2.6,0.1,4c0.7,1,1.4,2,2.1,3c0.5,1,1,2,1.5,3c0.6,1.1,1.2,2.3,1.9,3.4c0.6,1.2,1.1,2.4,1.7,3.7c0.1,0.5,0.2,0.9,0.2,1.4
		c0.7-0.9,1.3-1.8,1.5-1.7c0,0,0,0,0,0c0.1,0.3,4.2,0.5,4.2,0.5l1.1,0v-5.4l1.1-4.9l0.8-1.1l-0.8-2.1
		C176.7,138,176.2,136.8,175.7,135.7z"/>
	<path class="st37" d="M173.1,135.4c-0.8-0.8-2-2.1-4-2.6c-1-0.3-2.2-0.6-3.4,0c-1.5,0.8-1.8,2.6-1.9,2.7c-0.1,0.9,0.2,1.1,1.3,4.3
		c0.7,2.1,0.7,2.1,1,2.7c0.8,1.5,1.5,1.8,2.2,2.9c1,1.6,0,2.5,1,4.3c0.6,1,1.3,1.6,1.4,1.7c1.4,1.1,3.7,1.5,4.5,0.6
		c0.4-0.5,0-1-0.1-3.3c-0.1-1.3-0.1-2.9,0.4-4.7c0.5-1.5,0.8-1.3,0.9-2.2c0.2-1.7-1-3.3-2.3-5.1C173.9,136.4,173.6,136,173.1,135.4z
		"/>
	<path class="st38" d="M206.5,129.4c0.3-1.1,1.6-1,3.4-2.3c0.5-0.4,0.3-0.4,3.2-3.6c0.9-1,1.4-1.5,1.5-1.7c1.2-1.2,2.8-2.4,3.6-3.2
		c0,0,0.3-0.3,0.6-0.6c0.3-0.3,0.4-0.4,0.6-0.6c0.3-0.4,0.6-0.7,0.6-0.7c0.4-0.5,1.4-1.4,2.9-2.1c1-0.5,2.4-1.2,4.4-1.2
		c0.7,0,2.1,0,2.6,0.8c0.2,0.3,0.3,0.7,0.1,1c-0.2,0.3-0.6,0.3-1,0.3c0,0,0,0,0,0c-1,0-2,1-2,1c-1.2,1.1-1.9,2.5-3,3.6
		c-2.1,2.1-3.7,1.3-5,3.3c-0.8,1.2-0.2,1.6-1,2.7c-1.2,1.8-2.7,1.3-4.2,2.9c-0.8,0.9-0.5,1.2-1.7,4.2c-0.1,0.3-2.2,5.4-2.9,5.2
		c-0.4-0.1,0.2-1.4-0.5-3.4c-0.5-1.5-1.2-1.9-1.8-3.9C206.5,130.3,206.3,129.8,206.5,129.4z"/>
	<path class="st39" d="M209.3,142.3c0.3,0.2,2.8-2,4.9-4.7c2.4-3,1.8-3.4,4-5.9c2-2.3,3-2.4,3.6-4.2c0.3-1,0.4-2,1.3-3.1
		c0.4-0.5,0.6-0.6,1.7-1.4c1.5-1.1,3.5-2.7,3.3-3.2c-0.2-0.4-1.7,0.4-2.2-0.1c-0.6-0.7,1.4-3.1,1.1-3.3c-0.2-0.2-1.5,1.4-4,3.4
		c-1.6,1.3-2.2,1.6-2.7,2.7c-0.6,1.3,0.1,1.5-0.5,2.9c-0.6,1.5-2,2.7-3.2,3.7c-0.4,0.4-0.6,0.5-1,0.9c-0.9,1-1.4,1.9-1.7,2.4
		c-0.9,2-1.5,3.5-1.9,4.6C210.6,140.6,209,142.1,209.3,142.3z"/>
	<path class="st40" d="M195.9,136.1c0.2-0.4-2-2.6-5.1-3.3c-0.8-0.2-1.6-0.3-2.7-0.1c-1.5,0.3-2.4,1.1-5.1,3.8
		c-1.5,1.5-1.5,1.5-3.6,3.6c-2.5,2.4-2.5,2.3-2.8,2.8c-1.4,2.4-1,5.2-0.9,6.4c0.2,1.5,0.4,1.5,0.4,2.7c0,2.6-0.6,4.2-0.6,4.2
		c-0.1,0.4-0.3,0.7-0.1,0.9c0.3,0.3,2-0.3,2.9-1.2c1.8-1.8,0.3-4.1,1.2-8.9c0.4-1.9,0.8-4.1,2.6-5.9c0.4-0.4,2.5-2.4,5.5-2.5
		c1.9-0.1,3.2,0.7,3.6,0.2c0.6-0.8-1.8-3-1.2-3.8C190.7,133.9,195.6,136.6,195.9,136.1z"/>
	<path class="st41" d="M207.4,157c0.4-0.2,0.4-0.7,0.4-0.9c0.3-3,0.7-6.1,0.9-9.1c0.2-2.1,0.4-1.9,0.5-4.1c0.1-1.4,0.2-3.4,0-5.4
		c-0.5-4.3-2.5-4.4-4.4-10.5c-0.5-1.7-1.1-3.9-1.7-3.9c-0.3,0-0.3,0.4-1.4,2c-0.9,1.5-1.2,1.5-1.3,2c-0.2,1,0.5,1.7,1.9,3.9
		c1.6,2.5,2.4,3.8,2.6,5.2c0.2,1.5-0.3,1.9,0.3,3.1c0.6,1.4,1.4,1.4,1.7,2.6c0.2,1.1-0.4,1.4-0.4,3.2c0,1.2,0.3,1.3,0.1,2
		c-0.3,1.4-1.7,2.9-2.9,2.7c-0.9-0.1-1.1-1.3-2.9-4.8c-2-3.9-2.7-4.4-3.1-4.6c-2-1.2-4.3-0.8-5.4-0.6c-0.5,0.1-2.9,0.6-3,1.5
		c-0.1,0.8,1.8,1.7,3.3,2.4c1.7,0.8,2.8,0.9,3.6,2c0.4,0.5,0.7,1.3,0.5,1.5c-0.5,0.5-3.1-2.2-4.8-1.3c-0.9,0.4-1,1.5-1.5,1.4
		c-0.7-0.1-0.6-2.2-1.5-2.6c-0.9-0.3-2.4,1.3-3.4,2.5c-1.5,1.7-1.7,2.5-2.5,2.6c-1.1,0.1-2.5-1.3-2.6-2.6c0-0.9,0.6-1.4,0.4-1.7
		c-0.1-0.1-0.4-0.1-2.6,0.6c-1,0.3-1.7,0.6-1.7,1c0,0.2,0.1,0.3,0.2,0.6c0,0.4-0.1,0.7-0.2,0.8c-0.3,0.6,0,1,0,2.3
		c0,1.2-0.2,1-0.1,1.7c0.2,1.6,1.4,1.9,1.2,2.8c-0.1,0.6-0.9,1.3-1.6,1.3c-0.3,0-0.5-0.1-0.6,0.1c-0.2,0.3,0.4,1.4,1.2,1.8
		c1.4,0.6,3.2-0.6,3.9-1.1c1.1-0.8,1.8-1.6,2.5-2.6c1.3-1.6,1.3-2.2,2.2-2.6c0.9-0.4,1.8-0.2,3.1,0.2c3.3,0.9,5.4,1.6,6.7,2
		c2.9,0.9,2.4,0.4,6,1.4c1.7,0.5,3.5,0.4,5.2,1C206.4,157,207,157.3,207.4,157z"/>
</g>
<g id="Layer_2">
	<path class="st42" d="M105.2,77.5c-2.9-1-7.4,3.1-8.1,3.7c-0.9,0.8-1.7,1.8-2,1.6c-0.4-0.3,1.5-3.2,1-3.6c-0.6-0.5-4.9,4-6.5,5.6
		c-2.9,3.1-4.4,4.6-5.3,6.3c-1.1,2.2-1.4,4.2-1.9,8.2c-0.5,4.1-0.8,6.3,0,9c0.6,2,1.1,2.3,1.7,4.8c0.3,1.4,0.5,2.6,0.5,5.9
		c0.1,8-0.5,7.9,0.1,10.6c0.4,1.8,0.9,3,1,5.4c0.1,1.5,0,4.1-0.5,4.2c-0.6,0.1-1.3-3.3-3.5-8.9c-2.5-6.3-3-5.5-3.5-8.1
		c-1.1-5.6,1.6-7.9-0.3-12c-1.2-2.5-2.3-1.9-3.4-4.3c-1.2-2.6-0.3-4.3,0.9-12.9c0.7-5.3,0.7-7.1-0.5-8.4c-1.4-1.5-3.5-1.5-3.6-2.5
		c0-1.3,4.3-2.1,4.2-3.1c-0.1-1-3.8-0.3-5.8-2.6c-2.3-2.6-0.9-7.8,0-7.9c0.4-0.1,0.7,1.1,1.5,1.2c0.9,0.1,2-1,1.9-1.9
		c-0.1-0.9-1.5-0.7-1.9-1.7c-0.5-1.2,1-3.2,2.6-4.3c1.5-0.9,2.2-0.5,3.1-1.4c1.2-1.2,0.3-2.7,0.9-4.5c0.9-3.2,5.4-4.5,8.9-5.6
		c3.5-1.1,4.2-0.6,8.9-1.8c0.4-0.1,3.8-1,7-2.3c6-2.5,6.8-4.6,11.9-7.6c3.8-2.2,9.5-5.5,16.4-4.9c4.2,0.4,5.9,2,11.9,2
		c2,0,3.2-0.2,6-0.1c0.6,0,4.2,0.2,8.3,0.9c2.9,0.5,10,1.9,17.3,6.6c5.2,3.4,4,4.3,11.4,9.6c0.9,0.7,3.2,2.3,5.7,5
		c2.2,2.5,3.5,3.8,3.9,5.9c0.7,3.4-2.3,4.7-2,9.3c0.1,1,0.3,2.2,0.6,3.5c0.7,3,1.1,3.6,1.1,5.2c0,0.8,0,2.4-0.9,4
		c-0.6,1.1-1,1.1-2.3,2.7c-0.1,0.2-1.3,1.6-2,3c-0.3,0.6-0.9,1.9-1.4,5.6c-0.1,0.7-0.1,1-0.6,7.9c-0.1,1.4-0.3,3.7-1,4.7
		c-0.1,0.2-0.5,0.6-0.6,1.3c-0.1,0.5,0.1,0.9,0,1c-0.2,0.1-0.4-0.4-1-0.6c-0.6-0.2-1.1,0-1.2,0.1c0,0-0.5,0.2-0.8,0.7
		c-0.6,0.9-0.1,1.8-0.1,3.3c0,0.2-0.1,2.2-1.3,3.7c-0.9,1.1-1.4,0.7-2.5,1.9c-1.1,1.2-0.8,1.8-2,3.3c-0.9,1.2-1.2,1-2.1,2.1
		c-1.1,1.5-0.7,2.3-1.8,3c-0.1,0.1-0.9,0.6-1.7,1.1c-0.1,0-0.4,0.2-0.7,0.6c-0.2,0.2-0.3,0.3-0.4,0.5c-0.2,0.4,0,0.7-0.1,0.8
		c-0.2,0.2-0.8-0.7-1.9-1.2c-0.7-0.4-1.4-0.5-2-0.6c-0.1,0-0.3,0-0.3,0c-0.2,0-0.4,0-0.6,0c-0.4,0-0.4,0-0.7,0c-1.1,0-1.7,0-2.2,0.3
		c-0.1,0-0.2,0.1-0.2,0.1c0,0,0.3-0.2,0.7-0.5c0.3-0.4,0.5-0.7,0.6-0.8c0-0.1,0.2-0.4,0.3-0.7c0.1-0.3,0.2-0.4,0.2-0.5
		c0.2-0.3,0.6-0.5,0.7-0.5c0.2-0.1,0.5-0.1,0.7-0.2c0.5,0,1.9-0.9,2.7-2.1c1.2-1.6-1.3-3.5-1.4-7.9c-0.1-3.4,0.3-4.8-0.4-7.4
		c-0.2-0.7-1.1-3.8-2.2-3.8c-0.5,0-1,0.7-1,0.8c-0.6,0.9-0.3,1.9-0.5,1.9c-0.4,0.1-2.4-2.6-2.3-6c0.1-2.2,0.9-2.5,0.8-4.3
		c-0.1-1.5-0.7-1.9-2.6-5c-4-6.7-3.5-8.5-3.2-9.2c0.3-0.7,0.8-1.2,0.6-1.4c-0.4-0.4-2.5,2-4.6,1.5c-1.2-0.3-1.1-1.2-3-2.6
		c-2.1-1.5-4.1-1.8-4-2.3c0.1-0.3,1.2-0.1,2-0.9c0.6-0.6,0.3-1,0.8-1.7c0.8-1.2,1.9-0.8,3-2c0.1-0.2,1-1.3,0.6-2.3
		c-0.2-0.4-0.6-0.9-1.1-0.9c-1-0.1-1.9,1.1-2.3,1.5c-1.4,1.8-6.4,7.3-10.6,7.2c-2.5-0.1-4.6-1.4-4.6-1.4c-1-0.6-1.8-1.5-2.2-1.3
		c-0.2,0.1-0.1,0.6,0.1,1.2c0.5,2,1,2.9,1.3,4c0.4,1.4,0.5,2.6,0.5,3.4c0,0,0.1,1.6-0.3,3.3c-0.1,0.7-2.3,10.5-10.6,13.7
		c-3.9,1.5-7.9,1.1-9.4,0.8c-0.3-0.1-1.6-0.3-1.6-0.3c0,0,0.7,0.2,1.5,0.2c0,0,0.8,0.1,1.7,0c1,0,7.4-1.4,9.8-7
		c1.9-4.4,0.8-9.6-1.5-12.4c-0.7-0.9-1.8-1.9-2.6-3.8c-0.9-2.2-0.8-4.2-1.1-4.2c-0.4,0-0.4,2.2-2.1,4.3c-0.6,0.7-1.3,1.4-1.6,1.2
		c-0.5-0.3,1.4-3.4,0.7-4c-0.5-0.4-1.9,1.3-2.9,0.8c-1.1-0.5-0.6-3.1-1.5-3.4c-0.5-0.1-1.2,0.6-1.5,1.1c-0.7,1.3-0.2,2.8,0.1,3.6
		c1,2.5,2.9,3.7,2.8,3.8c-0.1,0.1-1.7-0.9-3.6-2.7C106.2,79.1,106.6,78,105.2,77.5z"/>
	<path class="st43" d="M163.5,141.5c1.2,2,1.9,3.4,2.1,4c1,2.3,1.7,3.2,2.6,4.9c0.3,0.7,1.3,2.1,1,3.4c0,0.1-0.2,0-0.9,0.2
		c0,0-0.6,0.2-0.8,0.2c-0.9,0.2-0.6,1.8-0.2,4.5c0.6,4.3,0.9,4.7,0.5,5.5c-0.6,1.2-1.4,1.2-2.6,2.4c-0.4,0.5-0.6,0.8-0.8,1.5
		c-0.8,2.5-1.2,3-2.8,4.9c-1.3,1.6-0.6,2.2-1.7,3.8c-0.8,1.1-1.7,3.2-3.6,5.8c-2,2.8-6.4,5.1-6.4,5.1c-1.7,1.1-3.1,1.6-4.1,1.9
		c-0.4,0.1-2.1,0.6-3,1c-0.3,0.1-0.7,0.3-1.1,0.4c-0.6,0.2-0.6,0.2-0.6,0.2c-0.1-0.2,1.8-1.7,3.7-4.1c1.8-2.2,3.5-4.5,5.3-6.9
		c1.5-2,2.9-3.9,4.2-5.8c1.7-2.7,2.9-5.1,3.7-7.1c1.5-3.7,2.2-6.7,2.6-8.5c0.3-1.2,0.5-2.3,0.6-3.1c0.3-1.9,0.4-3.3,0.5-4.3
		c0.1-1.1,0.1-1.8,0.1-2.1c0-0.7-0.1-1.3-0.1-2c-0.1-0.9-0.2-1.8-0.2-2.7c0-0.5-0.1-1-0.1-1.5c-0.1-0.5-0.1-1-0.2-1.5
		c-0.1-0.6-0.2-1.1-0.4-1.7c-0.5-1.6-0.8-3-0.9-3.9c-0.1-0.6-0.1-1.1,0-1.8c0.1-0.8,0.5-1.3,0.8-1.9c0.4-0.7,0.6-0.8,0.8-0.9
		c0.4-0.2,0.8-0.2,1-0.2c-0.7,4.1-0.6,7.2-0.3,8C162.5,140,162.9,140.5,163.5,141.5z"/>
	<path class="st44" d="M89.9,131.7c-0.1,0.7,1.9,1.7,3.7,2.1c2.8,0.6,5.2-0.1,6.6-0.6c1-0.3,2.8-0.9,4.7-2.4c2.3-1.8,3.5-3.8,4-4.7
		c0.5-0.9,0.9-1.8,2.4-4.4c0.9-1.6,1.2-2,1.7-2.2c1-0.3,2.1,0.3,4.6,2.4c3,2.5,3.5,3.5,4.9,4.8c3.5,2.9,7.7,3.3,8.9,3.4
		c3.1,0.3,3.7-0.6,11-1.5c5.8-0.7,6.3-0.3,6.5,0c1.2,1.9-3.2,8.8-7.8,12.1c-0.5,0.3-1.2,0.8-1.6,1.8c-0.6,1.4,0.1,2.8,2.7,7.7
		c1.9,3.6,2.2,4.1,2.5,5.3c0.6,2.1,0.7,4.6,0.7,4.8c0.1,1.2,0.1,2.6,0.1,2.6c0,0.8,0,1.5,0,1.5c0,1-0.1,1.4,0,2.3
		c0,0.3,0,0.1,0.1,0.9c0,0.4,0,0.6,0.1,0.9c0.1,0.4,0.3,0.5,0.4,0.6c0.2,0.1,0.3,0.2,0.4,0.2c0.1,0,0.1,0,0.2,0c0,0,0.1,0,0.2-0.1
		c0.2-0.1,0.3-0.2,0.3-0.2c0.4-0.4,0.6-0.7,0.8-1.1c0,0,0,0,0,0c0.3-0.5,0.4-0.7,1-1.7c0.4-0.6,0.7-1.4,1.4-2.8
		c0.4-0.8,0.5-1.1,0.8-1.7c0.1-0.2,0.2-0.5,0.4-0.8c0.2-0.5,0.4-0.9,0.5-1.2c1-3.2,1.7-6.4,1.7-6.4c0.2-0.8,0.2-0.8,0.7-3.2
		c0.2-0.9,0.2-1.2,0.4-1.8c0.3-1.2,0.3-1.6,0.6-2.8c0.4-2.1,0.7-3.4,0.7-3.4c0,0-0.2,1.1-0.2,1.1c0,0,0.6-2.6,0.6-2.7c0,0,0,0,0,0
		s0,0,0,0c-0.5,1.7,0.5-2.2,0.6-2.7c0.2-0.7,0.3-1.2,0.5-1.6c0.4-1.1,0.6-1.6,0.7-1.9c0.2-0.3,0.3-0.6,0.5-0.9
		c0.8-1.1,2-1.6,2.3-1.6c0.8-0.3,1.2,0,1.8-0.3c1.1-0.5,1.4-1.9,1.5-2.8c1.2-6.5-1-19-1.2-19c0,0,0,0-0.1,0c-0.1,0-0.2-0.1-0.2-0.1
		c-0.2-0.2-0.3-0.3-0.3-0.3c-0.4-0.6-0.6-1-0.6-1c-0.4-0.7-0.5-1.2-0.6-1.3c-0.1-0.1-0.2-0.5-0.3-0.9c-0.1-0.5-0.3-1.4-0.2-2.7
		c0-0.3,0-0.7,0.2-1.1c0.1-0.3,0.2-0.4,0.3-0.8c0.1-0.2,0.2-0.7,0.3-1.2c0.1-0.9-0.1-1.7-0.2-1.9c-0.1-0.4-0.3-0.7-0.7-1.3
		c-0.3-0.6-0.5-0.8-0.8-1.3c-0.6-0.9-1-1.7-1.4-2.3c-0.3-0.5-0.6-1-1-1.7c-0.7-1.3-1-2.2-1.3-2.9c0,0-0.5-1.3-0.6-2.4
		c0-0.2,0-0.4,0-0.4c0-0.1,0-0.2,0-0.3c0-0.2,0.1-0.3,0.1-0.3c0-0.1,0-0.1,0.1-0.2c0.1-0.2,0.1-0.2,0.2-0.3c0.1-0.2,0.2-0.3,0.2-0.4
		c0,0,0-0.1,0.1-0.3c0,0,0-0.1,0.1-0.2c0,0,0-0.1,0-0.1c0,0,0,0-0.1-0.1c0,0-0.1,0-0.1,0c0,0-0.1,0-0.1,0c-0.1,0-0.1,0-0.1,0
		c-0.3,0.2-0.7,0.4-0.7,0.4c-0.1,0.1-0.2,0.2-0.4,0.2c-0.7,0.5-1.4,0.7-1.5,0.7c-0.3,0.1-0.5,0.2-0.9,0.2c0,0-0.5,0-0.9-0.1
		c-1.1-0.3-2.2-1.7-2.2-1.7c-1.6-2-4.5-2.9-6.3-3c-1.4-0.1-1.2,0.4-3.9,0.8c-3.7,0.5-4.8-0.3-5.7,0.6c-1.1,1.1,0,2.8-0.1,6.1
		c-0.1,3-1.2,5.2-1.8,6.6c-2.3,5.2-6.6,8.1-8.6,9.1c-0.5,0.2-1.2,0.6-2.1,0.9c0,0-2.4,0.9-4.1,1c-0.3,0-0.7,0-0.7,0
		c-0.2,0-0.3,0-0.4,0c-0.2,0-0.4,0-0.4,0c0,0,0.1,0.1,0.1,0.1c1.1,0.4,1.7,0.6,1.8,0.8c0.5,0.8-1.1,2.6-1.6,3.1
		c-1.4,1.5-2,2.2-3.1,2.5c-1.5,0.3-2-0.6-4.9-1.6c-3.3-1.2-5.3-0.9-5.4-1.7c-0.1-0.8,1.8-1.1,2.8-2.8c1.7-2.9-0.9-7.2-1.2-7.7
		c-2.3-3.8-6.4-5.1-6.9-5.2c-3.1-0.9-4.6,0.1-6.2-1.4c-1.8-1.6-1.2-4.2-2.4-4.3c-0.8-0.1-1.7,0.9-2.6,2.1c-0.2,0.2-0.7,0.9-1.2,1.9
		c-0.6,1.3-0.9,2.3-1.1,3c-0.1,0.5-0.2,0.9-0.3,1.8c-0.2,1.1-0.3,1.8-0.3,2.5c-0.4,3.2-0.4,2.8-0.5,3.9c-0.1,1.8-0.2,2.7,0,3.9
		c0.2,1.6,0.7,2.9,1,3.6c0.3,0.9,0.6,1.4,0.7,1.6c1.7,3.5,0.6,12.3,0.9,12.3c0.2,0,0.2-2.2,1.7-3.8c1.4-1.4,3.5-1.7,3.6-1.4
		c0.1,0.3-2,0.9-2.6,2.6c-0.4,1.4,0.6,1.9,0.5,3.9c-0.1,2-1,3.2-0.7,3.5c0.4,0.3,1.5-1.5,3-1.3c0.8,0.1,0.8,0.6,1.8,1.1
		c2,1,4.1,0.1,4.2,0.3c0,0.1-0.1,0.3-2.4,1.2C91,131.1,90,131.2,89.9,131.7z"/>
	<path class="st45" d="M108.8,118.2c0.9-0.4,0.9-2.3,0.6-3.4c-0.5-2.2-2.3-3.4-2.9-3.8c-2.3-1.5-5.3-1.7-5.6-1.1
		c-0.3,0.7,3.3,2,3.1,3.4c-0.3,1.6-5.1,2-5,2.5c0,0.3,2.9-0.5,5.9,0.7C107.1,117.3,108,118.6,108.8,118.2z"/>
	<path class="st46" d="M99.1,130.3c-0.6,0.2-1.2,0.3-2.2,0.5c-0.9,0.2-1.6,0.4-2.1,0.5c-0.9,0.2-1.7,0.1-2.2,0
		c-0.7-0.1-1.2-0.4-1.7-0.1c-0.3,0.1-0.5,0.4-0.7,0.6c0.1,0.2,0.2,0.6,0.4,0.9c0.5,0.7,1.1,1,1.4,1.1c1,0.4,1.9,0.6,2.6,0.6
		c1.2,0.1,2.1,0,2.6-0.1c1-0.2,1.7-0.4,2.4-0.6c1.4-0.5,2.5-1,3.4-1.6c0.6-0.3,1.2-0.7,1.8-1.2c0.8-0.6,1.5-1.3,2-1.9
		c0.3-0.4,0.6-0.9,1-1.5c0.4-0.7,0.5-1.4,0.6-1.9c-0.5,0.5-1.2,1.1-2,1.7c-0.5,0.4-1.1,0.7-1.5,0.9c-1.1,0.4-2.2,0.9-3.4,1.3
		C100.7,129.7,99.9,130,99.1,130.3z"/>
	<path class="st46" d="M124,124.5c0.5,0.2,0.9,0.4,1.4,0.6c0.6,0.3,1.1,0.6,1.6,0.8c0.2,0.1,1,0.5,2.1,0.7c1.2,0.3,2.1,0.4,2.4,0.4
		c0.8,0,1.4,0,2.5-0.1c0.9-0.1,1.6-0.2,2.5-0.4c0.7-0.2,1.2-0.4,1.3-0.4c0.3-0.1,0.5-0.2,1.1-0.4c0.8-0.3,0.8-0.4,1.1-0.5
		c0.4-0.1,0.9-0.3,1.6-0.5c0.4-0.2,0.8-0.2,1.1,0.1c0.3,0.2,0.4,0.6,0.3,1c-0.2,0.3-0.4,0.7-0.6,1.1c-0.5,0.7-1,1.2-1.4,1.6
		c-0.3,0.2-0.7,0.5-1.1,0.7c-0.9,0.5-1.8,0.8-2.5,0.9c-0.5,0.1-0.8,0.1-2.4,0.2c-1.1,0.1-2.1,0.1-2.7,0.1c-0.7,0-1.6-0.1-2.6-0.3
		c-1.2-0.2-2.2-0.6-2.9-0.9c-0.5-0.3-1.1-0.8-1.7-1.3c-0.7-0.6-1.2-1.2-1.6-1.8c-0.4-0.7-0.9-1.5-1.3-2.2L124,124.5z"/>
	<path class="st47" d="M127.1,114.7c-1.4,0.8-2.2,1.3-3.4,1.5c-0.3,0.1-3.8,0.6-5.9-1.5c-1.2-1.2-1.7-3-1.3-3.4
		c0.4-0.3,1.2,0.6,2.4,0.3c1-0.3,1.6-1.2,1.7-1.3c0.6-1,0.2-1.5,0.6-1.9c0.8-0.7,2.2,0.6,4,0.4c1.5-0.2,1.6-1.3,3.1-2
		c1.9-1,3.5-0.3,7.3,0.3c5.4,0.9,5-0.1,8.1,0.8c5,1.3,9,4.6,8.7,5.3c-0.1,0.1-0.3,0.2-3.3-0.3c-4.2-0.8-7.4-1.9-7.5-1.7
		c0,0.1,1.9,0.8,1.9,1c-0.1,0.2-2.5-0.5-5.8-0.8c-2.9-0.3-4.4-0.4-5.7,0.1C130.1,111.9,130.1,112.9,127.1,114.7z"/>
	<path class="st48" d="M97.6,115.5c-2.6-1.2-4.6-0.9-5.3-0.7c-1.1,0.3-2.1,0.9-2.7,1.2c-1.6,0.9-2.4,1.4-3.1,2.2
		c-0.2,0.2-0.5,0.5-0.6,0.5c-0.3-0.1,0-1.3,0.3-2.1c0.9-2.6,3.5-3.9,3.7-4c0.9-0.4,2.5-1,4.3-0.9c1,0,1.8,0.2,2.8-0.2
		c0.3-0.1,1-0.9,1.5-1.3c0.1-0.1,0.3-0.2,0.6-0.3c0.2-0.1,0.5-0.1,0.5-0.1l0,0l1.4-0.2l0.7-0.1c0,0-0.1,0-0.2,0
		c-0.2,0-0.3,0-0.4,0.1c-0.1,0-0.1,0.1-0.2,0.2c0,0,0,0.1,0,0.1c0,0,0,0.1,0.2,0.3c0.1,0.1,0.1,0.1,0.2,0.2c0.2,0.1,0.4,0.3,0.7,0.5
		c0.4,0.3,0.6,0.4,0.8,0.6c0.2,0.2,0.5,0.4,0.8,0.7c0.1,0.1,0.2,0.2,0.2,0.3c0.1,0.1,0.1,0.2,0.1,0.3c0,0.1,0,0.2,0,0.3
		c0,0.1,0,0.2-0.1,0.3c-0.1,0.4-0.4,0.5-0.6,0.6c-0.2,0.1-0.5,0.3-0.9,0.4c-0.4,0.2-0.8,0.3-1.1,0.4c-0.7,0.2-1.4,0.4-2.1,0.6
		c-0.1,0-0.4,0.1-0.4,0.2c0,0,0,0,0,0c-0.2,0-0.4,0-0.6-0.1C98,115.7,97.8,115.6,97.6,115.5z"/>
	<path class="st37" d="M90.4,90c0.2-1.1,2-1,4.2-2.4c1.4-0.9,2.5-2.2,4.5-4.9c2.1-2.7,2.1-3.3,3-3.5c2-0.5,4.3,2.4,6.5,5.2
		c2.2,2.8,3.7,4.7,4.3,7.7c0.7,3.1,0.8,8.4-1.7,9.4c-1.8,0.8-4.6-0.8-6-2.5c-0.9-1-1-1.9-2.6-3.7c-0.8-1-1.2-1.5-1.8-1.9
		c-1.9-1.4-4.4-1.4-5.8-1.4c-1.8,0-2.6,0.3-3.6-0.4C91.4,91.7,90.3,90.9,90.4,90z"/>
	<path class="st49" d="M165.3,128.2c0.1,0,0.2-0.1,0.5-0.2c0.2-0.1,0.3-0.1,0.4-0.1c0.3,0,0.5-0.2,0.9-0.4c0.7-0.4,1.1-0.9,1.2-1
		c0.5-0.6,0.8-0.9,0.9-1.4c0.1-0.4,0-0.8-0.2-1.3c-0.1-0.3-0.1-0.3-0.4-0.9c-0.1-0.3-0.2-0.6-0.4-1.2c-0.3-0.9-0.4-1.1-0.4-1.4
		c0-0.1-0.1-0.3-0.1-0.6c0-0.2-0.1-0.5-0.1-1c-0.1-0.7-0.1-1.5,0-2c0-1.9,0.1-2.3,0-3.3c0-0.3,0-0.6-0.1-0.9c-0.1-1-0.3-1.7-0.6-2.6
		c0-0.2-0.2-0.8-0.5-1.5c0-0.1-0.2-0.4-0.4-0.8c-0.3-0.5-0.5-0.6-0.7-0.7c-0.1,0-0.2-0.1-0.4-0.1c-0.6,0-1,0.6-1.2,0.9
		c-0.1,0.2-0.3,0.4-0.3,0.7c0,0.1,0,0.3,0,0.6c0,0.1,0,0.2,0,0.2c0,0.1-0.1,0.2-0.1,0.3c0,0,0,0,0,0c0,0,0,0.1,0,0.1
		c0,0.1,0,0.1,0.1,0.2c0.1,0.3,0.1,0.5,0.1,0.5c0.1,0.4,0.1,0.6,0.2,1.2c0.4,2.5,0.7,4.7,0.7,4.7c0.2,1.9,0.3,3.3,0.4,4.2
		c0.1,1,0.1,1.7,0.1,2.5c0,0.6,0,1.1,0,1.2c0,0.7,0,1.5-0.1,2.6c0,0.1-0.1,1.5-0.4,2.6c-0.1,0.3-0.2,0.5-0.3,0.7
		c-0.2,0.5-0.5,0.8-0.5,0.8c0,0,0.3-0.2,0.5-0.6c0.1-0.2,0.2-0.5,0.5-1.1c0.1-0.2,0.1-0.3,0.2-0.4
		C164.9,128.4,165.1,128.3,165.3,128.2z"/>
	<path class="st49" d="M130.7,78.1c0.1-0.1,0.5,0.1,1.1,0.6c0.7,0.6,1.5,1,2.3,1.4c0.2,0.1,1.6,0.8,3.3,0.8c0.4,0,1.3-0.1,2.4-0.4
		c0.6-0.2,1.1-0.5,1.6-0.9c1.2-0.8,2.2-1.4,3.4-2.5c1-0.9,2.2-2.1,3.4-3.7c0.2-0.3,0.5-0.5,0.7-0.7c0.3-0.3,0.8-0.5,1.3-0.5
		c0.5,0.1,0.9,0.5,1.2,1.1c0.1,0.9-0.2,1.5-0.7,2.1c-0.5,0.6-1.2,1-2,1.2c-0.3,0.1-0.5,0.3-0.7,0.5c-0.4,0.3-0.6,1-0.8,1.7
		c-0.4,0.5-0.9,0.9-1.4,0.9c-0.4,0-0.7,0.1-0.9,0.3c0,0.1,0.1,0.2,0.3,0.4c0.4,0.2,0.8,0.4,1.2,0.6c0.6,0.3,1.1,0.5,1.5,0.8
		c0.6,0.3,1.2,0.8,1.8,1.3c0,0,0,0,0.3,0.3c0.2,0.3,1,1.1,1.1,1.2c0.1,0.2,0.8,0.4,0.9,0.4c-0.5,0-1-0.3-1.5-0.7
		c-0.5-0.3-0.9-0.9-1.4-1.4c-0.1-0.2-0.9-0.7-1.8-1.1c-1.2-0.4-1.5-0.1-2.9-0.6c-0.9-0.3-0.7-0.4-1.3-0.6c-1.4-0.3-2,0.7-4.3,1.3
		c-1.2,0.3-2.2,0.6-3.5,0.3c-0.9-0.2-1.3-0.6-1.7-0.4c-0.4,0.2-0.7,1-0.1,3.5c0,1,0,2,0,2.6c-0.1,2-0.6,3.8-1.3,5.5
		c-0.2,0.5-0.4,1-0.7,1.5c-0.5,1.1-1.1,2.1-1.7,2.8c-0.8,1.2-1.8,2.2-2.8,3.2c-1.4,1.4-3.2,2.4-5.1,3.2c0,0-2.4,1.1-4.5,1.3
		c-0.8,0.1-1.6,0.1-1.6,0.1c-0.2,0-0.7,0-1.2-0.1c-0.5-0.1-1-0.2-1.4-0.2c-0.4-0.1-0.8-0.2-1.3-0.3c-0.5-0.2-1-0.4-1.3-0.6
		c2.5,0.4,4.4,0.6,5.2,0.5c0.7,0,1.4-0.1,1.4-0.1s0.5,0,1-0.1c2.2-0.3,4.2-1.3,4.2-1.3c1.3-0.6,2.2-1.2,2.4-1.4
		c0.9-0.7,1.5-1.3,2-1.8c0.5-0.5,1.5-1.6,2.5-3.3c0.7-1.1,1-1.9,1.3-2.4c0.2-0.4,0.7-1.6,1.1-3c0.3-1.2,0.7-3.2,0.6-5.9
		c0-0.1,0-0.2,0-0.3c-0.2-1.5-1.2-3.9-1.7-5.7C130.5,78.7,130.4,78.1,130.7,78.1z"/>
	<path class="st46" d="M105.7,137.9c0.3,0.2-0.9,1.9-1.9,4.3c-0.6,1.2-2.5,5.7-2.6,10.8c0,3.2,0.7,5.5,1.7,8.5
		c2,6.1,4.6,9.5,4.3,9.6c-0.3,0.2-4.4-4-6.7-10.2c-0.8-2.1-2.1-5.6-1.7-10.1c0.1-1.6,0.5-6.2,3.7-10.1
		C103.8,139.2,105.4,137.7,105.7,137.9z"/>
	<path class="st46" d="M123.5,135.9c-0.6-0.1-1.1,0.2-1.3,0.3c-0.6,0.4-0.5,0.7-1,1.1c-0.1,0-0.9,0.7-1.9,0.5
		c-0.8-0.2-1.5-1-1.4-1.4c0.1-0.3,0.5-0.2,1.1-0.6c0.4-0.3,0.6-0.5,1.4-1.6c0.7-1,1.1-1.4,1.3-1.6c0.9-0.5,2,0,2.5,0.2
		c1.5,0.6,2.3,1.8,2.5,2.1c1.6,2.2,3.6,4.1,5.1,6.3c4.6,6.7,5,6,6.8,9.4c1.3,2.6,2.3,4.6,2.4,7.3c0.3,5.1-2.5,9.6-2.7,9.5
		c0,0,0.1-0.5,0.3-1.5c0.4-1.7,0.5-1.9,0.5-2.6c0-0.4,0.2-1.5-0.2-2.6c-0.1-0.3-0.4-1.5-1.6-2.8c-1.7-1.9-3-1.4-3.6-2.6
		c-0.7-1.5,1.5-2.5,1.4-5.1c0-1.2-1.7-3.3-5.1-7.3c-0.4-0.5-1.1-1.3-1.9-1.2c-0.5,0-0.7,0.4-1.3,0.4c-0.7-0.1-1.3-0.7-1.4-1.3
		c-0.1-0.5,0.3-0.6,0.6-1.5c0.1-0.3,0.4-1.5-0.2-2.1c-0.3-0.3-0.5-0.1-1.1-0.4C124,136.5,124,136,123.5,135.9z"/>
	<path class="st50" d="M126.2,142.9c0.2,0.4-0.2,1-0.4,1.3c-0.3,0.4-0.5,0.6-0.7,0.8c-0.8,0.8-0.6,1.6-1.2,2.8
		c-0.4,0.7-0.8,1.1-1.4,1.7c-3.5,3.5-3.5,5-5.4,5.7c-3,1.1-6.2-1.1-6.6-1.4c-2-1.4-2.8-3.1-3.4-4.7c-0.4-0.9-1.6-3.5-0.8-4.2
		c0.5-0.4,1.6,0.1,3.8,1c1.9,0.8,2,1.1,2.8,1.1c0.9,0,1.7-0.6,3.3-1.8c1.3-1,1.2-1.1,1.9-1.3c1.5-0.6,2,0.3,3.6-0.2
		c1.4-0.4,1.6-1.3,3-1.4C124.8,142.4,126,142.3,126.2,142.9z"/>
	<path class="st51" d="M99.3,136.2c1.8-0.8,2.8-1.9,5-4.1c3.4-3.6,4.4-6.2,5.3-5.9c0.4,0.1,0.5,0.9,0.6,1.8c0.2,1.6-0.3,2.4-0.5,4
		c-0.4,2.5,0.4,2.7-0.1,4.2c-0.8,2.3-3.6,3.5-4,3.1c-0.4-0.3,1.1-2,0.6-2.5c-0.4-0.4-1.9,0.4-2.3,0.6c-2.2,1.2-3.3,3-3.5,3.3
		c-0.9,1.4-1.1,2.8-1.3,2.7c-0.2-0.1,1.2-3.7-0.3-5c-0.7-0.6-1.7-0.5-1.7-0.9C97,137,98.4,136.6,99.3,136.2z"/>
	<path class="st52" d="M132,163.4c1.5,3.1,0.1,6.6-0.2,7.1c-0.4,1-0.6,1-3.5,4.5c-3,3.7-3.2,4.2-4.3,4.7c-1.9,0.8-4.2,0.7-6-0.4
		c-2-1.2-2.6-3-3.1-4.5c-0.5-1.3-0.9-2.5-0.4-3.7c0.6-1.5,1.7-1.3,2.4-2.7c0.9-1.9-0.8-3.3,0.2-4.7c0.7-1,2.4-1.5,3.5-1
		c1.2,0.5,1,1.6,2,1.9c0.7,0.2,1.3-0.2,4.8-2.4c1.4-0.8,1.8-1.1,2.4-1C130.9,161.2,131.7,162.9,132,163.4z"/>
	<path class="st53" d="M128.7,159.7c-0.9-0.3-1.4,0.3-2.7,0c-0.3-0.1-0.6-0.1-0.7-0.2c-0.5-0.2-0.7-0.4-1.3-0.5
		c-1.5-0.4-3.4-0.1-4.6,1c-0.8,0.8-1.3,1.9-1,2.2c0.2,0.2,0.6-0.4,1.3-0.3c1,0.1,1.1,1.6,2.4,2c0.5,0.2,1,0.1,1.4,0
		c1.3-0.3,1.6-1.1,2.8-1.9c1.8-1.1,3.5-0.7,3.6-1.3C129.8,160.4,129.2,159.9,128.7,159.7z"/>
	<path class="st54" d="M131.7,162.6c0.2-0.1,2.7,1.9,2.7,4.5c0,0.6-0.1,1.2-0.4,2.1c-0.1,0.3-0.3,1.3-0.9,2.7
		c-0.4,0.9-0.9,2.1-1.9,3.6c-0.2,0.3-0.5,0.6-0.5,0.6c-0.1,0.2-0.4,0.5-0.8,0.9c-0.2,0.3-0.6,0.7-1.1,1.2c-0.8,0.8-1.3,1.3-1.8,1.5
		c-0.5,0.2-1,0.3-2.1,0.4c-0.5,0-0.9,0.1-0.9,0.1c-0.4,0-0.4,0-1,0c-0.4,0-0.5,0-0.5,0c0,0,0.4-0.1,0.8-0.2c1.1-0.3,1.9-1.2,2.1-1.4
		c0.2-0.2,0.4-0.5,1-1.2c0.3-0.4,0.4-0.5,0.7-0.9c0.5-0.6,0.9-1.1,1-1.3c0.3-0.3,0.7-0.8,1.2-1.5c0.4-0.5,0.6-0.7,0.9-1.1
		c0.6-0.7,0.7-0.8,0.9-1.1c0.1-0.1,0.4-0.6,0.7-1.3c0.6-1.2,0.7-2.2,0.7-2.8c0.2-1.6-0.1-2.9-0.2-3.3
		C132,163.1,131.6,162.6,131.7,162.6z"/>
	<path class="st55" d="M112.9,172.5c0.2-0.1,1.2,0.6,1.8,1.7c0.2,0.3,0.1,0.3,0.4,1c0.3,0.7,0.5,1.3,1,2c0.2,0.3,0.6,1,1.5,1.6
		c0.2,0.1,1,0.7,2.2,1.1c0.6,0.2,0.9,0.2,0.9,0.2c0,0.1-1.8,0.3-3.4-0.6c-0.6-0.4-1.1-0.8-1.8-1.5c-0.7-0.7-0.9-1.1-1-1.2
		c-0.4-0.6-0.6-1.1-0.7-1.5c0-0.1-0.2-0.5-0.4-1.2c0,0-0.1-0.4-0.3-1C112.9,172.6,112.9,172.5,112.9,172.5z"/>
</g>
<g id="Layer_6">
	<path class="st56" d="M111.7,160.5c0.5,0.9,0.4,1.9,0.3,2.5c-0.1,0.9-0.4,1.1-0.8,2.2c-0.7,2.1-0.1,3.2-0.6,3.4
		c-0.7,0.3-2.9-2.4-3.4-5.6c-0.2-1-0.4-2.6,0.5-3.4c0.7-0.6,1.6-0.6,1.8-0.6C110.8,159,111.5,160.2,111.7,160.5z"/>
	<path class="st51" d="M88.7,132.1c-0.4,0-0.9,0-1.5,0.1c-0.8,0.1-1.5,0.3-2,0.4c0.4,1,0.8,2.4,0.7,4.2c0,0.8-0.1,1.4-0.2,2
		c-0.2,0-0.4,0-0.5,0c0.3,0.9,0.6,1.9,0.8,3.1c0.2,1.1,0.3,2.1,0.4,3c0.5-0.6,1-1.3,1.5-2c0.8-1.1,1.4-2.1,1.9-3.1
		c0.3-0.9,0.6-2.1,0.7-3.4c0-0.6,0.1-1.2,0-1.7c0.6,0,1.2,0,1.9,0c1.8-0.1,3.4-0.3,4.8-0.6c-0.9,0-1.9,0-2.8,0
		c-0.4,0-0.9-0.1-1.5-0.3c-0.4-0.1-0.7-0.3-1-0.4c-0.2-0.1-0.5-0.3-0.7-0.4c-0.2-0.2-0.5-0.3-0.7-0.5
		C90,132.4,89.3,132.3,88.7,132.1z"/>
	<path class="st51" d="M105.1,144.6c0-0.6,0-1.3,0.1-2c0.2-1.3,0.7-2.2,1.1-2.9c0.3-0.3,0.9-0.6,1.6-1c1.2-0.6,1.7-0.6,2.5-1.1
		c1.5-0.8,1.1-1.5,2.4-2.2c1.1-0.6,1.7-0.2,3.7-0.9c0.7-0.2,1.3-0.5,1.6-0.7c-0.3,0.2-1,0.7-1.3,1.6c-0.4,1.2,0.1,2.2,0.3,2.5
		c0.2,0.4,0.4,0.7,0.5,0.7c0.3,0.4,0.8,0.6,1,0.7c0.2,0.1,0.5,0.1,0.9,0.1c0.4,0,0.7-0.1,0.9-0.2c-0.1,0.1-0.6,1-0.2,1.8
		c0.1,0.2,0.2,0.4,0.3,0.5c0.2,0.1,0.4,0.2,0.8,0.2c0.8,0.1,1.4-0.2,1.7-0.3c0.7-0.4,1.1-0.9,1.2-1c0.2-0.2,0.3-0.4,0.3-0.6
		c0-0.1,0.2-0.6-0.1-1.1c-0.2-0.3-0.4-0.5-0.5-0.5c-0.2-0.1-0.5-0.3-1-0.4c-0.7,0-1.1,0.3-1.3,0.4c0.1-0.3,0.2-0.5,0.3-0.7
		c0.3-0.7,0.4-0.9,0.6-1c0.1-0.1,0.3-0.1,0.5-0.2c0.2-0.1,0.8-0.3,1.1,0c0,0,0,0.1,0.1,0.2c0,0,0.1,0.1,0.3,0.3
		c0.2,0.1,0.3,0.2,0.4,0.2c0.1,0,0.2,0.1,0.3,0.1c0.1,0,0.2,0,0.2,0c0.2,0.1,0.3,0.2,0.3,0.2c0.2,0.2,0.3,0.6,0.3,0.7
		c0.1,1.1-0.4,2-0.4,2c-0.1,0.2-0.3,0.5-0.6,0.7c-0.2,0.3-0.5,0.7-0.9,1.1c-0.4,0.4-0.6,0.7-0.9,0.9c-0.9,0.8-2.1,1-3,1.2
		c-0.5,0.1-1.1,0.2-1.9,0.1c-0.5,0.4-1,0.8-1.5,1.1c-0.9,0.6-1.8,1.1-2.6,1.5c-0.6,0.3-1,0.4-1.3,0.5c-1,0.1-1.8-0.4-2.4-0.7
		c-0.6-0.3-1-0.7-1.2-0.9c-0.3-0.2-0.5-0.5-0.7-0.6c-0.4,0-0.9,0-1.3,0C106.5,144.9,105.7,144.7,105.1,144.6z"/>
	<path class="st57" d="M105.7,144.9c0-0.1,1.2-0.3,2.6,0c0.8,0.1,1.5,0.3,1.8,0.9c0.1,0.3,0.2,0.7,0,0.9c-0.3,0.3-1.3-0.2-1.7-0.4
		c-0.4-0.2-0.4-0.3-1.1-0.7c-0.5-0.3-0.8-0.4-1.1-0.5C105.8,144.9,105.7,144.9,105.7,144.9z"/>
	<path class="st57" d="M117.9,144c0.4,0.3,1.4,1,2.9,1.1c0.3,0,1.7,0.1,3.2-0.7c0.6-0.3,1.7-1.1,1.5-1.5c-0.1-0.4-1.1-0.4-1.9-0.2
		c-0.4,0.1-0.7,0.4-0.8,0.5c-0.4,0.3-0.8,0.4-1.1,0.5c-0.7,0.2-1.3,0.1-2.1,0.1c-0.3,0-0.5,0-0.7-0.1c-0.2,0-0.4,0.1-0.5,0.1
		C118.2,144,118.1,144,117.9,144z"/>
	<path class="st37" d="M113.2,125.4c-1.1,0-1.9,2.3-2.9,5.3c-0.2,0.7-0.4,1.4-0.4,2.2c0,0.6,0.1,1.1,0.1,1.1c0,0.5,0.1,0.5,0.1,0.9
		c0,0.2,0,0.7-0.1,1.1c-0.2,0.7-0.6,1-0.5,1.1c0.1,0.2,0.8,0,1.3-0.4c0.5-0.3,0.5-0.6,1-1.1c0,0,0.4-0.4,1-0.7
		c1.4-0.7,2.4-0.2,2.7-0.7c0.1-0.2,0-0.3-0.2-1c-0.2-1-0.2-1.9-0.1-2.5c0.1-0.9,0.2-1,0.3-1.5C115.5,127.5,114.2,125.4,113.2,125.4z
		"/>
	<path class="st37" d="M131.6,135.6c0.1-0.4,1-0.5,2.2-0.9c0.9-0.4,1.5-0.7,2.3-1.3c0.2-0.1,2.9-1.9,2.6-2.8
		c-0.1-0.2-0.3-0.3-0.2-0.5c0.1-0.2,0.4-0.3,0.6-0.3c2.3-0.5,3.5-0.7,3.9-0.7c1.6-0.1,2.4-0.1,3-0.1c1.4,0,2.1,0,2.3,0.2
		c0.9,1-1.4,4.7-2.9,6.6c-0.7,0.8-1.8,2.3-3.5,3.7c-1.1,0.9-1.7,1.2-2.5,2.2c-0.8,1-1,1.6-1.4,1.6c-0.6,0-0.7-1-1.9-2.7
		c-1-1.4-2.1-3-3.7-4.1C132,136.2,131.5,135.9,131.6,135.6z"/>
	<path class="st37" d="M123,137.9c-0.5-0.1-1,0.3-1.1,0.4c-0.4,0.3-0.3,0.5-0.7,0.8c-0.4,0.3-0.6,0.3-0.7,0.5
		c-0.3,0.4,0,1.2,0.5,1.5c0.7,0.4,1.7-0.4,2-0.6c0.3-0.3,1-0.8,1-1.6C123.7,138.5,123.4,138,123,137.9z"/>
	<path class="st58" d="M107.9,159.8l1.7,0.3c0.1,0,0.2,0,0.3,0c0.2,0,0.2,0,0.3-0.1c0.1,0,0.2-0.1,0.3-0.2c0.2-0.2,0.2-0.3,0.4-0.6
		c0.1-0.3,0.2-0.4,0.3-0.6c0.2-0.2,0.3-0.4,0.4-0.5c-0.6,0.1-1.3,0.3-2,0.5c-0.6,0.2-1.2,0.4-1.7,0.6c-0.1,0.1-0.1,0.3-0.2,0.4
		L107.9,159.8z"/>
	<path class="st59" d="M112.3,157.7c-0.3,0-0.5,0-0.6,0.2c-0.1,0.1,0,0.3,0,0.3c0.2,0.4,0.4,0.9,0.5,1.3l0.4,0.2c0.6,0,1.2,0,1.8,0
		c0.1-0.1,0.2-0.3,0.3-0.4c0.2-0.4,0.3-0.7,0.2-0.9c0,0.3-0.1,0.5-0.1,0.7c0,0.3,0,0.4,0.1,0.5c0.1,0.1,0.4,0.2,0.6,0.2
		c1.3,0.3,2.4,0.1,2.4,0.1c0.7-0.1,1.3-0.3,1.6-0.4c0.1-0.1,0.1-0.3,0.2-0.4c0.1-0.4,0.1-0.7,0.1-0.9c0,0.2,0,0.5,0,0.8
		c0,0.2,0.1,0.4,0.2,0.6c0.6,0.4,1.4,0.5,2,0.4c0.6-0.1,0.9-0.5,0.9-0.6c0.1-0.2,0.2-0.4,0.1-0.5c0.1-0.5,0.1-0.5,0.1-0.5
		c0,0-0.1,0.4,0,0.8c0,0.3,0.1,0.5,0.1,0.7c0.1,0.1,0.6,0.3,1.4,0.4c0.7,0,1.2-0.2,1.4-0.2c0.1-0.4,0.3-0.9,0.4-1.3
		c-0.1,0.2-0.1,0.6,0,0.9c0,0.1,0.1,0.3,0.2,0.4c1.3,0.3,2.6,0.2,3.1-0.1c0.2-0.2,0.4-0.5,0.4-0.5c0.2-0.4,0.1-0.7,0-0.9
		c-0.5,0-0.9-0.1-1.4-0.1l-1.6-0.6l-2.2-0.1l-2.3,0.1l-2.5,0.1l-3.6-0.1l-2.7,0L112.3,157.7z"/>
	<path class="st60" d="M129.6,169.8c0.2,0.5-0.9,0.9-1.9,2.7c-0.6,1.1-0.4,1.3-0.9,2.5c-0.4,1-1.5,3.6-3.6,4.1
		c-1.7,0.4-3.5-0.4-3.5-0.8c0-0.5,2.9,0.2,4.5-1.5c1.2-1.3,1.2-3.5,1.2-4c0-1.6-0.5-2.1-0.1-2.7C126.2,168.7,129.3,169,129.6,169.8z
		"/>
	<g>
		<path class="st61" d="M122.8,119.6c1.4-1.5,3-2.7,4.6-4c0.4-0.3,0.8-0.6,1.3-0.9c0.5-0.2,1-0.4,1.5-0.6c1-0.3,2-0.4,3.1-0.5
			c1-0.1,2.1,0,3.1,0.2c1,0.2,2,0.5,3,0.8c1.9,0.6,3.9,1.4,5.4,2.7c0.2,0.2,0.2,0.5,0.1,0.7c-0.1,0.2-0.4,0.2-0.6,0.2
			c-1.9-0.6-3.6-1.6-5.4-2.3c-0.9-0.4-1.8-0.7-2.8-0.9c-0.9-0.2-1.9-0.3-2.8-0.2c-0.9,0-1.9,0.2-2.8,0.4c-0.4,0.1-0.9,0.3-1.3,0.5
			c-0.4,0.2-0.8,0.5-1.2,0.8c-1.6,1.2-3.1,2.4-4.5,3.8c-0.2,0.2-0.5,0.2-0.7,0C122.6,120.2,122.6,119.8,122.8,119.6L122.8,119.6z"/>
	</g>
	<path class="st62" d="M125.3,121.5l0.9-0.9l1.5-1.7c0.2-0.2,0.4-0.4,0.6-0.6c0.2-0.2,0.4-0.3,0.5-0.4c0.3-0.2,0.6-0.4,0.9-0.6
		l0.6-0.3l0.4-0.1c0.2,0,0.5-0.1,0.7-0.1c0.3,0,0.5,0,0.8,0c1.2,0.2,2.3,0.5,3.5,0.7l3.2,1.1l3.8,1.4l-2.5,0.4l-2.8,0.4l-1.9,0.5
		l-1.3,0.3l-1.2,0.1h-1.5l-2.1,0.1h-1.6l-1.5-0.2L125.3,121.5z"/>
	<path class="st63" d="M130.4,117c-0.5,0.4-0.7,0.9-0.7,1.1c-0.1,0.2-0.4,1.2,0.1,2.3c0.1,0.2,0.5,1.1,1.5,1.5
		c0.6,0.3,1.2,0.3,4.1-0.4c2.3-0.5,2.1-0.5,2.6-0.6c1.5-0.2,2.2,0.1,3.7-0.4c0.8-0.3,1.7-0.5,1.8-0.9c0-0.3-0.4-0.6-5.9-2.4
		c0,0-0.9-0.3-4.6-1c-0.2,0-0.8-0.1-1.5,0.1C131.2,116.6,130.8,116.7,130.4,117z"/>
	<path class="st64" d="M132,116.5c-0.6,0.1-0.9,0.1-1.2,0.2c-0.5,0.3-0.8,0.7-0.9,1c-0.6,1-0.4,1.9-0.3,2.1c0,0.2,0.2,0.8,0.6,1.3
		c0.8,0.9,2.1,0.9,3.3,0.8c0.6,0,0.9-0.1,1.3-0.4c0.1-0.1,0.3-0.3,0.5-0.8c0.2-0.4,0.7-1.6,0.3-2.9c-0.2-0.6-0.4-0.8-0.4-0.9
		c-0.3-0.3-0.6-0.4-1.1-0.5C133.3,116.4,132.6,116.4,132,116.5z"/>
	<path class="st65" d="M111.8,158.2c-0.1,0.1,0,0.2,0.2,0.5c0.3,0.6,0.2,0.7,0.4,0.8c0.2,0.2,0.4,0.2,0.9,0.3c0.3,0.1,0.6,0,0.9,0
		c0.3,0,0.4,0,0.4-0.1c0.1-0.1,0.1-0.1,0.3-0.6c0.1-0.2,0.1-0.2,0.1-0.3c0.1-0.1,0.2-0.5,0.1-0.7c-0.2-0.4-1.5,0.2-2.8,0
		C112.2,158.2,111.8,158.1,111.8,158.2z"/>
	<path class="st66" d="M119.8,157.9c0,0.1,0,0.1,0.1,0.4c0.1,0.3,0,0.3,0.1,0.7c0,0.3,0.1,0.4,0.1,0.5c0,0.1,0.1,0.2,0.2,0.2
		c0.2,0.2,0.4,0.2,0.6,0.3c0.1,0,0.2,0,0.4,0.1c0.2,0,0.3,0.1,0.3,0.1c0.2,0,0.4,0,0.6-0.1c0.1,0,0.3-0.1,0.4-0.2
		c0.2-0.1,0.2-0.2,0.4-0.3c0.1-0.1,0.2-0.2,0.2-0.3c0-0.1,0.1-0.2,0.1-0.2c0-0.1,0-0.2,0-0.3c0-0.1,0-0.2,0.1-0.3c0-0.2,0-0.5,0-0.6
		c-0.2-0.4-1.5,0.2-2.8,0C120.3,157.8,119.9,157.7,119.8,157.9z"/>
	<path class="st67" d="M123.2,157.9c0,0,0,0.1,0,0.2c0,0.1,0,0.1,0,0.1c0,0,0,0.1,0.1,0.1c0,0,0,0.1,0,0.1c0,0.1,0,0.3,0,0.3
		c0,0.1,0,0.1,0,0.3c0,0.1,0,0.1,0,0.2c0,0.1,0,0.2,0,0.3c0,0.2,0,0.3,0,0.3c0.1,0.1,0.2,0.2,0.6,0.3c0.1,0,0.3,0.1,0.5,0.1
		c0.2,0,0.3,0,0.4,0c0.2,0,0.4,0,0.5,0c0,0,0.1,0,0.3-0.1c0.3-0.1,0.4-0.1,0.4-0.2c0,0,0,0,0-0.1c0,0,0-0.1,0.1-0.3
		c0-0.2,0.1-0.2,0.1-0.2c0-0.1,0-0.1,0-0.2c0-0.1,0-0.1,0-0.2c0-0.1,0-0.1,0-0.2c0,0,0-0.1,0-0.2c0-0.2,0-0.5-0.1-0.6
		c-0.3-0.5-1.5,0.1-2.6,0C123.7,157.8,123.3,157.8,123.2,157.9z"/>
	<path class="st67" d="M126.5,157.8c0,0,0,0.1,0,0.2c0,0.1,0,0.1,0,0.1c0,0,0,0.1,0.1,0.1c0,0,0,0.1,0,0.1c0,0.1,0,0.3,0,0.3
		c0,0.1,0,0.1,0,0.3c0,0.1,0,0.1,0,0.2c0,0.1,0,0.3,0,0.3c0.1,0.3,0.1,0.4,0.1,0.5c0.1,0.1,0.2,0.1,0.5,0.2c0.1,0,0.1,0,0.6,0.1
		c0.4,0,0.4,0,0.4,0c0.3,0,0.5,0,0.6,0c0,0,0.1,0,0.4-0.1c0.3-0.1,0.4-0.1,0.5-0.2c0,0,0.3-0.2,0.3-0.3c0,0,0.1-0.1,0.1-0.2
		c0,0,0,0,0,0c0,0,0-0.1,0-0.1c0,0,0,0,0-0.1c0,0,0,0,0-0.1c0,0,0,0,0-0.1c0,0,0-0.1,0-0.2c0-0.1,0-0.1,0-0.2c0-0.1,0-0.1,0-0.2
		c0-0.1-0.1-0.1-0.2-0.2c-0.2-0.2,0-0.5-0.1-0.6c-0.3-0.5-1.7,0.1-2.9,0C127,157.8,126.5,157.7,126.5,157.8z"/>
	<path class="st68" d="M115.3,158.2c-0.1,0-0.1,0.1-0.1,0.4c0,0.2-0.1,0.2-0.1,0.3c0,0.1-0.1,0.6,0.1,0.9c0.1,0.1,0.4,0.2,1,0.3
		c0.7,0.1,0.8,0.1,0.9,0.1c0.2,0,0.2,0,0.6-0.1c0.3,0,0.3,0,0.6,0c0.3,0,0.6-0.1,1-0.2c0.3-0.1,0.4-0.1,0.4-0.2c0,0,0.1-0.1,0.1-0.4
		c0-0.2,0.1-0.3,0.1-0.4c0-0.1,0.1-0.8-0.2-1.1c-0.2-0.2-0.4,0-1.1,0.2c-1,0.2-1,0-2,0.2c-0.4,0.1-0.7,0.2-1,0
		C115.4,158.2,115.3,158.1,115.3,158.2z"/>
	<g>
		<path class="st69" d="M107.6,158.5c0.1-0.1,0.2-0.1,0.3-0.2l0.2-0.1c0.1-0.1,0.3-0.2,0.4-0.2c0.3-0.2,0.6-0.3,0.9-0.4
			c0.6-0.2,1.3-0.4,2-0.4c1.3-0.1,2.6-0.1,3.7-0.2c0.6-0.1,1.1-0.2,1.8-0.3c0.6-0.1,1.3-0.2,1.9-0.3c1.3-0.1,2.5-0.2,3.7-0.4
			l0.9-0.2c0.3-0.1,0.7-0.1,1-0.1l2-0.1c1.3,0,2.5,0,3.9,0.2c1.4,0.2,2.6,0.5,3.9,1l1,0.4l0.5,0.2c0.2,0.1,0.4,0.2,0.6,0.3
			c0.7,0.4,1.4,1.1,1.9,1.8l0,0.1l0.1,0.1l0.3,0.5l0.1,0.2l0,0.2c0.1,0.5,0.2,1.1,0.3,1.6c0,0.6,0,1.1,0,1.7
			c-0.1,0.5-0.2,1.1-0.3,1.5l-0.3,1.2l-0.6,2.5c-0.2,0.8-0.4,1.7-0.7,2.6c-0.1,0.4-0.3,0.9-0.5,1.3l-0.6,1.3
			c-0.2,0.4-0.4,0.8-0.6,1.3c-0.2,0.4-0.5,0.8-0.7,1.2c-0.5,0.8-1.1,1.5-1.7,2.2l-1.9,2l0.1-0.1c-0.3,0.3-0.5,0.6-0.8,0.8
			c-0.3,0.2-0.6,0.5-1,0.7c-0.7,0.4-1.4,0.7-2.1,0.9c-0.7,0.2-1.5,0.3-2.2,0.3l-1.8,0l-1.8,0l-0.9,0l-0.5,0l-0.5,0
			c-1.4-0.1-2.8-0.5-4-1.2l-0.2-0.1l-0.1-0.1c-0.6-0.6-1.3-1.1-1.8-1.8c-0.5-0.6-1.1-1.3-1.5-2.1c-0.2-0.4-0.3-0.8-0.5-1.2
			c-0.2-0.4-0.3-0.8-0.4-1.2l-0.3-1.2c-0.1-0.4-0.1-0.8-0.2-1.2l0.1,0.4l-1-2.3l0.1,0.2l-1.7-2.4l-0.1-0.1l0,0l-1.4-2.9l0-0.1l0,0
			c-0.2-0.6-0.3-1.2-0.5-1.9c-0.1-0.6-0.1-1.3-0.1-1.9l0-0.1l0,0l0.3-1.6l0,0l0-0.1l0-0.1L107.6,158.5z M108.4,159.2l-0.7,1.2
			l0.1-0.2l0,0l-0.1,1.6l0-0.1c0.1,0.6,0.2,1.1,0.3,1.7c0.1,0.6,0.3,1.1,0.5,1.6l0-0.1l1.6,2.8l-0.1-0.1l1.9,2.3l0,0l0.1,0.1
			l1.2,2.2l0,0.1l0.1,0.3c0.1,0.3,0.1,0.7,0.2,1l0.3,1c0.1,0.3,0.2,0.7,0.4,1c0.1,0.3,0.3,0.6,0.4,0.9c0.3,0.5,0.7,1,1.3,1.5
			c0.5,0.5,1,1,1.5,1.4l-0.2-0.2c0.9,0.4,1.9,0.7,2.9,0.7l3.5-0.1l1.8,0c0.5,0,0.9-0.1,1.4-0.2c0.4-0.1,0.9-0.3,1.2-0.5
			c0.3-0.3,0.7-0.5,0.9-0.9l0.1-0.1l1.6-1.8c0.5-0.6,1-1.2,1.4-1.9c0.2-0.3,0.4-0.7,0.6-1c0.2-0.3,0.3-0.7,0.5-1l0.5-1.1
			c0.1-0.4,0.3-0.7,0.4-1.1c0.2-0.7,0.4-1.5,0.6-2.4l0.6-2.5c0.2-0.8,0.5-1.8,0.5-2.3c0-0.3,0-0.6,0-0.9c0-0.3-0.1-0.6-0.1-0.9
			l0.1,0.3l-0.3-0.6l0.1,0.2c-0.2-0.3-0.4-0.6-0.8-0.8c-0.1-0.1-0.2-0.1-0.2-0.2l-0.4-0.2l-0.7-0.4c-1-0.5-2.1-0.9-3.2-1.2
			c-1-0.3-2.3-0.4-3.5-0.6l-1.7-0.1c-0.3,0-0.6,0-0.9,0l-1,0.1c-1.3,0.1-2.6,0-3.8,0.1c-0.6,0-1.2,0.1-1.8,0.1
			c-0.6,0.1-1.3,0.2-1.9,0.2c-1.3,0-2.6-0.1-3.8-0.1c-0.6,0-1.2,0.1-1.7,0.3c-0.3,0.1-0.5,0.2-0.8,0.3c-0.1,0.1-0.3,0.1-0.4,0.2
			l-0.2,0.1C108.4,159.2,108.4,159.2,108.4,159.2z"/>
	</g>
	<path class="st70" d="M73.7,154.6"/>
</g>
<g id="Layer_7">
	<g>
		<g>
			<path class="st61" d="M123.4,121.9c-0.1-0.2,0-0.6,0.1-0.8c0.1-0.1,0.2-0.2,0.2-0.3c0.1-0.1,0.2-0.2,0.3-0.3
				c0.2-0.2,0.4-0.3,0.6-0.5c0.4-0.3,0.8-0.6,1.3-0.9c0.9-0.5,1.7-1.2,2.6-1.8c0.4-0.3,0.8-0.6,1.3-0.8c0.4-0.3,1-0.5,1.5-0.6
				c1.1-0.1,2.1,0.2,3.1,0.3c2,0.3,4,0.8,6,1.5c1.9,0.6,3.8,1.4,5.7,1.8l0.7,0.1l0.2,0c0,0,0.1,0,0.2,0c0,0,0-0.1,0.3,0.2
				c0.1,0.1,0.1,0.3,0.1,0.3c0,0.1,0,0.1-0.1,0.2c-0.1,0.1-0.3,0.2-0.3,0.2c-0.3,0-0.3,0-0.5,0c-0.5,0-1,0-1.5,0c-1,0-2,0.1-3,0.2
				c-1,0.1-2,0.3-3,0.5l-3,0.6c-0.5,0.1-1,0.2-1.5,0.3c-0.5,0.1-1,0.2-1.6,0.1l-3.1,0c-1,0-2-0.1-3.1,0l-1.6,0.1c-0.3,0-0.5,0-0.8,0
				c-0.1,0-0.3,0-0.5-0.1c-0.1,0-0.2-0.1-0.4-0.2C123.7,122.4,123.5,122.2,123.4,121.9z M124.9,121.6c0-0.1-0.1-0.2-0.2-0.2
				c-0.1,0,0,0,0,0c0,0,0.1,0.1,0.2,0.1c0.2,0.1,0.4,0.1,0.7,0.2c0.5,0.1,1,0.2,1.5,0.2c1,0.2,2,0.1,3,0.1c2-0.1,4,0.1,5.9-0.6
				c1-0.3,2-0.5,3-0.7c0.5-0.1,1-0.1,1.5-0.2c0.5-0.1,1-0.2,1.5-0.3c1-0.2,2.1-0.1,3.1-0.2l1.5,0l0.3,0c0.1,0-0.2,0-0.2,0.2
				c0,0.1-0.1,0.1-0.1,0.2c0,0,0,0.2,0.1,0.3c0.2,0.3,0.2,0.2,0.2,0.2c0,0,0,0,0,0l-0.2,0l-0.8-0.1c-1-0.2-2.1-0.4-3-0.7
				c-1-0.3-1.9-0.6-2.9-1.1c-1.8-0.8-3.7-1.5-5.7-1.9c-1-0.2-2-0.5-2.9-0.3c-0.5,0.1-0.9,0.2-1.3,0.5c-0.4,0.2-0.8,0.5-1.2,0.8
				c-0.8,0.5-1.4,1.4-2.1,2.1c-0.3,0.4-0.7,0.8-1.1,1.1c-0.2,0.2-0.4,0.3-0.6,0.5l-0.2,0.2c0,0,0,0,0,0
				C124.8,122,124.9,121.7,124.9,121.6z"/>
		</g>
	</g>
	<g>
		<path d="M89,123.4c0.7-1.3,1.6-2.4,2.8-3.2c1.2-0.8,2.5-1.2,3.9-1.6c1.4-0.3,2.7-0.5,4.1-0.4c1.4,0.1,2.7,0.4,4,1c0,0,0,0.1,0,0.1
			c0,0,0,0-0.1,0c-1.2-0.5-2.6-0.9-3.9-0.9c-1.3,0-2.7,0.3-4,0.6c-1.3,0.4-2.6,0.9-3.6,1.7c-1,0.8-1.8,1.9-2.4,3
			c-0.1,0.3-0.4,0.4-0.7,0.3S88.8,123.7,89,123.4C88.9,123.5,88.9,123.4,89,123.4z"/>
	</g>
	<path class="st71" d="M97,120.3c-1-0.8-3.9,1-5.3,3.1c-0.4,0.6-1.2,1.8-0.7,2.7c0.5,0.9,2.4,1,3.6,0.5
		C97.1,125.5,98.1,121.2,97,120.3z"/>
	<path class="st62" d="M96.7,120.4c1.2-0.6,2.3-0.5,3.1-0.4c0,0,2.6,0.3,5.2,2.5c0.4,0.4,0.4,0.6,0.9,0.9c0.1,0.1,0.3,0.2,0.3,0.3
		c0,0.1-0.1,0.2-0.2,0.4c-0.3,0.4-0.5,0.6-0.5,0.7c0,0-0.3,0.3-0.7,0.5c-1.5,0.8-9.9,1.4-10.1,1.5c0,0,0,0,0,0c-0.1,0-0.2,0-0.4,0
		c-0.5-0.1-1.1-0.6-1.2-1.2c-0.1-0.3,0-0.6,0.1-1c0.4-1.3,1.2-2.2,1.6-2.6C95.4,121.3,95.9,120.7,96.7,120.4z"/>
	<path class="st63" d="M98.8,119.7c-0.7,0.1-1.2,0.1-1.6,0.4c-2,1.4-1.1,6.4,0.4,6.8c0.2,0.1,0.7,0,1.7-0.2c0.6-0.1,1-0.2,1.3-0.2
		c0.4-0.1,0.6-0.1,1.5-0.4c1.4-0.3,1.3-0.3,1.4-0.3c0,0,1.3-0.4,2.1-1.2c0.1-0.1,0,0,0.4-0.5c0-0.1,0.1-0.2,0.1-0.3
		c0-0.1-0.1-0.2-0.1-0.2c-0.2-0.2-0.1-0.2-0.5-0.6c-0.2-0.2-0.4-0.4-0.7-0.7c-0.3-0.3-0.8-0.7-1-0.8
		C101.2,119.5,98.8,119.7,98.8,119.7z"/>
	<g>
		<path d="M90.5,126.3c-0.1-0.3-0.1-0.6,0-0.8c0.1-0.2,0.2-0.4,0.2-0.6c0.2-0.4,0.4-0.8,0.6-1.1c0.4-0.8,0.9-1.5,1.6-2.1
			c1.3-1.2,3-1.8,4.7-2c1.7-0.2,3.5,0,5,0.7c1.5,0.8,2.8,2,3.7,3.4l0,0l0,0c0,0,0,0,0,0l0,0c0,0,0,0,0,0l0,0l0,0l0,0
			c-0.1,0.3-0.3,0.6-0.5,0.9c-0.2,0.3-0.4,0.6-0.8,0.7c-0.6,0.4-1.3,0.5-2,0.7l-2,0.5c-0.7,0.2-1.4,0.3-2,0.4
			c-1.4,0.2-2.8,0.2-4.2,0.3c-0.7,0-1.4,0-2.1,0c-0.4,0-0.7-0.1-1.1-0.2C91.2,127,90.7,126.8,90.5,126.3z M91.1,126
			c0.1,0.4,0.9,0.5,1.5,0.6c0.7,0.1,1.3,0.1,2,0.1c1.4,0,2.7,0,4.1-0.2c0.7-0.1,1.4-0.2,2-0.3l2-0.4c0.7-0.1,1.4-0.2,2-0.5
			c0.3-0.1,0.5-0.4,0.8-0.6c0.2-0.3,0.4-0.5,0.6-0.8l0,0c0,0,0,0,0,0l0,0c0,0,0,0,0,0l0,0l0,0c-1-1.3-2.3-2.4-3.8-3.1
			c-1.5-0.7-3.2-0.8-4.8-0.5c-1.6,0.2-3.2,0.8-4.3,1.9c-0.6,0.5-1,1.2-1.4,1.9c-0.2,0.4-0.4,0.7-0.5,1.1
			C91.2,125.5,91,125.8,91.1,126z"/>
	</g>
</g>
</svg>
