<?xml version="1.0" encoding="utf-8"?>
<!-- Generator: Adobe Illustrator 24.1.1, SVG Export Plug-In . SVG Version: 6.00 Build 0)  -->
<svg version="1.1" id="Capa_1" xmlns="http://www.w3.org/2000/svg" xmlns:xlink="http://www.w3.org/1999/xlink" x="0px" y="0px"
	 viewBox="0 0 765 512" style="enable-background:new 0 0 765 512;" xml:space="preserve">
<style type="text/css">
	.st0{opacity:0.15;}
	.st1{fill:#FFFFFF;}
</style>
<g class="st0">
	<g>
		<path class="st1" d="M616.1,327c-20.5,0-37.2,16.7-37.2,37.2s16.7,37.2,37.2,37.2s37.2-16.7,37.2-37.2S636.6,327,616.1,327z
			 M620.7,391.6v-4.2h-9.3v4.2c-11.6-2-20.8-11.2-22.8-22.8h4.2v-9.3h-4.2c2-11.6,11.2-20.8,22.8-22.8v4.2h9.3v-4.2
			c11.6,2,20.8,11.2,22.8,22.8h-4.2v9.3h4.2C641.5,380.4,632.4,389.6,620.7,391.6z"/>
	</g>
</g>
<g class="st0">
	<g>
		<path class="st1" d="M756.2,400.5l-31.6-27.1h-34.2v-9.8c1.1,0.3,2.2,0.5,3.4,0.5h1.1c7.8,0,14.1-6.3,14.1-14.1
			c0-4.2-1.9-8.2-5.1-10.9l-76.6-63.9c-1.9-1.6-4.2-2.6-6.5-3.3v-19.4h55.7v-41.8h-65V272c-2.4,0.6-4.6,1.7-6.5,3.3l-76.6,63.9
			c-3.2,2.7-5.1,6.7-5.1,10.9c0,7.8,6.3,14.1,14.1,14.1h1.1c1.1,0,2.3-0.2,3.4-0.5v9.8h-34.2l-31.6,27.1c-2.4,2.1-3.8,5.1-3.8,8.4
			c0,6.1,4.9,11,11,11h2.9v79h55.7h4.6h41.8H644h41.8h4.6h55.7v-79h2.9c6.1,0,11-4.9,11-11C760.1,405.7,758.7,402.6,756.2,400.5z
			 M620.7,220.1h46.5v23.2h-46.5V220.1z M541.7,489.6h-46.5v-69.7h37.2v-9.3H483c-0.9,0-1.7-0.8-1.7-1.7c0-0.5,0.2-1,0.6-1.3
			l29-24.8h30.8V489.6z M611.4,489.6h-13.9V457h13.9V489.6z M634.6,489.6h-13.9V457h13.9V489.6z M681.1,489.6h-37.2v-41.8h-55.7
			v41.8H551V357.9l65-52.8l65,52.8L681.1,489.6L681.1,489.6z M616.1,293.1l-74.6,60.6c-0.9,0.7-1.9,1.1-3.1,1.1h-1.1
			c-2.7,0-4.8-2.2-4.8-4.8c0-1.4,0.6-2.8,1.7-3.7l76.6-63.9c2.9-2.4,7.5-2.4,10.5,0l76.6,63.9c1.1,0.9,1.7,2.3,1.7,3.7
			c0,2.7-2.2,4.8-4.8,4.8h-1.1c-1.1,0-2.2-0.4-3.1-1.1L616.1,293.1z M749.1,410.6h-49.4v9.3h37.2v69.7h-46.5V382.7h30.8l29,24.8
			c0.4,0.3,0.6,0.8,0.6,1.3C750.8,409.8,750,410.6,749.1,410.6z"/>
	</g>
</g>
<g class="st0">
	<g>
		<rect x="699.7" y="429.2" class="st1" width="9.3" height="9.3"/>
	</g>
</g>
<g class="st0">
	<g>
		<rect x="718.3" y="429.2" class="st1" width="9.3" height="9.3"/>
	</g>
</g>
<g class="st0">
	<g>
		<rect x="639.3" y="419.9" class="st1" width="9.3" height="9.3"/>
	</g>
</g>
<g class="st0">
	<g>
		<rect x="657.9" y="419.9" class="st1" width="9.3" height="9.3"/>
	</g>
</g>
<g class="st0">
	<g>
		<rect x="565" y="419.9" class="st1" width="9.3" height="9.3"/>
	</g>
</g>
<g class="st0">
	<g>
		<rect x="583.5" y="419.9" class="st1" width="9.3" height="9.3"/>
	</g>
</g>
<g class="st0">
	<g>
		<rect x="699.7" y="447.8" class="st1" width="9.3" height="9.3"/>
	</g>
</g>
<g class="st0">
	<g>
		<rect x="718.3" y="447.8" class="st1" width="9.3" height="9.3"/>
	</g>
</g>
<g class="st0">
	<g>
		<rect x="523.2" y="429.2" class="st1" width="9.3" height="9.3"/>
	</g>
</g>
<g class="st0">
	<g>
		<rect x="504.6" y="429.2" class="st1" width="9.3" height="9.3"/>
	</g>
</g>
<g class="st0">
	<g>
		<rect x="523.2" y="447.8" class="st1" width="9.3" height="9.3"/>
	</g>
</g>
<g class="st0">
	<g>
		<rect x="504.6" y="447.8" class="st1" width="9.3" height="9.3"/>
	</g>
</g>
<g class="st0">
	<g>
		<path class="st1" d="M602.1,410.6v27.9H630v-27.9H602.1z M620.7,429.2h-9.3v-9.3h9.3V429.2z"/>
	</g>
</g>
<g class="st0">
	<g>
		<polygon class="st1" points="620.7,359.5 620.7,350.2 611.4,350.2 611.4,368.8 630,368.8 630,359.5 		"/>
	</g>
</g>
</svg>
