<?xml version="1.0" encoding="utf-8"?>
<!-- Generator: Adobe Illustrator 24.1.1, SVG Export Plug-In . SVG Version: 6.00 Build 0)  -->
<svg version="1.1" xmlns="http://www.w3.org/2000/svg" xmlns:xlink="http://www.w3.org/1999/xlink" x="0px" y="0px"
	 viewBox="0 0 753.7 510.6" style="enable-background:new 0 0 753.7 510.6;" xml:space="preserve">
<style type="text/css">
	.st0{fill:#FFFFFF;}
	.st1{fill:none;stroke:#FFFFFF;stroke-width:3;stroke-miterlimit:10;}
</style>
<g id="BACKGROUND">
</g>
<g id="OBJECTS">
	<g>
		<g>
			<g>
				<path class="st0" d="M528.4,367.4c1.5,5.7,5.9,10.2,11.6,11.7l6.1,1.6l-6.1,1.6c-5.7,1.5-10.1,6-11.6,11.7l-1.6,6.4l-1.6-6.4
					c-1.5-5.7-5.9-10.2-11.6-11.7l-6.1-1.6l6.1-1.6c5.7-1.5,10.1-6,11.6-11.7l1.6-6.4L528.4,367.4z M526.7,388.9
					c1.8-3.5,4.7-6.4,8.2-8.2c-3.5-1.9-6.3-4.7-8.2-8.2c-1.8,3.5-4.7,6.4-8.2,8.2C522,382.6,524.9,385.4,526.7,388.9z"/>
			</g>
		</g>
		<g>
			<g>
				<path class="st0" d="M161.8,72.5c1.5,5.7,5.9,10.2,11.6,11.7l6.1,1.6l-6.1,1.6c-5.7,1.5-10.1,6-11.6,11.7l-1.6,6.4l-1.6-6.4
					c-1.5-5.7-5.9-10.2-11.6-11.7l-6.1-1.6l6.1-1.6c5.7-1.5,10.1-6,11.6-11.7l1.6-6.4L161.8,72.5z M160.1,94
					c1.8-3.5,4.7-6.4,8.2-8.2c-3.5-1.9-6.3-4.7-8.2-8.2c-1.8,3.5-4.7,6.4-8.2,8.2C155.4,87.6,158.3,90.5,160.1,94z"/>
			</g>
		</g>
		<g>
			<path class="st0" d="M581.3,146.9c0,5.3-4.3,9.6-9.6,9.6c-5.3,0-9.6-4.3-9.6-9.6c0-5.3,4.3-9.6,9.6-9.6
				C577,137.2,581.3,141.6,581.3,146.9z M577.9,146.9c0-3.4-2.8-6.2-6.2-6.2c-3.4,0-6.2,2.8-6.2,6.2c0,3.4,2.8,6.2,6.2,6.2
				C575.1,153.1,577.9,150.3,577.9,146.9z"/>
		</g>
		<g>
			<path class="st0" d="M334.1,108.4c0,5.3-4.3,9.6-9.6,9.6c-5.3,0-9.6-4.3-9.6-9.6c0-5.3,4.3-9.6,9.6-9.6
				C329.8,98.8,334.1,103.1,334.1,108.4z M330.7,108.4c0-3.4-2.8-6.2-6.2-6.2c-3.4,0-6.2,2.8-6.2,6.2c0,3.4,2.8,6.2,6.2,6.2
				C327.9,114.7,330.7,111.9,330.7,108.4z"/>
		</g>
		<g>
			<g>
				<rect x="109.2" y="244.6" class="st0" width="3.4" height="25.4"/>
			</g>
			<g>
				<rect x="98.2" y="255.6" class="st0" width="25.4" height="3.4"/>
			</g>
		</g>
		<g>
			<g>
				
					<rect x="568.6" y="255.6" transform="matrix(0.7071 -0.7071 0.7071 0.7071 -11.6668 486.4182)" class="st0" width="25.4" height="3.4"/>
			</g>
			<g>
				
					<rect x="579.6" y="244.6" transform="matrix(0.7071 -0.7071 0.7071 0.7071 -11.6668 486.4182)" class="st0" width="3.4" height="25.4"/>
			</g>
		</g>
		<g>
			<g>
				
					<rect x="452.4" y="94.3" transform="matrix(0.7071 -0.7071 0.7071 0.7071 68.3759 357.0058)" class="st0" width="25.4" height="3.4"/>
			</g>
			<g>
				
					<rect x="463.4" y="83.3" transform="matrix(0.7071 -0.7071 0.7071 0.7071 68.3705 356.9976)" class="st0" width="3.4" height="25.4"/>
			</g>
		</g>
		<g>
			<g>
				
					<rect x="262.3" y="398.7" transform="matrix(0.7071 -0.7071 0.7071 0.7071 -202.6094 311.7199)" class="st0" width="25.4" height="3.4"/>
			</g>
			<g>
				
					<rect x="273.3" y="387.7" transform="matrix(0.7071 -0.7071 0.7071 0.7071 -202.6112 311.7299)" class="st0" width="3.4" height="25.4"/>
			</g>
		</g>
	</g>
	<g>
		<path class="st1" d="M204.9,324.8"/>
	</g>
</g>
</svg>
