<?xml version="1.0" encoding="utf-8"?>
<!-- Generator: Adobe Illustrator 24.1.1, SVG Export Plug-In . SVG Version: 6.00 Build 0)  -->
<svg version="1.1" id="Layer_1" xmlns="http://www.w3.org/2000/svg" xmlns:xlink="http://www.w3.org/1999/xlink" x="0px" y="0px"
	 viewBox="0 0 1200 800" style="enable-background:new 0 0 1200 800;" xml:space="preserve">
<style type="text/css">
	.st0{clip-path:url(#SVGID_2_);fill:url(#SVGID_3_);}
	.st1{clip-path:url(#SVGID_5_);}
	.st2{clip-path:url(#SVGID_9_);fill:url(#SVGID_10_);}
	.st3{clip-path:url(#SVGID_12_);fill:url(#SVGID_13_);}
	.st4{clip-path:url(#SVGID_17_);}
	.st5{fill:#FFFFFF;}
</style>
<g id="BACKGROUND">
	<g>
		<g>
			<g>
				<defs>
					<rect id="SVGID_1_" width="1200" height="800"/>
				</defs>
				<clipPath id="SVGID_2_">
					<use xlink:href="#SVGID_1_"  style="overflow:visible;"/>
				</clipPath>
				
					<radialGradient id="SVGID_3_" cx="600" cy="-159.4451" r="851.9351" gradientTransform="matrix(1 0 0 0.661 0 505.3932)" gradientUnits="userSpaceOnUse">
					<stop  offset="0" style="stop-color:#303138"/>
					<stop  offset="8.911997e-02" style="stop-color:#2D2E35"/>
					<stop  offset="0.5759" style="stop-color:#1F2028"/>
					<stop  offset="1" style="stop-color:#1A1B23"/>
				</radialGradient>
				<polygon class="st0" points="0,800 1200,800 1200,0 0,0 				"/>
			</g>
		</g>
		<g>
			<g>
				<defs>
					<rect id="SVGID_4_" width="1200" height="800"/>
				</defs>
				<clipPath id="SVGID_5_">
					<use xlink:href="#SVGID_4_"  style="overflow:visible;"/>
				</clipPath>
				<g class="st1">
					<g>
						<g>
							<defs>
								<rect id="SVGID_6_" width="1200" height="800"/>
							</defs>
							<clipPath id="SVGID_7_">
								<use xlink:href="#SVGID_6_"  style="overflow:visible;"/>
							</clipPath>
						</g>
					</g>
					<g>
						<g>
							<defs>
								<rect id="SVGID_8_" width="1200" height="800"/>
							</defs>
							<clipPath id="SVGID_9_">
								<use xlink:href="#SVGID_8_"  style="overflow:visible;"/>
							</clipPath>
							
								<linearGradient id="SVGID_10_" gradientUnits="userSpaceOnUse" x1="667.6243" y1="-308.789" x2="1199.3" y2="-308.789" gradientTransform="matrix(1 0 0 1 0 502)">
								<stop  offset="0" style="stop-color:#E59900"/>
								<stop  offset="0.3025" style="stop-color:#E69C01"/>
								<stop  offset="0.5688" style="stop-color:#EBA703"/>
								<stop  offset="0.8206" style="stop-color:#F2B907"/>
								<stop  offset="1" style="stop-color:#F9CB0B"/>
							</linearGradient>
							<path class="st2" d="M676.1,90.3c13.8,24.9,42.6,39.2,71,48.3c36,11.5,73.9,17,110.4,26.9c36.6,9.9,72.9,24.9,98.4,51.3
								c31,32.2,42.2,77.4,70.1,112.1c42.8,53.4,112.3,67.9,173.3,50.6V123c-3.9,2.8-8,5.2-12.3,7.3
								c-45.3,21.8-106.1,17.4-146.5-10.4c-18.8-13-34.1-30.9-57-37.7c-15.8-4.8-33.1-3.6-49.8-3.4c-28.7,0.3-59.3-3.1-81.4-18.6
								c-20-13.9-30.3-37.8-23.2-58.8c0.2-0.5,0.3-1,0.5-1.4H689.1c-5.3,6.5-9.9,13.7-13.6,21.7C665.4,43.4,664.4,69.3,676.1,90.3z"
								/>
						</g>
					</g>
					<g>
						<g>
							<defs>
								<rect id="SVGID_11_" width="1200" height="800"/>
							</defs>
							<clipPath id="SVGID_12_">
								<use xlink:href="#SVGID_11_"  style="overflow:visible;"/>
							</clipPath>
							
								<linearGradient id="SVGID_13_" gradientUnits="userSpaceOnUse" x1="826.8559" y1="-429.9279" x2="1199.2001" y2="-429.9279" gradientTransform="matrix(1 0 0 1 0 502)">
								<stop  offset="0" style="stop-color:#F9CB0B"/>
								<stop  offset="0.2888" style="stop-color:#F7C70A"/>
								<stop  offset="0.5659" style="stop-color:#F3BC08"/>
								<stop  offset="0.8375" style="stop-color:#EBA803"/>
								<stop  offset="1" style="stop-color:#E59900"/>
							</linearGradient>
							<path class="st3" d="M852.2,60.2c22.1,15.5,52.7,18.9,81.4,18.6c16.8-0.2,34-1.4,49.8,3.4c22.9,6.9,38.2,24.7,57,37.7
								c40.4,27.9,101.2,32.2,146.5,10.4c4.2-2,8.4-4.5,12.3-7.3V0H829.6c-0.2,0.5-0.4,1-0.5,1.4C822,22.4,832.3,46.3,852.2,60.2z"
								/>
						</g>
					</g>
					<g>
						<g>
							<defs>
								<rect id="SVGID_14_" width="1200" height="800"/>
							</defs>
							<clipPath id="SVGID_15_">
								<use xlink:href="#SVGID_14_"  style="overflow:visible;"/>
							</clipPath>
						</g>
					</g>
					<g>
						<g>
							<defs>
								<rect id="SVGID_16_" width="1200" height="800"/>
							</defs>
							<clipPath id="SVGID_17_">
								<use xlink:href="#SVGID_16_"  style="overflow:visible;"/>
							</clipPath>
							<g class="st4">
								<g>
									<g>
										<path class="st5" d="M692.5-44.7C668-33.1,655.7-5.7,656,20.4c0.4,30.3,18.6,56.6,41.7,74.9
											c57.4,45.2,136.6,40.7,197.6,78.7c15.2,9.5,28.4,21.6,38.8,36.2c9.9,13.8,17.4,29.1,24.8,44.3
											c7.5,15.3,14.8,30.7,24.3,44.9c8.3,12.4,18.4,23.5,29.8,33.1c45.6,38,109.5,50.1,167.2,40.6
											c68.5-11.2,129.2-50.5,180.5-95.5c6.5-5.7,12.8-11.5,19.1-17.4c0.6-0.6-0.3-1.4-0.9-0.9c-49.9,47-107.5,89.3-174.6,107.3
											c-57.8,15.5-123.2,9.9-174.2-23.1c-12.5-8.1-23.9-17.7-33.7-28.9c-10.6-12-18.8-25.7-26.2-39.9
											c-14.9-28.7-26.8-59.9-50.3-83c-52.2-51.2-131.7-48.3-193.9-79.9c-27.9-14.2-54-36.3-64.6-66.6
											c-9-25.6-4.2-57.6,15.2-77.4c4.7-4.8,10.2-8.7,16.3-11.6C693.8-44,693.2-45,692.5-44.7L692.5-44.7z"/>
									</g>
								</g>
								<g>
									<g>
										<path class="st5" d="M847.1-23.3c-5.7,29,10.3,60.8,37.1,73.4c17,8,36.3,7.8,54.6,8.7c9.7,0.5,19.4,1.3,28.9,3.7
											c8.9,2.3,17.3,5.9,25.4,10.3c32.9,18.1,56.5,48.2,86.1,70.5c14.8,11.2,31.1,19.8,48.9,24.8c17.6,5,36.2,6.7,54.4,5.4
											c36.1-2.6,70.5-17.2,99.4-38.7c13.9-10.3,27.8-22.1,37.9-36.2c9.8-13.7,14.5-30.4,7.9-46.6c-6.7-16.3-21.2-27.3-36.7-34.6
											c-17.5-8.2-36.5-13.8-55-19.1c-38.3-10.9-77.5-18-117-22.6c-40-4.6-80.3-6.5-120.6-7c-40.5-0.5-80.9,0.5-121.4,1.9
											c-9.8,0.3-19.7,0.7-29.5,1c-0.8,0-0.8,1.3,0,1.3c39.3-1.4,78.7-2.7,118.1-3c39.3-0.2,78.7,0.6,117.9,3.7
											c39,3,77.8,8.3,116,16.8c18.9,4.2,37.7,9.3,56.2,15.2c17.8,5.7,36.6,11.6,51.7,22.9c14.1,10.6,24.7,27.5,21.8,45.6
											c-2.7,17.4-15.5,31.4-27.9,42.9c-26.1,24.3-58,43.1-92.9,51.2c-35.5,8.3-74.4,5.1-106.9-12.1
											c-32.8-17.3-56.2-47-85.2-69.4c-13.5-10.5-28.4-19.6-44.8-24.5c-17.9-5.3-36.6-4.4-55-5.9c-17.4-1.4-34.2-5.8-47.3-18
											c-11-10.2-18.6-24.2-21.1-39c-1.3-7.4-1.2-15,0.2-22.4C848.5-23.8,847.3-24.1,847.1-23.3L847.1-23.3z"/>
									</g>
								</g>
							</g>
						</g>
					</g>
					<g>
						<g>
							<defs>
								<rect id="SVGID_18_" width="1200" height="800"/>
							</defs>
							<clipPath id="SVGID_19_">
								<use xlink:href="#SVGID_18_"  style="overflow:visible;"/>
							</clipPath>
						</g>
					</g>
				</g>
			</g>
		</g>
	</g>
</g>
</svg>
