<?xml version="1.0" encoding="utf-8"?>
<!-- Generator: Adobe Illustrator 24.1.1, SVG Export Plug-In . SVG Version: 6.00 Build 0)  -->
<svg version="1.1" id="Layer_1" xmlns="http://www.w3.org/2000/svg" xmlns:xlink="http://www.w3.org/1999/xlink" x="0px" y="0px"
	 viewBox="0 0 1200 564.8" style="enable-background:new 0 0 1200 564.8;" xml:space="preserve">
<style type="text/css">
	.st0{fill:url(#SVGID_1_);}
	.st1{clip-path:url(#SVGID_5_);}
	.st2{opacity:0.15;clip-path:url(#SVGID_7_);fill:url(#SVGID_8_);enable-background:new    ;}
	.st3{clip-path:url(#SVGID_10_);}
	.st4{fill:url(#SVGID_11_);}
	.st5{fill:url(#SVGID_12_);}
	.st6{clip-path:url(#SVGID_14_);}
	.st7{fill:#FFFFFF;}
	.st8{fill:url(#SVGID_15_);}
</style>
<radialGradient id="SVGID_1_" cx="600" cy="657.0401" r="851.9351" gradientTransform="matrix(1 0 0 -0.4666 0 588.9828)" gradientUnits="userSpaceOnUse">
	<stop  offset="0" style="stop-color:#303138"/>
	<stop  offset="8.911997e-02" style="stop-color:#2D2E35"/>
	<stop  offset="0.5759" style="stop-color:#1F2028"/>
	<stop  offset="1" style="stop-color:#1A1B23"/>
</radialGradient>
<polygon class="st0" points="0,564.8 1200,564.8 1200,0 0,0 "/>
<g id="BACKGROUND">
	<g>
		<g>
			<g>
				<g>
					<defs>
						<rect id="SVGID_2_" y="-235.2" width="1200" height="800"/>
					</defs>
					<clipPath id="SVGID_3_">
						<use xlink:href="#SVGID_2_"  style="overflow:visible;"/>
					</clipPath>
				</g>
			</g>
		</g>
		<g>
			<g>
				<g>
					<defs>
						<rect id="SVGID_4_" y="-235.2" width="1200" height="800"/>
					</defs>
					<clipPath id="SVGID_5_">
						<use xlink:href="#SVGID_4_"  style="overflow:visible;"/>
					</clipPath>
					<g class="st1">
						<g>
							<g>
								<g>
									<defs>
										<rect id="SVGID_6_" y="-235.2" width="1200" height="800"/>
									</defs>
									<clipPath id="SVGID_7_">
										<use xlink:href="#SVGID_6_"  style="overflow:visible;"/>
									</clipPath>
									
										<linearGradient id="SVGID_8_" gradientUnits="userSpaceOnUse" x1="220.3209" y1="520.1814" x2="101.0759" y2="194.7128" gradientTransform="matrix(0.9468 0.322 0.3865 -1.1365 -95.0074 687.048)">
										<stop  offset="0" style="stop-color:#272426"/>
										<stop  offset="2.893585e-02" style="stop-color:#373536;stop-opacity:0.9711"/>
										<stop  offset="0.1203" style="stop-color:#666465;stop-opacity:0.8797"/>
										<stop  offset="0.2171" style="stop-color:#8F8D8E;stop-opacity:0.7829"/>
										<stop  offset="0.3181" style="stop-color:#B2B1B1;stop-opacity:0.6819"/>
										<stop  offset="0.4243" style="stop-color:#CECDCE;stop-opacity:0.5757"/>
										<stop  offset="0.5373" style="stop-color:#E4E3E4;stop-opacity:0.4627"/>
										<stop  offset="0.6606" style="stop-color:#F3F3F3;stop-opacity:0.3394"/>
										<stop  offset="0.8016" style="stop-color:#FCFCFC;stop-opacity:0.1984"/>
										<stop  offset="1" style="stop-color:#FFFFFF;stop-opacity:0"/>
									</linearGradient>
									<path class="st2" d="M327.5,380.7c-14.2-16.1-34.5-24.5-55.1-28.3c-58.1-10.9-117.5,10.9-175.8,19.8
										c-61.4,9.4-123.9-1-175.5-34.5c-5.3-3.4-10.5-7.2-15.4-11.4l-16.4,48.1l457.9,155.7c-6.3-16.7-9.3-35.1-8.4-53.7
										C340.4,440.8,352.2,408.6,327.5,380.7z"/>
								</g>
							</g>
						</g>
						<g>
							<g>
								<g>
									<defs>
										<rect id="SVGID_9_" y="-235.2" width="1200" height="800"/>
									</defs>
									<clipPath id="SVGID_10_">
										<use xlink:href="#SVGID_9_"  style="overflow:visible;"/>
									</clipPath>
									<g class="st3">
										
											<linearGradient id="SVGID_11_" gradientUnits="userSpaceOnUse" x1="-125.1759" y1="306.0757" x2="361" y2="306.0757" gradientTransform="matrix(1 0 0 -1 0 831.5319)">
											<stop  offset="0" style="stop-color:#E59900"/>
											<stop  offset="0.3866" style="stop-color:#E69B01"/>
											<stop  offset="0.6152" style="stop-color:#E9A402"/>
											<stop  offset="0.8026" style="stop-color:#EFB205"/>
											<stop  offset="0.9668" style="stop-color:#F7C60A"/>
											<stop  offset="1" style="stop-color:#F9CB0B"/>
										</linearGradient>
										<path class="st4" d="M-95.9,370.8c0,0,359.1,16,367.1,10s67.6,95.6,67.6,95.6L361,601.3c0,0-131.7,81.8-151.6,78.8
											c-20-3-312.3-76.8-330.2-80.8S-95.9,370.8-95.9,370.8z"/>
										
											<linearGradient id="SVGID_12_" gradientUnits="userSpaceOnUse" x1="-144.3203" y1="299.2016" x2="896.9203" y2="299.2016" gradientTransform="matrix(0.9468 0.322 0.3865 -1.1365 -95.0074 687.048)">
											<stop  offset="0" style="stop-color:#F9CB0B"/>
											<stop  offset="0.3516" style="stop-color:#F8C80A"/>
											<stop  offset="0.5931" style="stop-color:#F4BF08"/>
											<stop  offset="0.8009" style="stop-color:#EEB005"/>
											<stop  offset="0.9897" style="stop-color:#E69A00"/>
											<stop  offset="1" style="stop-color:#E59900"/>
										</linearGradient>
										<path class="st5" d="M735,480.8c-52.8-7.5-83.3,6.6-156-10c-33.8-7.7-64.6-14.8-97-37c-53.7-36.9-43.6-68.6-99.5-116.6
											c-20.6-17.7-62.5-56.9-117.3-54.6c-37.6,1.6-73.8,19.8-109.6,35.2C90.1,326,24.2,326.9-34.9,289.9
											c-22.7-14.2-42.5-33.6-58.3-56.4l-60,176.5c4.9,4.1,10.1,7.9,15.4,11.4c51.6,33.6,114.1,43.9,175.5,34.5
											c58.3-8.9,117.7-30.7,175.8-19.8c20.6,3.8,40.8,12.3,55.1,28.3c24.7,27.9,12.9,60.1,11.3,95.7c-0.8,18.6,2.1,37,8.4,53.7
											c201.9-16.3,403.8-32.7,605.7-49C831.1,505.3,775.3,486.6,735,480.8z"/>
									</g>
								</g>
							</g>
						</g>
						<g>
							<g>
								<g>
									<defs>
										<rect id="SVGID_13_" y="-235.2" width="1200" height="800"/>
									</defs>
									<clipPath id="SVGID_14_">
										<use xlink:href="#SVGID_13_"  style="overflow:visible;"/>
									</clipPath>
									<g class="st6">
										<g>
											<g>
												<path class="st7" d="M-77.5,480c39.3-5.3,74.2-25.4,109.6-41.9c18.5-8.6,37.5-16.4,57.5-20.8
													c21.9-4.8,44.9-5.7,66.7-0.5c18.3,4.4,35.7,13,49.6,25.8c14.6,13.5,23.4,31,30.2,49.4c6.7,18,12,36.6,21.5,53.4
													c8.3,14.7,19.5,27.7,32.5,38.5c26.1,21.7,59.8,34.5,93.8,34.4c4.3,0,8.5-0.3,12.8-0.7c0.8-0.1,0.8-1.3,0-1.3
													c-35,3.5-70.5-7.2-98.8-27.9c-14.2-10.4-26.6-23.4-36-38.4c-10.3-16.3-16.1-34.8-22.5-52.9
													c-6.4-17.8-13.8-35.6-26.8-49.7c-12.2-13.3-28.1-23-45.2-28.8c-40.2-13.6-83.1-4.6-121,11.6
													C10,445.7-24.4,467.3-63.4,476.1c-4.7,1.1-9.5,1.9-14.4,2.6C-78.6,478.9-78.3,480.1-77.5,480L-77.5,480z"/>
											</g>
										</g>
										<g>
											<g>
												<path class="st7" d="M-77.8,364.3c65.2,18.5,131.6-6.4,191.7-30.5c57.8-23.2,118.8-47.8,182.3-36.4
													c27.5,5,53.9,16.9,73.5,37.3c21.1,22,32.7,50.9,40.9,79.8c8.8,31,14,62.9,25,93.2c9.4,25.8,23.6,49,43.6,68
													c36.7,34.8,88.7,53.8,139.2,48.9c6.1-0.6,12.2-1.5,18.2-2.8c0.8-0.2,0.5-1.4-0.3-1.2c-51.6,11-107.1-4.5-147.5-38
													c-21.3-17.7-37.7-40.1-48.3-65.6c-12.4-29.9-18-62-26.1-93.2c-7.3-27.9-17.1-56.1-34.8-79.3
													c-16.5-21.4-39.4-36.2-65.2-43.9c-58.6-17.6-118.9,0-173.9,21.4c-61.3,23.9-125.2,54.4-192.8,46.3
													c-8.5-1-16.9-2.7-25.2-5.1C-78.3,362.9-78.6,364.1-77.8,364.3L-77.8,364.3z"/>
											</g>
										</g>
									</g>
								</g>
							</g>
						</g>
					</g>
				</g>
			</g>
		</g>
	</g>
	
		<linearGradient id="SVGID_15_" gradientUnits="userSpaceOnUse" x1="42.1" y1="585.766" x2="115.3" y2="585.766" gradientTransform="matrix(1 0 0 -1 0 831.5319)">
		<stop  offset="0" style="stop-color:#FFD71D"/>
		<stop  offset="1" style="stop-color:#FEB200"/>
	</linearGradient>
	<circle class="st8" cx="78.7" cy="245.8" r="36.6"/>
</g>
</svg>
