<?xml version="1.0" encoding="utf-8"?>
<!-- Generator: Adobe Illustrator 24.1.1, SVG Export Plug-In . SVG Version: 6.00 Build 0)  -->
<svg version="1.1" id="Layer_1" xmlns="http://www.w3.org/2000/svg" xmlns:xlink="http://www.w3.org/1999/xlink" x="0px" y="0px"
	 viewBox="0 0 1200 800" style="enable-background:new 0 0 1200 800;" xml:space="preserve">
<style type="text/css">
	.st0{clip-path:url(#SVGID_4_);}
	.st1{opacity:0.15;clip-path:url(#SVGID_6_);fill:url(#SVGID_7_);enable-background:new    ;}
	.st2{clip-path:url(#SVGID_13_);}
	.st3{fill:url(#SVGID_14_);}
	.st4{fill:url(#SVGID_15_);}
	.st5{clip-path:url(#SVGID_19_);}
	.st6{fill:#FFFFFF;}
	.st7{fill:url(#SVGID_20_);}
</style>
<g>
	<g>
		<g>
			<defs>
				<rect id="SVGID_1_" width="1200" height="800"/>
			</defs>
			<clipPath id="SVGID_2_">
				<use xlink:href="#SVGID_1_"  style="overflow:visible;"/>
			</clipPath>
		</g>
	</g>
	<g>
		<g>
			<defs>
				<rect id="SVGID_3_" width="1200" height="800"/>
			</defs>
			<clipPath id="SVGID_4_">
				<use xlink:href="#SVGID_3_"  style="overflow:visible;"/>
			</clipPath>
			<g class="st0">
				<g>
					<g>
						<defs>
							<rect id="SVGID_5_" width="1200" height="800"/>
						</defs>
						<clipPath id="SVGID_6_">
							<use xlink:href="#SVGID_5_"  style="overflow:visible;"/>
						</clipPath>
						
							<linearGradient id="SVGID_7_" gradientUnits="userSpaceOnUse" x1="302.7056" y1="524.9077" x2="183.4606" y2="850.3762" gradientTransform="matrix(0.9468 0.322 -0.3865 1.1365 230.9176 -291.9895)">
							<stop  offset="0" style="stop-color:#272426"/>
							<stop  offset="2.893585e-02" style="stop-color:#373536;stop-opacity:0.9711"/>
							<stop  offset="0.1203" style="stop-color:#666465;stop-opacity:0.8797"/>
							<stop  offset="0.2171" style="stop-color:#8F8D8E;stop-opacity:0.7829"/>
							<stop  offset="0.3181" style="stop-color:#B2B1B1;stop-opacity:0.6819"/>
							<stop  offset="0.4243" style="stop-color:#CECDCE;stop-opacity:0.5757"/>
							<stop  offset="0.5373" style="stop-color:#E4E3E4;stop-opacity:0.4627"/>
							<stop  offset="0.6606" style="stop-color:#F3F3F3;stop-opacity:0.3394"/>
							<stop  offset="0.8016" style="stop-color:#FCFCFC;stop-opacity:0.1984"/>
							<stop  offset="1" style="stop-color:#FFFFFF;stop-opacity:0"/>
						</linearGradient>
						<path class="st1" d="M327.5,615.9c-14.2-16.1-34.5-24.5-55.1-28.3c-58.1-10.9-117.5,10.9-175.8,19.8
							c-61.4,9.4-123.9-1-175.5-34.5c-5.3-3.4-10.5-7.2-15.4-11.4l-16.4,48.1l457.9,155.7c-6.3-16.7-9.3-35.1-8.4-53.7
							C340.4,676,352.2,643.8,327.5,615.9z"/>
					</g>
				</g>
				<g>
					<g>
						<defs>
							<rect id="SVGID_8_" width="1200" height="800"/>
						</defs>
						<clipPath id="SVGID_9_">
							<use xlink:href="#SVGID_8_"  style="overflow:visible;"/>
						</clipPath>
					</g>
				</g>
				<g>
					<g>
						<defs>
							<rect id="SVGID_10_" width="1200" height="800"/>
						</defs>
						<clipPath id="SVGID_11_">
							<use xlink:href="#SVGID_10_"  style="overflow:visible;"/>
						</clipPath>
					</g>
				</g>
				<g>
					<g>
						<defs>
							<rect id="SVGID_12_" width="1200" height="800"/>
						</defs>
						<clipPath id="SVGID_13_">
							<use xlink:href="#SVGID_12_"  style="overflow:visible;"/>
						</clipPath>
						<g class="st2">
							
								<linearGradient id="SVGID_14_" gradientUnits="userSpaceOnUse" x1="-125.1759" y1="1038.6903" x2="361" y2="1038.6903" gradientTransform="matrix(1 0 0 1 0 -278)">
								<stop  offset="0" style="stop-color:#E59900"/>
								<stop  offset="0.3866" style="stop-color:#E69B01"/>
								<stop  offset="0.6152" style="stop-color:#E9A402"/>
								<stop  offset="0.8026" style="stop-color:#EFB205"/>
								<stop  offset="0.9668" style="stop-color:#F7C60A"/>
								<stop  offset="1" style="stop-color:#F9CB0B"/>
							</linearGradient>
							<path class="st3" d="M-95.9,606c0,0,359.1,16,367.1,10s67.6,95.6,67.6,95.6L361,836.5c0,0-131.7,81.8-151.6,78.8
								c-20-3-312.3-76.8-330.2-80.8S-95.9,606-95.9,606z"/>
							
								<linearGradient id="SVGID_15_" gradientUnits="userSpaceOnUse" x1="-61.9356" y1="745.8873" x2="979.3051" y2="745.8873" gradientTransform="matrix(0.9468 0.322 -0.3865 1.1365 230.9176 -291.9895)">
								<stop  offset="0" style="stop-color:#F9CB0B"/>
								<stop  offset="0.3516" style="stop-color:#F8C80A"/>
								<stop  offset="0.5931" style="stop-color:#F4BF08"/>
								<stop  offset="0.8009" style="stop-color:#EEB005"/>
								<stop  offset="0.9897" style="stop-color:#E69A00"/>
								<stop  offset="1" style="stop-color:#E59900"/>
							</linearGradient>
							<path class="st4" d="M735,716c-52.8-7.5-83.3,6.6-156-10c-33.8-7.7-64.6-14.8-97-37c-53.7-36.9-43.6-68.6-99.5-116.6
								c-20.6-17.7-62.5-56.9-117.3-54.6c-37.6,1.6-73.8,19.8-109.6,35.2c-65.5,28.2-131.4,29.1-190.5-7.9
								c-22.7-14.2-42.5-33.6-58.3-56.4l-60,176.5c4.9,4.1,10.1,7.9,15.4,11.4c51.6,33.6,114.1,43.9,175.5,34.5
								c58.3-8.9,117.7-30.7,175.8-19.8c20.6,3.8,40.8,12.3,55.1,28.3c24.7,27.9,12.9,60.1,11.3,95.7c-0.8,18.6,2.1,37,8.4,53.7
								c201.9-16.3,403.8-32.7,605.7-49C831.1,740.5,775.3,721.8,735,716z"/>
						</g>
					</g>
				</g>
				<g>
					<g>
						<defs>
							<rect id="SVGID_16_" width="1200" height="800"/>
						</defs>
						<clipPath id="SVGID_17_">
							<use xlink:href="#SVGID_16_"  style="overflow:visible;"/>
						</clipPath>
					</g>
				</g>
				<g>
					<g>
						<defs>
							<rect id="SVGID_18_" width="1200" height="800"/>
						</defs>
						<clipPath id="SVGID_19_">
							<use xlink:href="#SVGID_18_"  style="overflow:visible;"/>
						</clipPath>
						<g class="st5">
							<g>
								<g>
									<path class="st6" d="M-77.5,715.2c39.3-5.3,74.2-25.4,109.6-41.9c18.5-8.6,37.5-16.4,57.5-20.8c21.9-4.8,44.9-5.7,66.7-0.5
										c18.3,4.4,35.7,13,49.6,25.8c14.6,13.5,23.4,31,30.2,49.4c6.7,18,12,36.6,21.5,53.4c8.3,14.7,19.5,27.7,32.5,38.5
										c26.1,21.7,59.8,34.5,93.8,34.4c4.3,0,8.5-0.3,12.8-0.7c0.8-0.1,0.8-1.3,0-1.3c-35,3.5-70.5-7.2-98.8-27.9
										c-14.2-10.4-26.6-23.4-36-38.4c-10.3-16.3-16.1-34.8-22.5-52.9c-6.4-17.8-13.8-35.6-26.8-49.7
										c-12.2-13.3-28.1-23-45.2-28.8c-40.2-13.6-83.1-4.6-121,11.6C10,680.9-24.4,702.5-63.4,711.3c-4.7,1.1-9.5,1.9-14.4,2.6
										C-78.6,714.1-78.3,715.3-77.5,715.2L-77.5,715.2z"/>
								</g>
							</g>
							<g>
								<g>
									<path class="st6" d="M-77.8,599.5c65.2,18.5,131.6-6.4,191.7-30.5c57.8-23.2,118.8-47.8,182.3-36.4
										c27.5,5,53.9,16.9,73.5,37.3c21.1,22,32.7,50.9,40.9,79.8c8.8,31,14,62.9,25,93.2c9.4,25.8,23.6,49,43.6,68
										c36.7,34.8,88.7,53.8,139.2,48.9c6.1-0.6,12.2-1.5,18.2-2.8c0.8-0.2,0.5-1.4-0.3-1.2c-51.6,11-107.1-4.5-147.5-38
										c-21.3-17.7-37.7-40.1-48.3-65.6c-12.4-29.9-18-62-26.1-93.2c-7.3-27.9-17.1-56.1-34.8-79.3
										c-16.5-21.4-39.4-36.2-65.2-43.9c-58.6-17.6-118.9,0-173.9,21.4c-61.3,23.9-125.2,54.4-192.8,46.3
										c-8.5-1-16.9-2.7-25.2-5.1C-78.3,598.1-78.6,599.3-77.8,599.5L-77.8,599.5z"/>
								</g>
							</g>
						</g>
					</g>
				</g>
			</g>
		</g>
	</g>
</g>
<linearGradient id="SVGID_20_" gradientUnits="userSpaceOnUse" x1="801.9" y1="-234.9" x2="801.9" y2="-234.9" gradientTransform="matrix(1 0 0 -1 0 802)">
	<stop  offset="0" style="stop-color:#F9CB0B"/>
	<stop  offset="0.3516" style="stop-color:#F8C80A"/>
	<stop  offset="0.5931" style="stop-color:#F4BF08"/>
	<stop  offset="0.8009" style="stop-color:#EEB005"/>
	<stop  offset="0.9897" style="stop-color:#E69A00"/>
	<stop  offset="1" style="stop-color:#E59900"/>
</linearGradient>
<path class="st7" d="M801.9,1036.9"/>
</svg>
