<?xml version="1.0" encoding="utf-8"?>
<!-- Generator: Adobe Illustrator 24.1.1, SVG Export Plug-In . SVG Version: 6.00 Build 0)  -->
<svg version="1.1" id="Layer_1" xmlns="http://www.w3.org/2000/svg" xmlns:xlink="http://www.w3.org/1999/xlink" x="0px" y="0px"
	 viewBox="0 0 1200 800" style="enable-background:new 0 0 1200 800;" xml:space="preserve">
<style type="text/css">
	.st0{clip-path:url(#SVGID_2_);}
	.st1{opacity:0.15;clip-path:url(#SVGID_4_);fill:url(#SVGID_5_);enable-background:new    ;}
	.st2{clip-path:url(#SVGID_7_);}
	.st3{fill:url(#SVGID_8_);}
	.st4{fill:url(#SVGID_9_);}
	.st5{clip-path:url(#SVGID_11_);}
	.st6{fill:#FFFFFF;}
	.st7{fill:url(#SVGID_12_);}
</style>
<g>
	<g>
		<g>
			<g>
				<defs>
					<rect id="SVGID_1_" x="-398.7" y="208.7" width="1598.7" height="591.3"/>
				</defs>
				<clipPath id="SVGID_2_">
					<use xlink:href="#SVGID_1_"  style="overflow:visible;"/>
				</clipPath>
				<g class="st0">
					<g>
						<g>
							<g>
								<defs>
									<rect id="SVGID_3_" x="-398.7" y="208.7" width="1598.7" height="591.3"/>
								</defs>
								<clipPath id="SVGID_4_">
									<use xlink:href="#SVGID_3_"  style="overflow:visible;"/>
								</clipPath>
								
									<linearGradient id="SVGID_5_" gradientUnits="userSpaceOnUse" x1="658.2512" y1="527.9779" x2="498.0357" y2="90.6842" gradientTransform="matrix(-0.9468 0.322 -0.3865 -1.1365 1619.015 754.055)">
									<stop  offset="0" style="stop-color:#272426"/>
									<stop  offset="2.893585e-02" style="stop-color:#373536;stop-opacity:0.9711"/>
									<stop  offset="0.1203" style="stop-color:#666465;stop-opacity:0.8797"/>
									<stop  offset="0.2171" style="stop-color:#8F8D8E;stop-opacity:0.7829"/>
									<stop  offset="0.3181" style="stop-color:#B2B1B1;stop-opacity:0.6819"/>
									<stop  offset="0.4243" style="stop-color:#CECDCE;stop-opacity:0.5757"/>
									<stop  offset="0.5373" style="stop-color:#E4E3E4;stop-opacity:0.4627"/>
									<stop  offset="0.6606" style="stop-color:#F3F3F3;stop-opacity:0.3394"/>
									<stop  offset="0.8016" style="stop-color:#FCFCFC;stop-opacity:0.1984"/>
									<stop  offset="1" style="stop-color:#FFFFFF;stop-opacity:0"/>
								</linearGradient>
								<path class="st1" d="M748.6,734.7c1.2,13.7-2.8,27.3-11.2,39.7l610-115.1l-21.8-35.6c-6.5,3.1-13.5,5.9-20.5,8.4
									c-68.7,24.8-152,32.4-233.8,25.5c-77.7-6.6-156.8-22.7-234.2-14.6c-27.4,2.8-54.5,9-73.4,20.9
									C730.8,684.5,746.5,708.3,748.6,734.7z"/>
							</g>
						</g>
					</g>
					<g>
						<g>
							<g>
								<defs>
									<rect id="SVGID_6_" x="-398.7" y="208.7" width="1598.7" height="591.3"/>
								</defs>
								<clipPath id="SVGID_7_">
									<use xlink:href="#SVGID_6_"  style="overflow:visible;"/>
								</clipPath>
								<g class="st2">
									
										<linearGradient id="SVGID_8_" gradientUnits="userSpaceOnUse" x1="100.376" y1="-246.9429" x2="748.0674" y2="-246.9429" gradientTransform="matrix(-1 0 0 -1 1467.1373 524)">
										<stop  offset="0" style="stop-color:#E59900"/>
										<stop  offset="0.3866" style="stop-color:#E69B01"/>
										<stop  offset="0.6152" style="stop-color:#E9A402"/>
										<stop  offset="0.8026" style="stop-color:#EFB205"/>
										<stop  offset="0.9668" style="stop-color:#F7C60A"/>
										<stop  offset="1" style="stop-color:#F9CB0B"/>
									</linearGradient>
									<path class="st3" d="M1360.9,825.5c-23.8,3-413.3,57.5-439.9,59.7c-26.5,2.2-202-58.2-202-58.2l29.6-92.3
										c0,0,79.4-75.1,90.1-70.7c10.7,4.4,489.1-7.4,489.1-7.4S1384.8,822.5,1360.9,825.5z"/>
									
										<linearGradient id="SVGID_9_" gradientUnits="userSpaceOnUse" x1="181.4164" y1="255.9534" x2="1538.9877" y2="255.9534" gradientTransform="matrix(-0.9468 0.322 -0.3865 -1.1365 1619.015 754.055)">
										<stop  offset="0" style="stop-color:#F9CB0B"/>
										<stop  offset="0.3516" style="stop-color:#F8C80A"/>
										<stop  offset="0.5931" style="stop-color:#F4BF08"/>
										<stop  offset="0.8009" style="stop-color:#EEB005"/>
										<stop  offset="0.9897" style="stop-color:#E69A00"/>
										<stop  offset="1" style="stop-color:#E59900"/>
									</linearGradient>
									<path class="st4" d="M9,800c269,12,537.9,24.2,806.9,36.2c8.4-12.3,12.3-25.9,11.2-39.7c-2.1-26.3-17.9-50.1,15.1-70.7
										c19.1-11.8,46-18.1,73.4-20.9c77.4-8.1,156.5,8.1,234.2,14.6c81.8,6.9,165.1-0.7,233.8-25.5c7.1-2.6,14-5.4,20.5-8.4
										l-79.9-130.5c-21,16.9-47.4,31.2-77.7,41.7c-78.7,27.3-166.5,26.7-253.8,5.8c-47.7-11.4-95.9-24.8-146-26
										c-73-1.7-128.8,27.3-156.3,40.4c-74.5,35.5-61,58.9-132.6,86.2c-43.2,16.4-84.2,21.7-129.2,27.3
										c-96.9,12.3-137.5,1.8-207.8,7.4C167.1,742.2,92.8,756,9,800z"/>
								</g>
							</g>
						</g>
					</g>
					<g>
						<g>
							<g>
								<defs>
									<rect id="SVGID_10_" x="-398.7" y="208.7" width="1598.7" height="591.3"/>
								</defs>
								<clipPath id="SVGID_11_">
									<use xlink:href="#SVGID_10_"  style="overflow:visible;"/>
								</clipPath>
								<g class="st5">
									<g>
										<g>
											<path class="st6" d="M1303.2,737.3c1.1,0.1,1.5-0.8,0.4-1c-6.5-0.5-12.9-1.1-19.2-1.9c-52-6.5-97.8-22.5-146.3-33.9
												c-50.5-12-107.6-18.6-161.2-8.6c-22.8,4.3-44,11.5-60.2,21.3c-17.3,10.4-27.2,23.6-35.7,36.7
												c-8.5,13.4-16.3,27.1-30,39.1c-12.5,11.1-29,20.7-48,28.4c-37.7,15.3-85,23.2-131.6,20.6c-1.1,0-1.1,0.9,0,1
												c5.7,0.3,11.3,0.5,17.1,0.5c45.3,0.1,90.2-9.4,125-25.4c17.3-8,32.2-17.6,43.3-28.5c12.7-12.4,19.7-26.2,28.6-39.5
												c9.1-13.6,20.8-26.5,40.2-36.5c18.5-9.5,41.7-15.8,66.1-19.1c29-3.8,59.7-3.2,88.9,0.4c26.6,3.3,52,9,76.6,15.4
												C1204.4,718.5,1250.9,733.4,1303.2,737.3L1303.2,737.3z"/>
										</g>
									</g>
									<g>
										<g>
											<path class="st6" d="M1303.6,651.8c1.1-0.1,0.7-1-0.4-0.8c-11.1,1.8-22.2,3-33.6,3.8c-90.1,6-175.2-16.6-256.9-34.2
												c-73.3-15.8-153.6-28.8-231.7-15.8c-34.4,5.7-64.9,16.6-86.9,32.4c-23.6,17.1-36.6,38-46.4,58.6
												c-10.8,23.1-18.3,46.8-34.8,68.9c-14.1,18.8-36,35.4-64.3,48.5c-53.8,24.8-127.8,36.2-196.5,28.1
												c-1.1-0.1-1.5,0.7-0.4,0.9c8,1,16.1,1.6,24.2,2.1c67.3,3.6,136.6-10.4,185.4-36.1c26.6-14,45.6-31.2,58.1-50.3
												c14.7-22.4,21.6-46,33.3-68.9c10.9-21.4,26.4-42.7,54.5-59c26.1-15.1,61.3-23.9,97.9-27.6c84.6-8.4,165.9,9.8,242.9,26.9
												C1128.3,647.1,1216.8,665.5,1303.6,651.8L1303.6,651.8z"/>
										</g>
									</g>
								</g>
							</g>
						</g>
					</g>
				</g>
			</g>
		</g>
	</g>
</g>
<linearGradient id="SVGID_12_" gradientUnits="userSpaceOnUse" x1="801.9" y1="1314.9" x2="801.9" y2="1314.9" gradientTransform="matrix(1 0 0 1 0 -278)">
	<stop  offset="0" style="stop-color:#F9CB0B"/>
	<stop  offset="0.3516" style="stop-color:#F8C80A"/>
	<stop  offset="0.5931" style="stop-color:#F4BF08"/>
	<stop  offset="0.8009" style="stop-color:#EEB005"/>
	<stop  offset="0.9897" style="stop-color:#E69A00"/>
	<stop  offset="1" style="stop-color:#E59900"/>
</linearGradient>
<path class="st7" d="M801.9,1036.9"/>
</svg>
